<svg width="106" height="48" viewBox="0 0 106 48" fill="none" xmlns="http://www.w3.org/2000/svg">
<g id="GDPR compliant - GDPR Copy 6" filter="url(#filter0_d)">
<rect id="Rectangle " x="4.5" y="2.5" width="97" height="39" rx="5.5" fill="white" stroke="#F3F3F3"/>
<g id="Rectangle _2">
<path d="M4 8C4 4.68629 6.68629 2 10 2H44V42H10C6.68629 42 4 39.3137 4 36V8Z" fill="#2050E0"/>
<path d="M4 8C4 4.68629 6.68629 2 10 2H44V42H10C6.68629 42 4 39.3137 4 36V8Z" stroke="#E7E7E7"/>
</g>
<path id="Shape-path" fill-rule="evenodd" clip-rule="evenodd" d="M27.9072 20.3603L23.5903 24.7691C23.466 24.8961 23.2204 25 23.0445 25H22.6716C22.4957 25 22.2501 24.8958 22.1259 24.7691L20.093 22.6881C19.9688 22.561 19.969 22.3532 20.0935 22.2265L20.8936 21.4113C21.0181 21.2843 21.2217 21.2843 21.3463 21.411L22.6451 22.7316C22.7698 22.8585 22.9734 22.8583 23.0977 22.7312L26.6574 19.0956C26.7818 18.9687 26.9855 18.968 27.1104 19.0944L27.9062 19.8996C28.0309 20.0262 28.0314 20.2331 27.9072 20.3603V20.3603Z" fill="white"/>
<g id="Group">
<path id="Shape" d="M24 8L24.4536 9.46796H25.9216L24.734 10.3752L25.1876 11.8431L24 10.9353L22.8127 11.8431L23.2664 10.3752L22.0784 9.46796H23.5464L24 8Z" fill="#F8D12E"/>
<path id="Shape_2" d="M24 32.1569L24.4536 33.6253H25.9216L24.734 34.5323L25.1876 36L24 35.093L22.8127 36L23.2664 34.5323L22.0784 33.6253H23.5464L24 32.1569Z" fill="#F8D12E"/>
<path id="Shape_3" d="M30.0392 10.1961L30.4926 11.664H31.9608L30.773 12.5716L31.2267 14.0392L30.0392 13.1316L28.8515 14.0392L29.3052 12.5716L28.1177 11.664H29.5859L30.0392 10.1961Z" fill="#F8D12E"/>
<path id="Shape_4" d="M34.9218 26L35.3751 27.4684H36.8431L35.6555 28.3756L36.1094 29.8431L34.9218 28.9363L33.734 29.8431L34.1877 28.3756L33 27.4684H34.4681L34.9218 26Z" fill="#F8D12E"/>
<path id="Shape_5" d="M36.0785 20.0784L36.5319 21.5463H38L36.8124 22.4534L37.2659 23.9216L36.0785 23.0148L34.8909 23.9216L35.3448 22.4534L34.1569 21.5463H35.6246L36.0785 20.0784Z" fill="#F8D12E"/>
<path id="Shape_6" d="M11.9218 20.0784L12.3752 21.5463H13.8431L12.6554 22.4534L13.1093 23.9216L11.9218 23.0148L10.734 23.9216L11.1877 22.4534L10 21.5463H11.4681L11.9218 20.0784Z" fill="#F8D12E"/>
<path id="Shape_7" d="M12.9218 26L13.3752 27.4684H14.8431L13.6557 28.3756L14.109 29.8431L12.9218 28.9363L11.7341 29.8431L12.1877 28.3756L11 27.4684H12.4682L12.9218 26Z" fill="#F8D12E"/>
<path id="Shape_8" d="M34.9218 14L35.3751 15.4684H36.8431L35.6555 16.3756L36.1094 17.8431L34.9218 16.9363L33.734 17.8431L34.1877 16.3756L33 15.4684H34.4681L34.9218 14Z" fill="#F8D12E"/>
<path id="Shape_9" d="M13.4218 14L13.8752 15.4684H15.3431L14.1557 16.3756L14.609 17.8431L13.4218 16.9363L12.2341 17.8431L12.6877 16.3756L11.5 15.4684H12.9682L13.4218 14Z" fill="#F8D12E"/>
<path id="Shape_10" d="M31.1374 31.0588L31.5907 32.5266H33.0588L31.8709 33.4342L32.3248 34.902L31.1374 33.9949L29.9494 34.902L30.4034 33.4342L29.2157 32.5266H30.6838L31.1374 31.0588Z" fill="#F8D12E"/>
<path id="Shape_11" d="M17.9608 10.1961L18.4141 11.664H19.8824L18.6946 12.5716L19.1486 14.0392L17.9608 13.1316L16.7733 14.0392L17.2269 12.5716L16.0392 11.664H17.5071L17.9608 10.1961Z" fill="#F8D12E"/>
<path id="Shape_12" d="M16.8626 31.0588L17.3162 32.5273H18.7843L17.5967 33.4341L18.0503 34.902L16.8626 33.9954L15.6752 34.902L16.1288 33.4341L14.9412 32.5273H16.4089L16.8626 31.0588Z" fill="#F8D12E"/>
</g>
<path id="GDPR" fill-rule="evenodd" clip-rule="evenodd" d="M51 17.6277C51 20.4713 53.1782 22.2553 55.854 22.2553C57.5481 22.2553 58.8524 21.5712 59.8205 20.5116V17.0106H55.4909V18.9288H57.5481V19.6799C57.1851 19.975 56.5531 20.2165 55.854 20.2165C54.3884 20.2165 53.353 19.0897 53.353 17.6277C53.353 16.1656 54.3884 15.0389 55.854 15.0389C56.701 15.0389 57.3868 15.5083 57.7498 16.0985L59.686 15.0791C59.0272 13.9658 57.817 13 55.854 13C53.1782 13 51 14.784 51 17.6277ZM61.1785 22.0944V13.1475H64.9433C67.767 13.1475 69.7973 14.8377 69.7973 17.6142C69.7973 20.3908 67.767 22.0944 64.9568 22.0944H61.1785ZM63.4912 20.0823H64.9433C66.5165 20.0823 67.4308 18.9422 67.4308 17.6142C67.4308 16.2327 66.5972 15.1596 64.9568 15.1596H63.4912V20.0823ZM70.9536 22.0944V13.1475H75.4445C77.4614 13.1475 78.564 14.5023 78.564 16.1253C78.564 17.735 77.4614 19.0629 75.4445 19.0629H73.2663V22.0944H70.9536ZM76.211 16.1119C76.211 15.4949 75.7538 15.0925 75.1353 15.0925H73.2663V17.1045H75.1353C75.7538 17.1045 76.211 16.7155 76.211 16.1119ZM84.6012 22.0944L83.0952 19.0629H81.912V22.0944H79.5993V13.1475H84.0902C86.0802 13.1475 87.2097 14.4621 87.2097 16.1253C87.2097 17.6813 86.255 18.513 85.4214 18.808L87.25 22.0944H84.6012ZM84.8566 16.0985C84.8566 15.4815 84.3457 15.0925 83.7406 15.0925H81.912V17.1045H83.7406C84.3457 17.1045 84.8566 16.7155 84.8566 16.0985Z" fill="#2B3945"/>
</g>
<defs>
<filter id="filter0_d" x="0" y="0" width="106" height="48" filterUnits="userSpaceOnUse" color-interpolation-filters="sRGB">
<feFlood flood-opacity="0" result="BackgroundImageFix"/>
<feColorMatrix in="SourceAlpha" type="matrix" values="0 0 0 0 0 0 0 0 0 0 0 0 0 0 0 0 0 0 127 0"/>
<feOffset dy="2"/>
<feGaussianBlur stdDeviation="2"/>
<feColorMatrix type="matrix" values="0 0 0 0 0.847059 0 0 0 0 0.866667 0 0 0 0 0.890196 0 0 0 1 0"/>
<feBlend mode="normal" in2="BackgroundImageFix" result="effect1_dropShadow"/>
<feBlend mode="normal" in="SourceGraphic" in2="effect1_dropShadow" result="shape"/>
</filter>
</defs>
</svg>
