<?xml version="1.0" encoding="utf-8"?>
<!-- Generator: Adobe Illustrator 24.1.2, SVG Export Plug-In . SVG Version: 6.00 Build 0)  -->
<svg version="1.1" xmlns="http://www.w3.org/2000/svg" xmlns:xlink="http://www.w3.org/1999/xlink" x="0px" y="0px"
	 viewBox="0 0 800 360" style="enable-background:new 0 0 800 360;" xml:space="preserve">
<style type="text/css">
	.st0{fill:none;stroke:#231F20;stroke-miterlimit:10;}
	.st1{clip-path:url(#SVGID_2_);fill:none;stroke:#231F20;stroke-miterlimit:10;}
	.st2{clip-path:url(#SVGID_2_);fill:none;stroke:#231F20;stroke-linecap:round;stroke-linejoin:round;stroke-miterlimit:10;}
	.st3{clip-path:url(#SVGID_2_);fill:#168E60;}
	.st4{clip-path:url(#SVGID_2_);fill:#E3F5ED;}
	.st5{clip-path:url(#SVGID_2_);}
	.st6{fill:#0F724E;}
	.st7{fill:#168E60;}
	.st8{fill:#6ABF96;}
	.st9{fill:#1EAF7B;}
	.st10{fill:#89CEAB;}
	.st11{clip-path:url(#SVGID_2_);fill:#89CEAB;}
	.st12{fill:#B6E0C8;}
	.st13{fill:none;}
	.st14{font-family:'Roboto-Regular';}
	.st15{font-size:10px;}
</style>
<g id="Background">
</g>
<g id="Layer_2">
</g>
<g id="Book_-_open">
</g>
<g id="Laptop">
	<path class="st0" d="M2611.9-2713.7"/>
</g>
<g id="Book">
</g>
<g id="Layer_6">
</g>
<g id="Layer_7">
	<g>
		<defs>
			<rect id="SVGID_1_" x="-0.1" y="-0.5" width="800.2" height="360.9"/>
		</defs>
		<clipPath id="SVGID_2_">
			<use xlink:href="#SVGID_1_"  style="overflow:visible;"/>
		</clipPath>
		<path class="st1" d="M2611.9-2713.7"/>
		<path class="st1" d="M2611.9-2713.7"/>
		<path class="st1" d="M-10400-2713.7"/>
		<path class="st1" d="M2611.9-2713.7"/>
		<path class="st1" d="M2611.9-2713.7"/>
		<path class="st1" d="M2611.9-2713.7"/>
		<path class="st1" d="M2611.9-2713.7"/>
		<path class="st1" d="M2611.9-2713.7"/>
		<path class="st1" d="M2611.9-2713.7"/>
		<path class="st1" d="M-220.9,396.2"/>
		<path class="st1" d="M2611.9-2713.7"/>
		<path class="st1" d="M-10400-2713.7"/>
		<path class="st2" d="M-10350-2703.7"/>
		<path class="st2" d="M2611.9-2713.7"/>
		<path class="st2" d="M2611.9-2713.7"/>
		<path class="st3" d="M-10400-2713.7"/>
		<path class="st3" d="M-10400-2713.7"/>
		<path class="st3" d="M-10400-2713.7"/>
		<path class="st3" d="M-10400-2713.7"/>
		<rect x="-0.1" y="-0.5" class="st4" width="800.2" height="360.9"/>
		<g id="XMLID_31_" class="st5">
			<g>
				<path class="st6" d="M672.3,183.1c2.3,3-127.2,190.5-133.9,199.2c-2.6,3.4-4,5.1-5.7,6.1c-7.5,4.1-16.8-1.3-27.1-5.3
					c-3.8-1.5-12.9-5-25-9.2l0.4-1.2c8.6,3.1,18.2,6.1,28.6,8.9l140.5-202.3l-0.4-1.5c3.5,1,6.4,1.6,8.6,2c4,0.7,7.9,1.8,11.8,2.6
					C671.8,182.7,672.1,182.8,672.3,183.1z"/>
				<path class="st7" d="M649.7,177.8l0.4,1.5L509.6,381.5l-0.8-3.2l139.5-200.9C648.8,177.5,649.3,177.6,649.7,177.8z"/>
				<path class="st8" d="M649.2,176l-0.9,1.3L508.8,378.3c-4.6-2-11.5-5.1-19.5-9.6c-14.1-7.9-19.4-13-32.2-22
					c-20.1-14.1-30.6-21.4-46.5-25.1c-9.6-2.2-23.7-5.7-33.9,5.1c-2.4,2.6-8.6,9-12.1,13.7l147.2-197.6
					c19.5-12.2,35.7-13.7,44.4-13.7c26.4,0,47.5,14.4,71,30.2c4.8,3.2,9,6.3,12.7,9.2S646.7,173.9,649.2,176z"/>
				<path class="st8" d="M511.9,142.8L364.7,340.5c1.3-3.7,2.2-8.8,0.6-14c-4.3-13.4-22.8-18.8-35.1-20.7c-34.1-5.1-48.4-4-69-4.4
					c-12.1-0.2-20.8-3-43.1-7.8l152.2-190.3l2.5-3.1c9.2-1.9,23.9-4.2,41-4.2c13.5,0,28.6,1.5,43.8,5.9c21.7,6.3,32.8,15.4,36,18.2
					C502.8,128.2,508.6,136.8,511.9,142.8z"/>
				<path class="st7" d="M508.8,378.3l0.8,3.2c-10.4-2.8-19.9-5.8-28.6-8.9c-14.2-5.1-26-10.3-34.8-14.6
					c-20.1-9.9-36.8-20.8-61.4-20.4c-8.6,0.1-15.6,1.6-20.2,2.9c3.5-4.7,9.6-11.2,12.1-13.7c10.2-10.8,24.3-7.2,33.9-5.1
					c15.9,3.6,26.4,10.9,46.5,25.1c12.8,9,18.1,14.1,32.2,22C497.4,373.2,504.2,376.3,508.8,378.3z"/>
				<path class="st6" d="M481.1,372.6l-0.4,1.2c-24.7-8.7-61.7-20.7-91.1-26.4c0.3,0.6,1.3,3.2,0,6.1c-0.6,1.3-1.4,2.4-2.2,3.1
					s-1.5,1.2-2,1.2c-15.3-4.6-30.6-9.1-46-13.6c-0.7-0.4-3-2-4.2-5c-1.3-3.4-0.3-6.3,0-7.1c-24.9-8.7-45.6-13.9-60.3-17.1
					c-17.2-3.7-34-8.8-51.2-12.6c-17.7-3.9-27.1-5.5-28.4-11c-0.8-3.5,152.9-190.6,156-192.2c1.8-0.9,7.5-3.1,18.9,4L218,293.6
					c0.1,1.2,0.3,2.7,0.4,3.9c40.5,10.4,67.6,15.8,87.1,18.4c7.5,1,23.9,2.9,42,12.8c7.7,4.2,13.4,8.6,17.1,11.7
					c4.6-1.2,11.6-2.7,20.2-2.9c24.6-0.4,41.4,10.5,61.4,20.4C455.1,362.3,466.8,367.5,481.1,372.6z"/>
				<path class="st7" d="M365.3,326.4c1.7,5.2,0.7,10.3-0.6,14c-3.7-3.1-9.4-7.5-17.1-11.7c-18.1-9.9-34.5-11.8-42-12.8
					c-19.5-2.6-46.6-8-87.1-18.4c-0.1-1.2-0.3-2.7-0.4-3.9c22.3,4.8,30.9,7.6,43.1,7.8c20.7,0.4,34.9-0.7,69,4.4
					C342.5,307.6,361,313.1,365.3,326.4z"/>
			</g>
			<g>
			</g>
		</g>
		<g id="XMLID_29_" class="st5">
			<g>
				<path class="st9" d="M221.1,117.4v14L-0.5,395.1h-13L221.1,117.4C221,117.4,221,117.4,221.1,117.4L221.1,117.4z"/>
				<path class="st10" d="M221,117.4C221,117.4,221,117.4,221,117.4L-13.5,395.1l-67.7-40.9l1.8,0.5l217-247.4l-15-4L-92.9,347.1
					l-4.7-2.9l214.8-242.5l-15-4l-212.9,238.5l-5-3L96.5,96.3l-15-4l-210.3,233.2l-4.8-2.9L76,90.8l-15-4l-207.6,227.9l-9.6-5.8
					l215-234.8L221,117.4C221,117.3,221,117.4,221,117.4z M-57.1,361.3l215.6-248.5l-15-4L-73.1,356.6L-57.1,361.3z"/>
				<polygon class="st9" points="158.5,112.9 -57.1,361.3 -73.1,356.6 143.5,108.9 				"/>
				<polygon class="st9" points="137.6,107.3 -79.4,354.7 -81.2,354.2 -92.9,347.1 122.6,103.2 				"/>
				<polygon class="st9" points="117.2,101.8 -97.6,344.3 -110.7,336.3 102.2,97.8 				"/>
				<polygon class="st9" points="96.5,96.3 -115.7,333.3 -128.8,325.4 81.5,92.3 				"/>
				<polygon class="st9" points="76,90.8 -133.6,322.5 -146.6,314.7 61,86.8 				"/>
				<polygon class="st9" points="58.8,-72.5 58.8,74.1 -156.2,308.9 -9.3,-60.8 				"/>
			</g>
			<g>
			</g>
		</g>
		<path class="st11" d="M47.8-84.1V44.7c0,10.1-3.9,19.9-10.8,27.3l-244,260.1L47.8-84.1z"/>
		<g class="st5">
			<g id="XMLID_26_">
				<g>
					<polygon class="st9" points="867.5,-34.3 867.5,9.1 788.8,131.7 788.8,85.9 					"/>
					<polygon class="st10" points="867.5,-34.3 788.8,85.9 632.3,46.3 691.6,-34.3 					"/>
					<polygon class="st12" points="788.8,85.9 788.8,131.7 632.3,91.3 632.3,46.3 					"/>
				</g>
				<g>
				</g>
			</g>
			<path class="st9" d="M781.9,91.3L660.2,60.5c-0.1,0-0.2,0.1-0.1,0.2l9.6,4.3c0.3,0.1,0.6,0.2,0.9,0.3L781.9,91.3z"/>
			<path class="st9" d="M697.3,80.1L697.3,80.1l-59.9-15.3l4.1-0.1c0.3,0,0.5,0,0.8,0.1L697.3,80.1z"/>
			<path class="st7" d="M632.3,84"/>
			<path class="st7" d="M781.9,122.4"/>
			<path class="st9" d="M755.4,103.6c-0.2-0.2-0.4-0.4-0.7-0.5l-58.7-13l60.6,15.5c0.1,0,0.1-0.1,0.1-0.1L755.4,103.6z"/>
			<path class="st9" d="M651.8,89l1.3-0.6c0.6-0.2,1.2-0.3,1.8-0.1l20.3,5.6c0.1,0,0.2,0,0.2,0.1l12.5,4.3L651.8,89z"/>
			<polygon class="st9" points="737.1,110.9 711.6,103.9 775.2,120.7 			"/>
		</g>
		<g class="st5">
			<path class="st13" d="M501.8,128.4c0.9,1.1,1.7,2.1,2.4,2.9C503.4,130.3,502.6,129.4,501.8,128.4z"/>
			<path class="st13" d="M500.7,127.2c0.3,0.4,0.6,0.7,0.9,1C501.4,127.9,501.1,127.6,500.7,127.2z"/>
			<path class="st13" d="M627.3,159.4c-17.5-11.9-33.7-22.9-51.8-27.7c-2.1,0.5-4.3,1.1-6.3,1.4c-2.5,0.4,1.1,0.9,2,0.6
				c11-2.6,6.7,3.9,12.6,3.5c4-0.3-4.2,6.6-4.2,6.6c0,0,13.9-2.7,18.8,1.7c-0.6,3.9-8.4,3.1-8.4,3.1c0,0-0.4,4.2-1.4,5
				c-1.5,1.4-2,7.3-5.1,7.6c-0.8,0.1,1.5,1.8,1.4,2.3c-0.7,3.2,4.1,0.1,0.5,7.8c-0.7,1.5-1.2-5.7-4.7-3.4c-0.6,0.4,1.7,6.7,1.1,7.5
				c-0.3,0.4-3.6,3.7-3.6,3.8c0,0-4.3,0.9-4.7,1c0,0,3.3,2.7,3.7,3.6c2.3,5.9-8.3-4.6-4.4,1c4.2,6-2.5,4.2-2.6,4.2
				c0,0-1.9,2.2-1.9,2.4c0,0.1,6.1,2.1,6.7,3.8c-17.2-2.9-57.5,14.4-61.1-11.2c-0.5-3.4,5-8,4.8-7.8c0,0-6.9-2.7-1.3-3.4
				c2.5-0.3,6,2.9,3.5,0.3c-1.3-1.4,1.2-2,0-2.5c-8.8-3.9-4-22.4-16.7-29.1c-3.6-1.9-0.4-3.4-2.5-6.7c-1.4-2.2,2-1.6,4.5-1
				c-0.6-0.8-1.2-1.7-1.9-2.5c-0.7-0.9-1.5-1.8-2.4-2.9c0,0-0.1-0.1-0.1-0.1c-0.3-0.3-0.6-0.7-0.9-1c-1.5-1.6-3.1-3.3-4.8-4.9
				c-2.9,1.1-5.9,2.8-5.4,4.9c0.9,3.2-4.6,1.1-6.3-0.9c-12.6-14.5-5.5-8.6-4.9-9.8c0.2-0.4,3,2.3,3.4,2.5c0.6,0.3-1.3-2.6-1.4-3.1
				c-0.1-0.6,5,0,7.3,0.4c-1.1-0.8-2.5-1.7-3.9-2.6c-2.1,1-5.2,1.4-8.5,0.2c-3-1.7,1.9-3.2,1.9-3.2c0,0,0.1-0.3,0.2-0.7
				c-5.4-2.8-12.2-5.7-20.7-8.1c-10.2-3-20.3-4.6-30-5.4c6.5,2.8,11.7,6.4-1,2.9c2.1-2.7-1.2,0.8-7.2-3.4c-3.9-0.1-7.7-0.1-11.3,0
				c4.4,0.6,8.9,3.5,11.7,6.9c-0.3,0.7-0.7,1.2-1.3,1.3c3.5,1,0.9,2.4,0.9,2.5c0,0,3.2,3,3.1,3c0,0,3.3,0.1,4.7,0.9
				c2.5,1.3-0.7,6.9,0.8,5.8c0.9-0.6,6.7-1.8,6.7-1.8c0,0,5.1,0.4,4.7,1c-0.7,1-0.9,9.6-2.6,14.3c0.1,0.1,0.1,0.3,0,0.3
				c0,0-0.1,0-0.1,0c-1.1,2.9-2.8,4.1-5.6,0.6c-0.4-0.5-2.9-0.5-2.1-0.1c3.9,2.6-3.8,2.9-5.8-1c-5.3-10.2-12-4.3-16.7-15
				c-5.8-13.3,16.6,4.7,6.6-3.2c-2.1-1.6-8.3-5.5-6.8-5.9c3.2-0.7,0.1-2.5-0.8-3.4c-3.3,0.2-6.4,0.2-7.4-2.3
				c1.6-2.1,3.5-3.2,5.5-3.8c-12.8,0.7-23.6,2.5-30.9,4l0,0l-16.4,20.5c3.2-1.9,7.8,0.1,11.3-4.5c1.3-1.6,3.9-3.1,4-3.1
				c0,0,11.9-9,11.1-7.7c-0.6,1-0.2,0.2,0.4,0c6-2.6,2.9-1.9,4.6,0.6c0.3,0.5,3.6-2.4,4.3-1.9c0.4,0.3-2.3,3.8,1.2,2
				c3-1.5,4.1,2.2,5.7,4c1.9,2.2,9.8,8,5,8.8c-4,0.7,8.8,8.1,7.9,12.5c-0.2,1.2,6.3-0.8,8.3-1.5c-0.3-0.3-0.5-0.6-0.8-0.9
				c-1.7-0.9-4.3-2.4-3.7-2.8c0.7-0.4,2,0.8,3.7,2.8c0.8,0.4,1.3,0.7,1.3,0.7c0,0-0.2,0.1-0.5,0.3c4.9,5.8,12.1,16,15.9,12.6
				c0.4-0.3-3-4.7-1.8-4.8c6-1,8.8,1.6,8.7,3.7c0,0,0-0.1,0.1,0c0,0.1-0.1,0.1-0.1,0v0c0,0.4-6.7,1.5-6.7,1.5c0,0,0.1,7.5,0.4,7.3
				c0,0,7.7-2.1,6.8-3.6c-0.6-1.1,1.5-2.2,1.5-2.3c0,0,3.3-10.7,5.2-12.5c2.4-2.3,14.5-8.1,14-3c-0.2,2.4-11.6,1.8-12.4,4.8
				c-2.2,8.5-0.1,11-0.9,15.5c-0.2,1.5-0.1,1.6,1.6,1.2c1.7-0.4-0.1,11.1,1.3,10.1c0.2-0.1,1-2,1.7-1.6c0.7,0.4,9.6-9.9,11.5-0.9
				c0,0,0-0.1,0.1-0.1c0,0.1,0,0.1,0,0.1c0,0,0,0,0,0c0,0,0,0,0,0c1.3,6-1.4,5.9-3.3,8.5c-0.7,1-5.6,1.1-11.8,1.2
				c0.9,0.4,1.5,1.4,1.3,1.8c-0.2,0.4,6.4,10.5,4.9,10.2c-5.1-0.8-8.2,1.5-11.2-5.6c-0.6-1.5,3.7-3.9,4-6.4
				c-8.7,0.2-19.4,0.7-24.4,3.8c-15.9,10.2,12.1,28.8,12.5,31.7c0.4,2.5,1.3,7.8,5.3,3.6c4.4-4.5,31.6-19.6,30.7-12.4
				c-0.1,0.5-3.1,8.7,2.1,6.8c6.2-2.3,5.8-6.3,8.3,0c2.7,7,3.4,11.4,2.6,14.5c0.4-0.3,0.9-0.6,1.2-0.6c0.3,0.5-0.8,0.9-1.3,1.1
				c-2.2,6.6-12.2,6.4-25.3,11.5c-0.2,0.1-0.4,0.1-0.6,0.2c4.5-1.5,13.8-4,8.9,2.2c-1.5,1.9,0.2,2.9,2,3.3c-0.3-0.7-2.2-1.8-1.4-1.8
				c0.5,0,4.3,1.1,1.7,1.8c0.5,0.1,0.9,0.1,1.3,0.1c1-0.1,3.6-3.2,3.9-2.1c0.6,1.7-2,3-4.2,3.5c-2,0.5-10.3,3.4-9,1.7
				c2.9-4.1-9.4,4.3-9.5,4.6c0,0-15.8,13.9-29.8,16c-13.5,2.1-1.1,19-5.6,16.9c-6.4-3.1-30.4-15.4-43.7-6.6
				c-16.2,10.7,7.4,24.5,13.5,21.3c6-3.1,8.9,3.9,10,6.6c0.2,0.6,15.7-0.6,16.8,1.3c3.4,6.4,17.3,14.3,18.7,13.3
				c0.1-0.1,14.7-8.8,13.8-5.3c-0.5,1.6,3.9-0.8,4.3-0.7c3.5,1,11.9,4.2,13.3,5c0.2,0.1,0.5,0.3,0.7,0.5c0-0.8,0.7-0.8,0.8,0.2
				c0,0.1,0,0.3-0.1,0.4c5.2,4.3,17,17.8,19.4,20.9c2.4,3.1,22.9,11.6,32.6,19.4c5,8.6-6.9,8.8-9.1,11.4c-2.1,2.4-2.5,12.1-4.7,15.7
				c0.8,0.3,1.5,0.7,2.2,1L649.2,176h0C644.3,171.8,636.8,165.8,627.3,159.4z M589.4,140.6c-0.8-0.3-0.5-1.5,0.1-1
				C589.8,139.9,589.5,140.3,589.4,140.6c0,0,0,0.1,0.1,0.2C589.4,140.7,589.3,140.6,589.4,140.6z M589.7,141c0,0.1,0.1,0.2,0.1,0.2
				C589.4,141.5,589.2,140.3,589.7,141z M591.2,140c0-0.3,0.3-0.3,0.4,0.1C591.5,140.5,591.2,140.3,591.2,140z M581.2,169.7
				C581.2,169.7,581.2,169.6,581.2,169.7C581.2,169.6,581.3,169.7,581.2,169.7z M581.3,169.6c0-0.3,0-0.5,0-0.8
				C581.7,169.2,581.7,169.3,581.3,169.6z M520.4,170.5c0.4,0,0.5,0.5,0.4,0.5c0.1,0,0.1,0,0,0.1c0,0,0,0,0-0.1
				C520.7,171.2,519.6,170.5,520.4,170.5z M518.4,171.8c0.3-0.2,0.6,0,0.5,0.3C518.9,172.6,518.1,172,518.4,171.8z M516.9,166.7
				C516.9,166.7,516.8,166.7,516.9,166.7C516.8,166.7,516.8,166.6,516.9,166.7z M516.7,166.8c0.2-0.2,0.2,0.3,0.1,0.3
				C516.8,167.1,516.6,166.9,516.7,166.8z M503.3,132.2c-0.2,0.1-0.5,0-0.5-0.3C502.8,131.8,503.1,132.1,503.3,132.2z M483.6,114.2
				C483.7,114.2,483.6,114.3,483.6,114.2C483.6,114.3,483.6,114.2,483.6,114.2z M480.8,115.2c-0.2-0.1-0.3-0.3-0.3-0.3
				C480.6,114.8,481,115,480.8,115.2z M421.2,98.6c-1.5-1.1,3.4,0.1,4.3,0.9C424.5,99.5,422.6,99.7,421.2,98.6z M361.6,119.5
				C361.5,119.5,361.6,119.5,361.6,119.5C361.6,119.5,361.6,119.5,361.6,119.5z M362.4,118.7c-0.4,0.5-1,0.9-0.5,0.3
				C362,118.9,362.6,118.4,362.4,118.7z M426.9,134.7c-0.2-0.6,0.7-0.1,0.6,0.2C427.4,135.3,427,135,426.9,134.7z M432.3,133.1
				c0,0,0-0.2,0-0.1C432.3,133,432.3,133.1,432.3,133.1c0,0,0,0.5-0.1,0.6C431.6,133.5,432.2,133.1,432.3,133.1z M431.5,137.3
				c-1-0.4,0.3-1.6,1.1-1.2C433.4,136.9,431.8,137.4,431.5,137.3z M456.5,170.6c-0.4-0.1-1.5-1.7-0.7-1.8
				C456.4,169.2,456.9,170.7,456.5,170.6z M446.8,203.2c-2.4-0.9,1.5-2.5,1.9-0.9C448.9,203,447.6,203.3,446.8,203.2z M450.1,180.1
				c0.5-0.8,4.6-0.6,4.4,1.2C453.7,182.2,449,181.7,450.1,180.1z M456.5,186.2c-0.9-0.4-0.2-2.2,0.9-2.5
				C459.7,183.9,457.4,186.6,456.5,186.2z M463.1,183.4c-0.8,0.2-1.7-1.6-1.1-1.7C463.1,181.5,464.3,183.1,463.1,183.4z M471.5,233
				C471.5,233,471.4,233,471.5,233C471.4,233,471.4,233,471.5,233z M473.7,233.5C473.7,233.5,473.8,233.5,473.7,233.5
				C473.8,233.5,473.7,233.5,473.7,233.5z M477.9,227c-0.9,0.4-5.4-1-3.6-1.9C475.8,225.2,479,226.4,477.9,227z M393.2,265.2
				C393.2,265.2,393.2,265.2,393.2,265.2C393.1,265.3,393.2,265.2,393.2,265.2z M393.7,265.7c-0.3-0.1-0.6-0.4-0.5-0.5
				C393.4,265.1,395,265.9,393.7,265.7z M444,283.9c0.4-0.3,1.5,0.4,0.9,0.6C444.3,284.7,443.4,284.3,444,283.9z M439.2,279
				c0.2,0.1,0.1,0.4,0,0.3C439.2,279.3,439.1,279.1,439.2,279z M438.6,276.9c0.1,0.3-0.5,0.3-0.6,0.1
				C437.9,276.7,438.1,276.6,438.6,276.9z M432.2,270.9c0.4-0.3,1.5,1,0.9,1.3C432.3,272.3,432,271.1,432.2,270.9z M431.8,277.6
				c-0.2,0.1-0.7-0.2-0.6-0.4C431.3,276.7,432.4,277.3,431.8,277.6z M430.5,276c-1-0.1-1.1-1.1-0.3-1.1
				C430.9,274.9,431.6,276.1,430.5,276z M428.2,270.8c0.3-0.3,0.9-0.3,1.4-0.2C430.8,271,427.6,271.9,428.2,270.8z M436.4,290.7
				c-1.6,1.4-8.2-1.2-3.4-1.5C434.3,289.1,437.3,289.9,436.4,290.7z M410.8,282.2c0,0,24.4-1.5,30.9,4
				C430.7,287.5,411.2,282.7,410.8,282.2z M441.8,280.4c0,0-0.1,0-0.1-0.1C441.7,280.2,441.8,280.3,441.8,280.4c0,0,0.1,0.1,0.1,0.1
				C441.8,280.5,441.8,280.4,441.8,280.4z M442,280.5c0-0.1,1.3,0.2,0.7,0.5C442.3,281.2,441.9,280.5,442,280.5z M443.7,290.5
				c-4.2-1.6,3-1.1,3-1.4C446.4,283.4,472.2,294.8,443.7,290.5z M460,292.8c0.4-0.2,1.5,0.1,2,0.3C464.2,295,458.6,293.4,460,292.8z
				 M465.7,294.3c0,0,0-0.1,0-0.1C465.8,294.3,465.8,294.3,465.7,294.3z M467.3,298.1c0-0.4,0.3-0.7,0.5-0.2
				C467.7,298.4,467.2,298.8,467.3,298.1z M467.4,306.6c0-0.2,0.1-0.2,0.1-0.1C467.6,306.6,467.5,306.7,467.4,306.6z M467.6,300
				c-0.1,0.1-0.1-0.3,0-0.3C467.6,299.7,467.6,300,467.6,300z M467.8,301c0.1,0.3,0.1,0.8,0,0.8C467.6,301.8,467.5,300.6,467.8,301z
				 M467.8,303c0-0.2,0.2-0.2,0.2,0C467.9,303.3,467.7,303.4,467.8,303z M469.1,304c0-0.2,0.2-0.1,0.2,0.1
				C469.3,304.3,469.1,304.2,469.1,304z M491,165c0.8,0.2-0.2,0.9-0.2,0.9C490.8,165.9,490.6,165,491,165z M487.3,130.4
				c0,0,0-0.2,0.2-0.2C487.8,130.4,487.4,130.5,487.3,130.4C487.3,130.4,487.3,130.5,487.3,130.4
				C487.3,130.4,487.3,130.4,487.3,130.4z M487.3,130.5c0.1,0.2-0.1,0.8-0.6,0.6C486.2,130.6,487.2,130.2,487.3,130.5z M475.4,116.6
				c0,0.5-1.5,0.5-2.1-0.1C472.9,115.4,475.3,115.4,475.4,116.6z M471.8,112.3c0,0,0.1,0.1,0,0.1C471.5,112.6,471.3,112,471.8,112.3
				z M468.3,109.7c4-0.3,3.7,4.6-1.8,2.2C466.3,111,466.9,109.8,468.3,109.7z M470.4,114.6c-1.3-0.4-4.3-1.3-4.1-1.7
				C466.6,112.1,474.1,114.9,470.4,114.6z M459.3,107.7c-2.5-1.7,3.7-0.5,4.5,0.1c1.6,1.2,1.1,3.4-0.8,3.6c-2.9,0.3-0.8-1.9-5.6-2.6
				C453.6,107.1,461.2,109,459.3,107.7z M457.4,110.2c-0.3-1,4.1,0.8,1.5,0.6C458.2,110.8,457.7,110.5,457.4,110.2z M457.9,113.1
				c-0.1,0-0.2,0.1-0.2,0C457.7,113.1,457.8,113.1,457.9,113.1z M458.9,109.2c0,0,0.1,0.1-0.2,0.1
				C458.4,109.2,458.8,109.1,458.9,109.2z M459.8,117.8C459.8,117.8,459.7,117.8,459.8,117.8C459.7,117.8,459.9,117.8,459.8,117.8z
				 M456.5,112.5c-0.2,0.2-1.4,0.2-1.8-0.2C454.4,112.1,456,112.2,456.5,112.5z M455.4,112.6C455.4,112.6,455.3,112.6,455.4,112.6
				C455.3,112.6,455.4,112.6,455.4,112.6z M452.5,108.8c0.7,0.2,0.6,1.7-0.9,1.2C450.3,109.3,451.7,108.6,452.5,108.8z M448.4,103.9
				c3.8,1.6-1.1,2-5-1.2C442.3,101.3,447.4,103.5,448.4,103.9z M439.6,102.5c0,0,7.1,2.9,6.9,3.1c-0.2,0.4-8.4-1.1-7.2-3.1
				C435.3,100.2,439.6,102.4,439.6,102.5z M444.7,112.8c-1.3-0.7-0.2-1,0.7-0.7C446.5,112.5,445.9,113.4,444.7,112.8z M435.4,103
				c0,0.2-1.5-0.5-1.4-0.8C434.3,102.1,435.4,102.8,435.4,103z M432.9,111.7c-0.2-0.2,0.2,0,0.2,0.1
				C433.1,111.8,432.9,111.7,432.9,111.7z M430,105.2c0,0-4-3.5-4-3.6c0,0,5.3-0.1,6.6,1.3c2.1,2.3,0,2.9,4.8,4.8
				c2.8-1.9,3.7,0.3,5.5,1.9c1.9,1.7,1,2.8-1.9,1.7C436.7,109.5,430,105.2,430,105.2z M450.9,126.1c-0.3-0.3-0.2-0.6,0.2-0.6
				C451.6,125.9,451.2,126.5,450.9,126.1z M450.2,129.2c-4.5,5.1-9.1-0.2-10.6-7.1c-0.8-3.8,4.4,0.7,4.6,0.7c0,0,7.5-2.8,8.2,0.7
				C447.2,124.7,452.1,127.1,450.2,129.2z M451.4,121.3c-1.3-0.1-3.6-1.8-1.3-1.4C451.5,120.1,453.8,121.6,451.4,121.3z
				 M453.9,119.3c0,0.1,0,0.1,0.1,0.2C453.7,119.4,453.7,119.4,453.9,119.3z M453.9,117.5c-3.3-0.4-0.6-2.5-0.6-2.5
				c0,0-5.6-3.7-3.8-4.5c2.7,0.6,1.7,2.9,2.1,2.8c0.2,0,3.1,0.8,3.2,0.7c0,0,4.6,2.4,3.8,3.4c0.7,0.2,1.2,0.4,0.4,0.4
				c-0.3,0-0.6-0.1-0.9-0.1C457.6,117.8,456.3,117.8,453.9,117.5z M457.9,121.3c-0.3,0,0-0.3,0.1-0.1
				C458,121.2,457.9,121.3,457.9,121.3z M460.5,122.2c-0.9-0.4-4-2.7-2.7-3.4C461.5,115.6,463.8,123.4,460.5,122.2z M462.4,117.8
				c-0.5-0.2-0.1-0.6,0.3-0.5C463.3,117.6,462.8,118,462.4,117.8z M470.1,120c-0.1,0.1,10.5,4.9,13.9,10.4c3.3,12.2-15-3-17.7-5.2
				c-5.2-4.2,3.8-5.2,0.3-7.8C453.3,107.7,471,118.9,470.1,120z M458.9,149.4c0.2-0.3,1.3,0.3,1.4,0.5
				C460.4,150.1,458.6,149.8,458.9,149.4z M460.3,149.8C460.3,149.8,460.3,149.8,460.3,149.8C460.4,149.9,460.3,149.8,460.3,149.8z
				 M464.5,153.6C464.5,153.6,464.5,153.6,464.5,153.6C464.5,153.6,464.6,153.7,464.5,153.6z M465.2,183.1c-0.4-0.1-1-1.1-0.3-1.1
				C465.7,181.9,466.2,183.4,465.2,183.1z M475.7,189.1c-0.3-0.2-0.3-0.5,0.1-0.5C476.6,188.5,476.2,189.4,475.7,189.1z
				 M476.9,196.5c-0.7-0.1-0.3-0.6,0.2-0.8C478.2,195.5,477.5,196.6,476.9,196.5z M484.9,194.4c-0.9,0.2-0.7-1.1,0.3-1.1
				C485.5,193.6,485.4,194.3,484.9,194.4z M488.3,329.7C488.3,329.7,488.2,329.6,488.3,329.7C488.3,329.6,488.3,329.6,488.3,329.7
				c0.3,0,0.6,0.1,0.8,0.5C488.9,330.2,488.6,330.1,488.3,329.7z M489.2,330.2C489.2,330.2,489.3,330.2,489.2,330.2
				C489.2,330.3,489.2,330.2,489.2,330.2z M493.6,225.4c-1.4,0.9-0.3,1-0.3,1.1c0,0-1.5,1.1-0.9,1.5c0.7,0.5-2.6,0.7-2.6,0.7
				c0,0-2.7,2-2.2,0.6c0.2-0.5-6.3,0.6-6.1-0.3c0.4-1.8,8-5,8.1-5c0,0,1.4-0.1,1,0.6C489.7,225.8,495.1,223.2,493.6,225.4z
				 M498.9,182.2c-2.1,5.3-7.2-5-12.6-1.2c-1.4,1,4.7,6.1,2.5,8.4c-3.9,4-7.4-2.3-7.6-2.2c0,0-6.1,0.3-7.7-4.6
				c-0.7-2.1-10.5-4.5-7.9-5.6c8.3-3.3,5.6,2,13.5-3.2c4-2.6-3.3-9.4-2.7-10.7c2.1-4.9,1.4,2.4-11.1-9.5
				c-11.7-6.8-7.2-24.1,5.7-20.6c-0.7,2.2-3.2,3.9-4.1,5c-6.5,8.3,8.5-9,11.2,1.3c0.1,0.2,0.1,0.5,0,0.8c1.1-3.9,7.2,7.2,5.5,7.3
				c-1.5,0-6.7-2.1-5.6-6.5c0-0.1,0-0.2,0-0.3c-0.6,2.1-3.1,4.8-0.3,5.2c8,1.2,5.6,7.8,8,9.5c1.1,0.8,7.6,13.7,5,14.7
				C489.1,170.7,499.4,181,498.9,182.2z M470,164.5c0,0.1,0,0.1,0.1,0.2C469.9,164.7,470,164.6,470,164.5z M475.7,167.1
				c2.3,2.5-4.4,5.4-4.4,1.5C471.9,167.3,474.1,165.4,475.7,167.1z M474.4,162.3c0-0.4,0.7-0.4,0.9,0
				C475.5,163.2,474.4,163.3,474.4,162.3z M470.3,161.3c0.3-0.5,1.3-0.2,1.8-0.5C474.1,161.4,469.5,162.7,470.3,161.3z M476.7,169.3
				c0.4-1,2.6,0.9,1.4,1.3C477.5,170.6,476.4,169.9,476.7,169.3z M500.7,131.2c-0.1-0.5,0.7-0.2,0.9,0.2
				C501.8,132,500.8,131.8,500.7,131.2z M587.3,164.3c0.1,0-0.1,0.3-0.2,0.3C586.8,164.4,587.2,164.3,587.3,164.3z M584.3,175.3
				c1-0.9,2.3,1.6,2,2C585.8,178.1,583.3,176.2,584.3,175.3z M579.8,220.7c-2.5-1.3-8.4-5.5-8.2-6c0.1-0.3-0.4-2.6,1.3-4
				c0.3-0.2-3.8-2-3.4-2.8c1.5-2.7,5.6,3.4,6.6,3.7C579.6,212.4,598.4,223.4,579.8,220.7z M587.9,157c-0.3-0.2-0.1-0.7,0.3-0.7
				C588.9,156.2,588.6,157.6,587.9,157z M633.2,166.5c-0.1,0.4-0.7-0.3-0.7-0.3C632.5,166.2,633.1,166.3,633.2,166.5z M632.5,166.2
				c-0.1,0-0.2-0.2-0.2-0.2C632.3,165.9,632.5,166.1,632.5,166.2z M620.6,176c-0.1,0.1-2.7-3.1-1.9-3.6
				C619.5,173.3,620.8,175.9,620.6,176z M637.6,186.4c-1.9,0-2-6-3.2-7.1c-2.1-2-2.5,10.6-6.6,7.2c-0.6-0.5-1.5-4.3-1.5-4.3
				c0,0,0.1-0.4,0.2-0.9c-0.1-0.1-0.1-0.1-0.2-0.2c0.1,0,0.2,0,0.2,0.1c0.3-1.2,0.8-3,0.8-3.2c0,0-2.9,5.1-8-6.5
				c-5.1-5.2,2.8-3.3,3-2.1c0,0.3,1.6-1,2.6,0.6c2.2,3.4,0-2.5,1.8-1.3C630.5,171.3,644.3,186.5,637.6,186.4z M639.2,177.1
				c-1.2,0.4-7.5-3.4-5.5-4.3c0.2-0.1-4.5-0.4-4.3-2.9c-1.3-2.6,1.1-1.5,1.4-2.3c0.3-0.8,3,1.8,3.7,2.3c1,0.6,0.8-1.3,2.3-0.1
				C639.8,172,644.9,175.4,639.2,177.1z M643.6,172.8C643.5,172.8,643.6,172.7,643.6,172.8c0.1-0.1,0.1-0.1,0.1-0.1
				C643.8,172.7,643.8,172.7,643.6,172.8C643.6,172.8,643.6,172.9,643.6,172.8z M644.1,181.3c-0.2,0.2-0.3-0.1-0.4-0.4
				C643.9,180.7,644.2,181.1,644.1,181.3z"/>
			<path class="st13" d="M501.7,128.3C501.7,128.3,501.7,128.3,501.7,128.3C501.7,128.3,501.7,128.3,501.7,128.3z"/>
			<path class="st13" d="M506.1,133.8c-0.6-0.8-1.1-1.5-1.6-2c-0.1-0.1-0.3-0.3-0.4-0.5C504.9,132.2,505.5,133,506.1,133.8
				C506.1,133.8,506.1,133.8,506.1,133.8z"/>
			<path class="st13" d="M435,318.9c2-7.5-6-3.4-12.5-7c-26.8-14.8-64.4-24.8-82.9-47.4c-1.6-2-8-10.8-6.7-5.1
				c0.6,2.8,4.4,7.5,5.5,11.7c-27.4-11.9-2-58-0.6-68.4c0-0.1,0-0.3,0.1-0.4c-0.3-2.5-0.8-9.6,1-12.3c1.9-2.8,0.4-5.2,0.3-5.3
				c0,0-0.5-3.2-0.8-3.6c0,0-0.9-0.2-3.4,0.9c-0.6,0.3-0.2-3.1-0.2-3.1c0,0,2.3-1.8,2.9-2.2c-0.8,0.5-4.5,3-5.2,2.7
				c-0.3-0.2,3.3-4.3,2.3-4.6c-2-0.5-19.2-3.1-16.7-6.3l-100,125c22.3,4.8,30.9,7.6,43.1,7.8c20.7,0.4,34.9-0.7,69,4.4
				c12.4,1.8,30.9,7.3,35.1,20.7c1.7,5.2,0.7,10.3-0.6,14c3.5-4.7,9.7-11.2,12.1-13.7c10.2-10.8,24.3-7.2,33.9-5.1
				c8.7,2,15.7,5.1,23.6,9.7C433.9,326.5,434.1,322,435,318.9z M338.8,190c-0.1,0-0.2,0-0.3-0.1C338.9,189.7,338.8,189.9,338.8,190z
				 M333.6,182.2c-0.1,0.2-0.4,0.4-0.6,0.3C332.8,182.3,333.6,181.8,333.6,182.2z M332.6,177.9c0,0,0,0.1-0.1,0.1
				C332,178.3,332.7,177.6,332.6,177.9z M332.6,184.1c3.3-0.3,0.3,5.3,0.2,5.5C332.8,189.6,330.1,185,332.6,184.1z M315.4,172.3
				c-0.6-0.1,1-0.8,0.7-1.1C318.3,170.4,316.7,172.5,315.4,172.3z M318.4,171.3c-0.4,0.1-0.6-0.4-0.2-0.5
				C318.4,170.8,318.8,171.2,318.4,171.3z"/>
			<path class="st13" d="M400.2,128.1c0-0.2-0.3-0.4-0.5-0.6C399.1,127.4,400.1,128.7,400.2,128.1z"/>
			<path class="st13" d="M402.3,132.1c-0.2-0.1-0.1,0-0.1,0.1C402.3,132.2,402.3,132.1,402.3,132.1z"/>
			<path class="st13" d="M385.1,123.3c-1,0.4-9.1,7.9-3.4,4.1c3.3-3.9,0.9,0.7,0.9,0.7c0,0,4-2.6,8-3.8c4.2-1.3-2.2-2.4-2-3.4
				c0.4-2-0.4-1.6-4.1-0.2C371.8,125.5,387.5,122.4,385.1,123.3z"/>
			<path class="st13" d="M401.5,189.1c-0.1-0.1-0.1-0.1-0.2-0.2C401.2,189.1,401.4,189.1,401.5,189.1z"/>
			<path class="st13" d="M398.8,166.5c0.3-0.4-1.3-1-1.4-0.4C396.6,167.9,398.3,167.1,398.8,166.5z"/>
			<path class="st13" d="M399.3,137.1c0.3-0.1,0.1-0.5-0.2-0.5C398.9,136.7,399,137.2,399.3,137.1z"/>
			<path class="st13" d="M387.1,128c-0.2,0.5,0.2-0.3,0.5-0.5C387.8,127,387.2,127.9,387.1,128z"/>
			<path class="st13" d="M383.2,135.7c-0.1-0.5-0.8-1.8-1.2-0.7C382,135.3,382.4,136.4,383.2,135.7z"/>
			<path class="st13" d="M399.5,169.5c-2.7-1.2-1.7,3-3.3,3.9C398.1,172.4,400.5,169.9,399.5,169.5z"/>
			<path class="st13" d="M380.4,118.2C380.6,118,380.6,117.9,380.4,118.2C380.2,118.4,380.3,118.4,380.4,118.2z"/>
			<path class="st13" d="M383,143.2c-1.5-0.1-4.5,1.7-5,1.9c-0.6,0.2,3.7,1.9,5.4,0.6c3.1-0.6,11-1.5,11-1.8c0,0-8.2-2.2-9.9-3.9
				C384.2,139.6,384.3,143.3,383,143.2z"/>
			<path class="st13" d="M396.1,173.5c-0.4,0.2-0.9,0.2-1.6-0.1C394.6,173.9,395.3,173.8,396.1,173.5z"/>
			<path class="st13" d="M401.1,140.8c-0.2-0.1-0.3,0-0.2,0.2C401.1,141.3,401.6,141.1,401.1,140.8z"/>
			<path class="st13" d="M410.1,165.6c-0.2,0.1-0.4,0.1-0.5,0.2C409.6,165.9,409.8,165.8,410.1,165.6z"/>
			<path class="st13" d="M410.1,165.6c0.1,0,0.2-0.1,0.3-0.1C411,165.2,410.5,165.4,410.1,165.6z"/>
			<path class="st13" d="M411.1,210.3c-0.1,0-0.2,0-0.3,0C410.9,210.4,411.1,210.5,411.1,210.3z"/>
			<path class="st13" d="M412.2,222.7c0,0,6.8,3.7,8.5,3c2.6-1.1-9.1-7.6-15.5-4.5C396.2,223.3,411.7,222.3,412.2,222.7z"/>
			<path class="st13" d="M409.5,193.5c0.1,0,0.1-0.3-0.1-0.3C409.2,193.3,409.4,193.5,409.5,193.5z"/>
			<path class="st13" d="M410.3,157c-0.1,0-0.1,0-0.2,0C410.2,157.1,410.3,157.2,410.3,157z"/>
			<path class="st13" d="M412.9,156.1c0.4-0.5,1.9-2-0.5-2.4C410.1,152.9,412.3,156.9,412.9,156.1z"/>
			<path class="st13" d="M403.1,143.1c0.3-0.1,0-0.6-0.3-0.5C402.5,142.7,402.8,143.2,403.1,143.1z"/>
			<path class="st13" d="M403.7,177.9c0-0.2-0.1-0.5-0.4-0.5C402.4,177.3,403.6,178.6,403.7,177.9z"/>
			<path class="st13" d="M403.6,210.9c-0.1,0.2,1.6,1.6,2,1.3C406.3,211.6,403.8,211.5,403.6,210.9z"/>
			<path class="st13" d="M406.2,196.6c0.5,0.3,0.2-0.7-0.1-0.5C405.9,196.2,405.9,196.4,406.2,196.6z"/>
			<path class="st13" d="M406.1,177.5c-0.1,0.1-0.1,0.1-0.1,0.2C406.2,177.8,406.1,177.7,406.1,177.5z"/>
			<path class="st13" d="M466.9,315.7c0.1,0.1,0.1,0,0-0.1C466.9,315.7,466.9,315.7,466.9,315.7z"/>
			<path class="st13" d="M471,395.6c-0.3,0.1,0,0.2,0.2,0.3C471.4,395.8,471.2,395.6,471,395.6z"/>
			<path class="st13" d="M490.2,368c0.1,0,0.1,0,0.1,0.1C490.3,367.9,490.3,368,490.2,368z"/>
			<path class="st13" d="M490.4,334.4c0-0.3-0.5-0.1-0.4,0.1C490.1,334.5,490.4,334.6,490.4,334.4z"/>
			<path class="st13" d="M486.9,330.5c0,0,0.2,1.7,0.7,1C488,330.8,487,330.6,486.9,330.5z"/>
			<path class="st13" d="M477.2,319.8c0.2,0.1,0.1-0.3,0.1-0.3C477.3,319.5,477.1,319.6,477.2,319.8z"/>
			<path class="st13" d="M367.9,150.2c0.1-0.1,0.1-0.1,0.1-0.2C368,150.1,367.7,150.5,367.9,150.2z"/>
			<path class="st13" d="M336.7,174.2c-0.2,0.1,0.2,0,0.2,0.1C337.2,174.3,336.8,174.1,336.7,174.2z"/>
			<path class="st13" d="M337.6,172.5c0.1-0.1,0-0.1-0.1-0.1C337.6,172.4,337.4,172.7,337.6,172.5z"/>
			<path class="st13" d="M336.6,179.2c0.2-0.5-0.2-1.2-0.2-1.2C336.3,178,335.3,179.7,336.6,179.2z"/>
			<path class="st13" d="M372.3,114.4c0,0,0-0.1,0-0.1C372.1,114.5,372.1,114.7,372.3,114.4z"/>
			<path class="st13" d="M455.5,357.5c-0.3,0.2,1,1.8,1.7,2.2C457.5,359.8,455.7,357.4,455.5,357.5z"/>
			<path class="st13" d="M337.3,177.8c0,0,0.1,0,0.1,0C338.1,177.5,337.4,177.5,337.3,177.8z"/>
			<path class="st13" d="M334.8,176.9c0.1,0,0.1,0,0.1-0.1C335,176.7,334.9,176.8,334.8,176.9z"/>
			<path class="st13" d="M411,304.8c-0.1,0.4,1.2,1.1,1.7,0.5C412.8,304.8,411.1,304.4,411,304.8z"/>
			<path class="st13" d="M450,308.7c0.1-0.5,0.1-1.3-0.2-1.5C448.9,306.6,448.8,309.8,450,308.7z"/>
			<path class="st13" d="M368.1,117.5c-0.2,0.2-0.3,1-0.1,1.1C368.5,118.2,368.2,117.5,368.1,117.5z"/>
			<path class="st13" d="M369,168c-0.2,0-0.4,0.2-0.1,0.2C369.1,168.2,369.1,168,369,168z"/>
			<path class="st13" d="M374,112.5c0,0,3-2.7,4.7-3.9C377.4,109,374,112.5,374,112.5z"/>
			<path class="st13" d="M483.9,120.2c-0.1-0.1-0.3-0.3-0.1-0.1C483.8,120.2,483.8,120.2,483.9,120.2z"/>
			<path class="st13" d="M337.8,202c0,0.1,0,0.3-0.1,0.4c0,0.1,0,0.2,0,0.4C337.8,202.5,337.8,202.3,337.8,202z"/>
			<path class="st13" d="M337.8,202.8c0,0.2,0,0.4,0.1,0.6C337.9,203.3,337.9,203.1,337.8,202.8z"/>
			<path class="st13" d="M337.8,202C338.5,196.7,337.9,199.9,337.8,202L337.8,202z"/>
			<path class="st13" d="M475.6,218.8c0.2,0,0.1-0.1,0.1-0.1C475.7,218.7,475.7,218.7,475.6,218.8z"/>
			<path class="st13" d="M337.6,176.8c0.1-0.1,0.1-0.1,0.1-0.1C337.8,176.7,337.7,176.7,337.6,176.8z"/>
			<path class="st13" d="M466.9,212c0.2,0.1,0.2,0.1-0.1-0.1C466.7,211.9,466.8,211.9,466.9,212z"/>
			<path class="st13" d="M479.4,214.9c0.5-0.5-3.4-0.5-4.5-0.6C474.9,215.4,479,215.3,479.4,214.9z"/>
			<path class="st13" d="M465.2,213.6c0.6,0,0.3-2.3-0.4-1.1C464.4,212.9,464.8,213.6,465.2,213.6z"/>
			<path class="st13" d="M459.6,209.6C459.9,209.7,459.9,209.7,459.6,209.6C459.5,209.5,459.4,209.6,459.6,209.6z"/>
			<path class="st13" d="M474.1,218.3c-0.2,0.1,0.1,0,0.1,0.1C474.2,218.4,474.2,218.4,474.1,218.3z"/>
			<path class="st13" d="M454.4,220.1c-0.5-0.1-1.2,0.5-1,0.5C453.6,220.7,455.2,220.5,454.4,220.1z"/>
			<path class="st13" d="M487.5,216.3c0,0,0.1,0,0.3-0.1c0-0.1,0.1-0.3,0.1-0.4C487.5,216.1,487.3,216.3,487.5,216.3z"/>
			<path class="st13" d="M413.8,216.6c0.9,0,1.1-1.7-0.1-1.6C413.1,215.2,412.9,216.6,413.8,216.6z"/>
			<path class="st13" d="M484.8,117.5C484.7,117.5,484.7,117.5,484.8,117.5C484.9,117.5,484.8,117.4,484.8,117.5z"/>
			<path class="st13" d="M499.6,118.5c-0.1,0-0.1,0-0.2,0C499.5,118.6,499.6,118.7,499.6,118.5z"/>
			<path class="st13" d="M490.1,338.9c-0.2,0,0.1,1,0.3,1C490.5,339.7,490.2,339,490.1,338.9z"/>
			<path class="st13" d="M475.5,145.8C475.3,146,475.6,145.9,475.5,145.8C475.6,145.9,475.8,145.6,475.5,145.8z"/>
			<path class="st13" d="M414,102.9c-1.4-0.9-3.5-0.9-5.6-0.8c1.5,0.3,3.7,0.7,6.7,1.4C414.8,103.4,414.4,103.1,414,102.9z"/>
			<path class="st13" d="M477.6,182.6c1.1,0.1,1.5-1,0.8-1.4C478.1,181,476.6,182.5,477.6,182.6z"/>
			<path class="st13" d="M465.8,146c-0.1-0.1-0.1-0.1-0.2-0.2C465.5,146.1,465.7,146,465.8,146z"/>
			<path class="st13" d="M519.8,116.4c0.1,0,0-0.2-0.1-0.2C519.6,116.3,519.7,116.4,519.8,116.4z"/>
			<path class="st13" d="M461.8,228C459.4,228.8,458.4,229.3,461.8,228L461.8,228z"/>
			<path class="st13" d="M487.6,123.1c0.1-0.3,0,0.1-0.2,0.1C486.9,123.2,487.4,123.3,487.6,123.1z"/>
			<path class="st13" d="M436.8,222.1c-0.3,0.2,0.8,0.5,0.5,0.1C437.2,222.2,436.9,222.1,436.8,222.1z"/>
			<path class="st13" d="M449.6,225.3c0.1,0-0.1-0.2-0.2-0.2C449.1,225.1,449.4,225.4,449.6,225.3z"/>
			<path class="st13" d="M396.4,191.7c-2.3,2.1-0.8,10.3-0.4,10.1C395.9,201.9,399.9,192.9,396.4,191.7z"/>
			<path class="st13" d="M442.2,234.8c1.8-1.7-5.9-0.9-7.9-0.7C434.1,235.1,441.3,235.7,442.2,234.8z"/>
			<path class="st13" d="M396.6,212.9c-0.3,0.2-0.7,0.7-1,1.1C396.3,216.2,397,212.6,396.6,212.9z"/>
			<path class="st13" d="M393.6,207.1c0,0,1.9-1.4,2-2.7C394.9,203.2,393.6,207.1,393.6,207.1z"/>
			<path class="st13" d="M425.3,204.6c0.2-0.6-0.5,0.3-0.6,0.5C424.3,205.4,425.3,204.8,425.3,204.6z"/>
			<path class="st13" d="M392.4,148c0,0.1-0.1,0.1-0.1,0.1C392.5,148.3,392.4,148.2,392.4,148z"/>
			<path class="st13" d="M419.7,162.1c0.2-0.3-0.4-1.5-1.1-1.4C418.1,160.9,419.4,162.6,419.7,162.1z"/>
			<path class="st13" d="M416.6,157.9c-0.2,0-0.2,0.3-0.1,0.3C416.6,158.3,416.7,158.1,416.6,157.9z"/>
			<path class="st13" d="M421.8,154.3c0,0-0.1-0.2-0.2-0.2C421.1,153.8,421.8,154.3,421.8,154.3z"/>
			<path class="st13" d="M411.1,229.4c0,1.3-4.7,7.4-0.8,7.1c4.1-0.3,3.5-5.9,8.3-7.9c2.8-1.1,3.6,3.9,3.6,3.9c0,0,3.1,0.9,3.5,1.4
				c0.5,0.6,3.1-3.4,3.8-3.6c4.8-0.7-0.2-4.2-6.1-3.4C420,228.8,411,226.8,411.1,229.4z"/>
			<path class="st13" d="M422.3,237c-0.7,0.7,9.7-0.3,11.5-1.1C430.3,235.4,423.4,235.9,422.3,237z"/>
			<path class="st13" d="M377.6,149.2c0.1,0,0.1,0,0.2-0.1C377.7,149.1,377.6,149,377.6,149.2z"/>
			<path class="st13" d="M393.4,187c-1.3-0.4-3.2,4.8-3.2,4.8c0,0-1.8,7,1.4,3.7C392.3,191.8,394.9,187.5,393.4,187z"/>
			<path class="st13" d="M376.4,144.4C376.5,144.4,376.5,144.4,376.4,144.4C376.6,144.2,376.2,144.3,376.4,144.4z"/>
			<path class="st13" d="M430,162.1c0,0-1.8-2.2-2.7-2.8C426.8,160.5,430,162.1,430,162.1z"/>
			<path class="st13" d="M445.9,166.9c0.1-0.1-0.9-2.6-1.8-3.3C443.2,163.8,445.7,167.1,445.9,166.9z"/>
			<path class="st13" d="M380.3,156.8c0.1-0.1,0-0.4-0.1-0.4C380,156.3,380,157.1,380.3,156.8z"/>
			<path class="st13" d="M382,168.4c0,0-0.1-0.1-0.1-0.1c0,0.1,0.1,0.2,0.1,0.3C382.2,168.6,382,168.5,382,168.4z"/>
			<path class="st13" d="M390.1,202.9c-0.2,0.4-1,3.9,0.2,3C390.3,205,390.7,202,390.1,202.9z"/>
			<path class="st13" d="M390.1,165.1c-0.2-0.4-1.7-0.2-1.1,0.5C389.5,165.9,390.4,165.6,390.1,165.1z"/>
			<path class="st13" d="M389.4,157.5c0.1-0.2-6.9-1.9-5.8-0.2C385.2,155.8,389.2,157.8,389.4,157.5z"/>
			<path class="st13" d="M387,176.7c0.3,0.3,1.1,0,0.9-0.6C387.5,175.5,386.6,176.1,387,176.7z"/>
			<path class="st13" d="M399.3,190.1c0.1,0,0.2-0.4,0-0.5C398.9,189.4,399,190.1,399.3,190.1z"/>
			<path class="st13" d="M566.9,185.6C566.8,185.5,566.7,185.5,566.9,185.6C567,185.9,566.9,185.7,566.9,185.6z"/>
			<path class="st13" d="M565.9,188.8c0,0.1,0,0.1,0.1,0.1C566,188.9,566.1,188.8,565.9,188.8z"/>
			<path class="st13" d="M588.3,150.7c-0.1-0.1-0.3-0.3-0.4-0.2C587.6,150.7,588.6,151.1,588.3,150.7z"/>
			<path class="st13" d="M586.5,150.7c-0.2-0.3-0.5-0.2-0.6,0C585.4,151.5,587,151.3,586.5,150.7z"/>
			<path class="st13" d="M543.2,193.9c-0.2-0.1-0.2,0,0,0.1C543.4,194,543.4,194,543.2,193.9z"/>
			<path class="st13" d="M625.9,173.4C625.9,173.4,626.2,173.6,625.9,173.4C625.8,173.2,625.8,173.3,625.9,173.4z"/>
			<path class="st13" d="M626.6,181.2c0,0,0,0.1,0,0.1c0,0,0,0,0,0C626.6,181.2,626.6,181.2,626.6,181.2z"/>
			<path class="st7" d="M489.2,330.2C489.2,330.2,489.2,330.3,489.2,330.2C489.3,330.2,489.2,330.2,489.2,330.2z"/>
			<path class="st7" d="M442.8,141.5C442.8,141.5,443,141.6,442.8,141.5C442.9,141.4,442.8,141.4,442.8,141.5
				C442.8,141.4,442.8,141.5,442.8,141.5L442.8,141.5z"/>
			<path class="st7" d="M446.7,174.2c3,7.1,6.2,4.9,11.2,5.6c1.5,0.2-5.1-9.8-4.9-10.2c0.2-0.5-0.4-1.5-1.3-1.8c-0.3,0-0.7,0-1.1,0
				C450.4,170.3,446.1,172.7,446.7,174.2z"/>
			<path class="st7" d="M464.5,153.6C464.5,153.6,464.5,153.6,464.5,153.6C464.6,153.7,464.5,153.6,464.5,153.6z"/>
			<path class="st7" d="M473.7,233.5C473.7,233.5,473.8,233.5,473.7,233.5C473.8,233.5,473.7,233.5,473.7,233.5z"/>
			<path class="st7" d="M415.5,126.3c-0.6,0.4,2,1.9,3.7,2.8C417.5,127.1,416.1,125.8,415.5,126.3z"/>
			<path class="st7" d="M489.1,215.2c-0.3,0.1-0.8,0.4-1.2,0.6c0,0.1-0.1,0.3-0.1,0.4C488.3,216.1,489.3,215.7,489.1,215.2z"/>
			<path class="st7" d="M419.2,129c0.3,0.3,0.5,0.6,0.8,0.9c0.3-0.1,0.5-0.2,0.5-0.3C420.6,129.7,420,129.4,419.2,129z"/>
			<path class="st7" d="M520.4,350.3c-9.7-7.7-30.2-16.2-32.6-19.4c-2.4-3.1-14.1-16.5-19.4-20.9c-0.2,0.4-0.6,0.5-0.7-0.2
				c0-0.1,0-0.2,0-0.3c-0.3-0.2-0.5-0.4-0.7-0.5c-1.3-0.8-9.7-4-13.3-5c-0.4-0.1-4.8,2.3-4.3,0.7c1-3.4-13.7,5.3-13.8,5.3
				c-1.4,1-15.3-6.9-18.7-13.3c-1-2-16.5-0.7-16.8-1.3c-1.1-2.7-4-9.7-10-6.6c-6.2,3.2-29.7-10.6-13.5-21.3
				c13.3-8.8,37.3,3.5,43.7,6.6c4.5,2.2-7.9-14.8,5.6-16.9c14-2.1,29.8-16,29.8-16c0.1-0.3,12.5-8.7,9.5-4.6c-1.3,1.8,7-1.2,9-1.7
				c2.2-0.5,4.8-1.8,4.2-3.5c-0.4-1.1-2.9,2.1-3.9,2.1c-0.4,0-0.9,0-1.3-0.1c-0.1,0-0.2,0-0.3,0.1c0,0,0,0,0,0c0,0-0.1,0,0,0
				c0,0,0-0.1,0-0.1c-1.9-0.3-3.5-1.4-2-3.3c4.9-6.2-4.4-3.7-8.9-2.2c-3.4,1.3-2.4,0.8,0,0c0.2-0.1,0.3-0.1,0.6-0.2
				c13.1-5.1,23.1-4.9,25.3-11.5c-0.1,0-0.2,0.1-0.3,0.1c-0.2,0,0.1-0.2,0.4-0.5c0.8-3.1,0.1-7.5-2.6-14.5c-2.4-6.3-2-2.2-8.3,0
				c-5.1,1.9-2.1-6.3-2.1-6.8c0.9-7.2-26.4,7.9-30.7,12.4c-4,4.1-4.9-1.2-5.3-3.6c-0.5-3-28.4-21.5-12.5-31.7
				c4.9-3.2,15.7-3.6,24.4-3.8c0,0,0-0.1,0-0.1c0.3-0.1,0.7-0.1,1,0.1c6.1-0.2,11.1-0.3,11.8-1.2c2-2.6,4.6-2.5,3.3-8.5c0,0,0,0,0,0
				c0,0,0,0,0,0c-1.9-9-10.7,1.3-11.5,0.9c-0.7-0.3-1.5,1.5-1.7,1.6c-1.4,0.9,0.4-10.5-1.3-10.1c-1.7,0.4-1.8,0.2-1.6-1.2
				c0.7-4.5-1.3-7,0.9-15.5c0.8-2.9,12.2-2.4,12.4-4.8c0.5-5.2-11.6,0.7-14,3c-1.9,1.8-5.2,12.5-5.2,12.5c0,0-2.1,1.2-1.5,2.3
				c0.9,1.5-6.8,3.6-6.8,3.6c-0.3,0.2-0.4-7.3-0.4-7.3c0,0,6.7-1.1,6.7-1.5c0,0,0,0,0,0c0-2.1-2.8-4.7-8.7-3.7
				c-1.2,0.2,2.2,4.5,1.8,4.8c-3.8,3.4-11-6.7-15.9-12.6c-1.9,0.8-8.5,2.8-8.3,1.5c0.9-4.4-11.9-11.8-7.9-12.5
				c4.8-0.9-3.1-6.6-5-8.8c-1.5-1.8-2.7-5.5-5.7-4c-3.5,1.8-0.8-1.7-1.2-2c-0.7-0.5-3.9,2.5-4.3,1.9c-1.6-2.6,1.5-3.2-4.6-0.6
				c-0.6,0.2-1,1-0.4,0c0.7-1.3-11.1,7.7-11.1,7.7c0-0.1-2.7,1.4-4,3.1c-3.5,4.6-8.1,2.6-11.3,4.5L318,168.6
				c-2.5,3.1,14.7,5.7,16.7,6.3c1,0.3-2.6,4.4-2.3,4.6c0.7,0.4,4.4-2.1,5.2-2.7c0.1-0.1,0.1-0.1,0.1-0.1c0,0-0.1,0-0.1,0.1
				c-0.6,0.4-2.9,2.2-2.9,2.2c0,0-0.4,3.4,0.2,3.1c2.5-1.1,3.4-0.9,3.4-0.9c0.2,0.3,0.8,3.6,0.8,3.6c0.1,0.1,1.6,2.5-0.3,5.3
				c-1.9,2.7-1.3,9.8-1,12.3c0-0.1,0-0.3,0.1-0.4c0.1-2.1,0.7-5.3,0,0c0,0.3,0,0.5,0,0.7c0,0.4,0.1,0.6,0.1,0.6
				c0-0.1-0.1-0.3-0.1-0.6c0-0.1,0-0.2,0-0.4c0,0.1,0,0.3-0.1,0.4c-1.4,10.4-26.9,56.6,0.6,68.4c-1.1-4.2-4.9-8.9-5.5-11.7
				c-1.3-5.7,5.1,3.1,6.7,5.1c18.6,22.5,56.1,32.6,82.9,47.4c6.5,3.6,14.6-0.5,12.5,7c-0.9,3.1-1.1,7.6-0.7,12.5
				c6.6,3.9,13.7,8.9,22.9,15.3c12.8,9,18.1,14.1,32.2,22c6.8,3.8,12.8,6.6,17.3,8.6c2.1-3.6,2.6-13.2,4.7-15.7
				C513.5,359.1,525.4,358.9,520.4,350.3z M475.6,218.8c0-0.1,0-0.1,0.1-0.1C475.7,218.7,475.8,218.8,475.6,218.8z M479.4,214.9
				c-0.4,0.4-4.5,0.5-4.5-0.6C476.1,214.4,480,214.4,479.4,214.9z M474.1,218.3c0,0,0.1,0,0.1,0.1
				C474.2,218.4,473.9,218.4,474.1,218.3z M466.9,211.9c0.3,0.2,0.3,0.3,0.1,0.1C466.8,211.9,466.7,211.9,466.9,211.9z M464.8,212.4
				c0.7-1.2,1,1.2,0.4,1.1C464.8,213.6,464.4,212.9,464.8,212.4z M459.7,209.5C459.9,209.7,459.9,209.7,459.7,209.5
				C459.4,209.6,459.5,209.5,459.7,209.5z M454.4,220.1c0.8,0.4-0.9,0.6-1,0.5C453.3,220.6,454,220,454.4,220.1z M449.4,225.1
				c0.1,0,0.3,0.2,0.2,0.2C449.4,225.4,449.1,225.1,449.4,225.1z M444,163.6c0.9,0.7,1.9,3.2,1.8,3.3
				C445.7,167.1,443.2,163.8,444,163.6z M427.3,159.3c0.9,0.5,2.7,2.8,2.7,2.8C430,162.1,426.8,160.5,427.3,159.3z M376.4,144.4
				C376.2,144.3,376.6,144.2,376.4,144.4C376.5,144.4,376.5,144.4,376.4,144.4z M377.6,149.2c0-0.2,0.1-0.1,0.2-0.1
				C377.7,149.2,377.7,149.2,377.6,149.2z M380.3,156.8c-0.2,0.3-0.3-0.5-0.1-0.4C380.3,156.5,380.4,156.7,380.3,156.8z M382,168.6
				c0-0.2-0.1-0.3-0.1-0.3c0-0.1,0-0.1,0-0.1c0,0,0,0,0,0.1c0,0,0,0.1,0.1,0.1C382,168.5,382.2,168.6,382,168.6z M387,176.7
				c-0.4-0.6,0.6-1.2,0.9-0.6C388.1,176.7,387.3,177,387,176.7z M383.6,157.3c-1.1-1.7,5.9,0.1,5.8,0.2
				C389.2,157.8,385.2,155.8,383.6,157.3z M389,165.6c-0.6-0.6,0.8-0.9,1.1-0.5C390.4,165.6,389.5,165.9,389,165.6z M390.2,206
				c-1.1,0.8-0.4-2.7-0.2-3C390.7,202,390.3,205,390.2,206z M390.1,191.8c0,0,1.9-5.2,3.2-4.8c1.6,0.5-1.1,4.9-1.8,8.5
				C388.3,198.8,390.1,191.8,390.1,191.8z M392.3,148.2c0-0.1,0.1-0.1,0.1-0.1C392.4,148.2,392.5,148.3,392.3,148.2z M393.6,207.1
				c0,0,1.3-3.9,2-2.7C395.5,205.7,393.6,207.1,393.6,207.1z M395.6,213.9c0.3-0.4,0.7-0.8,1-1.1C397,212.6,396.3,216.2,395.6,213.9
				z M395.9,201.9c-0.4,0.1-1.9-8,0.4-10.1C399.9,192.9,395.9,201.9,395.9,201.9z M399.3,190.1c-0.2,0-0.3-0.7,0-0.5
				C399.4,189.7,399.4,190.1,399.3,190.1z M437.3,209.7c0.9-0.3,2.5,0.9,1.8,1.4C438.4,211.6,435.4,210.3,437.3,209.7z M436.8,222.1
				c0.1-0.1,0.4,0,0.5,0.1C437.6,222.6,436.5,222.4,436.8,222.1z M442.2,234.8c-0.9,0.9-8.2,0.3-7.9-0.7
				C436.3,233.9,444,233.1,442.2,234.8z M433.8,235.9c-1.8,0.8-12.2,1.8-11.5,1.1C423.4,235.9,430.3,235.4,433.8,235.9z
				 M424.7,205.1c0.1-0.3,0.8-1.2,0.6-0.5C425.3,204.8,424.3,205.4,424.7,205.1z M423.4,227c5.9-0.7,10.9,2.7,6.1,3.4
				c-0.7,0.1-3.3,4.2-3.8,3.6c-0.4-0.5-3.5-1.4-3.5-1.4c0,0-0.8-5-3.6-3.9c-4.8,1.9-4.2,7.5-8.3,7.9c-3.8,0.3,0.9-5.9,0.8-7.1
				C411,226.8,420,228.8,423.4,227z M421.6,154.1c0.1,0,0.2,0.2,0.2,0.2C421.8,154.3,421.1,153.8,421.6,154.1z M418.6,160.7
				c0.8-0.2,1.3,1.1,1.1,1.4C419.4,162.6,418.1,160.9,418.6,160.7z M416.6,157.9c0.1,0.2-0.1,0.3-0.1,0.3
				C416.4,158.2,416.4,157.9,416.6,157.9z M413.8,216.6c-1,0-0.8-1.4-0.1-1.6C414.9,214.9,414.7,216.6,413.8,216.6z M412.4,153.7
				c2.4,0.4,0.9,1.9,0.5,2.4C412.3,156.9,410.1,152.9,412.4,153.7z M411.1,210.3c0,0.3-0.2,0.1-0.3,0
				C410.9,210.3,410.9,210.3,411.1,210.3z M410.3,157c0,0.2-0.1,0.1-0.2,0C410.2,156.9,410.2,157,410.3,157z M410.1,165.6
				c0.4-0.2,0.9-0.5,0.3-0.1C410.3,165.6,410.2,165.6,410.1,165.6c-0.3,0.1-0.5,0.2-0.5,0.2C409.7,165.7,409.9,165.7,410.1,165.6z
				 M409.4,193.2c0.2,0.1,0.2,0.3,0.1,0.3C409.4,193.5,409.2,193.3,409.4,193.2z M406.1,177.5c0,0.2,0.1,0.3-0.1,0.2
				C406,177.6,406.1,177.6,406.1,177.5z M406.1,196.1c0.3-0.2,0.5,0.8,0.1,0.5C405.9,196.4,405.9,196.2,406.1,196.1z M405.6,212.1
				c-0.4,0.3-2.2-1-2-1.3C403.8,211.5,406.3,211.6,405.6,212.1z M403.7,177.9c-0.1,0.7-1.3-0.6-0.4-0.5
				C403.6,177.4,403.7,177.7,403.7,177.9z M402.8,142.6c0.3-0.1,0.6,0.4,0.3,0.5C402.8,143.2,402.5,142.7,402.8,142.6z M405.1,221.2
				c6.4-3.1,18.2,3.4,15.5,4.5c-1.6,0.7-8.5-3-8.5-3C411.7,222.3,396.2,223.3,405.1,221.2z M402.3,132.1c0,0.1-0.1,0.1-0.1,0.1
				C402.3,132.1,402.2,132,402.3,132.1z M401.4,188.9c0.1,0.1,0.1,0.1,0.2,0.2C401.4,189.1,401.2,189.1,401.4,188.9z M401.1,140.8
				c0.5,0.2,0,0.5-0.2,0.2C400.8,140.9,400.9,140.8,401.1,140.8z M399.7,127.5c0.2,0.1,0.5,0.3,0.5,0.6
				C400.1,128.7,399.1,127.4,399.7,127.5z M399.2,136.6c0.3,0,0.4,0.4,0.2,0.5C399,137.2,398.9,136.7,399.2,136.6z M397.4,166.1
				c0.1-0.7,1.7,0,1.4,0.4C398.3,167.1,396.6,167.9,397.4,166.1z M396.1,173.5c0.1,0,0.1-0.1,0.2-0.1c1.5-0.9,0.6-5.1,3.3-3.9
				c1,0.5-1.4,2.9-3.3,3.9C396.2,173.4,396.1,173.4,396.1,173.5c-0.8,0.4-1.4,0.5-1.6-0.1C395.2,173.6,395.7,173.6,396.1,173.5z
				 M394.4,143.8c0,0.3-7.9,1.2-11,1.8c-1.7,1.4-6-0.4-5.4-0.6c0.5-0.2,3.5-2,5-1.9c1.3,0.1,1.2-3.6,1.5-3.3
				C386.3,141.6,394.4,143.8,394.4,143.8z M382.1,134.9c0.3-1,1.1,0.2,1.2,0.7C382.4,136.4,382,135.3,382.1,134.9z M387.1,128
				c0.1-0.2,0.6-1,0.5-0.5C387.3,127.7,386.9,128.6,387.1,128z M380.3,118.2C380.6,117.9,380.6,118,380.3,118.2
				C380.3,118.4,380.2,118.4,380.3,118.2z M384.6,120.7c3.6-1.4,4.5-1.7,4.1,0.2c-0.2,1,6.1,2.1,2,3.4c-4,1.2-8,3.8-8,3.8
				c0,0,2.4-4.6-0.9-0.7c-5.6,3.8,2.4-3.7,3.4-4.1C387.5,122.4,371.8,125.5,384.6,120.7z M378.8,108.6c-1.8,1.2-4.7,3.9-4.7,3.9
				C374,112.5,377.4,109,378.8,108.6z M372.3,114.3c0,0,0,0.1,0,0.1C372.1,114.7,372.1,114.5,372.3,114.3z M334.9,176.8
				c-0.1,0-0.1,0-0.1,0.1C334.9,176.8,335,176.7,334.9,176.8z M336.9,174.3c0.1-0.1-0.4,0-0.2-0.1
				C336.8,174.1,337.2,174.3,336.9,174.3z M337.6,172.5c-0.2,0.2-0.1-0.1-0.1-0.1C337.6,172.4,337.7,172.5,337.6,172.5z
				 M336.6,179.2c-1.3,0.5-0.2-1.2-0.2-1.2C336.3,178,336.8,178.6,336.6,179.2z M337.5,177.8c-0.1,0-0.1,0-0.1,0
				C337.4,177.5,338.1,177.5,337.5,177.8z M340.4,198.8C340.4,198.7,340.4,198.7,340.4,198.8C340.4,198.7,340.4,198.8,340.4,198.8z
				 M367.9,150.2c-0.2,0.3,0.1-0.1,0.1-0.2C368,150.1,368,150.2,367.9,150.2z M368,118.7c-0.3-0.1-0.1-1,0.1-1.1
				C368.2,117.5,368.5,118.2,368,118.7z M368.9,168.2c-0.3,0-0.1-0.2,0.1-0.2C369.1,168,369.1,168.2,368.9,168.2z M411,304.8
				c0.1-0.4,1.8,0,1.7,0.5C412.2,305.9,410.8,305.2,411,304.8z M450,308.7c-1.2,1.1-1-2-0.2-1.5C450.1,307.3,450,308.2,450,308.7z
				 M466.9,315.7c0-0.1,0-0.1,0-0.1C466.9,315.7,467,315.8,466.9,315.7z M477.2,319.8c-0.2-0.2,0.1-0.3,0.1-0.3
				C477.4,319.5,477.4,319.9,477.2,319.8z M487.6,331.5c-0.5,0.7-0.7-1-0.7-1C487,330.6,488,330.8,487.6,331.5z M490.4,334.4
				c0,0.2-0.3,0.1-0.4,0.1C489.9,334.2,490.4,334.1,490.4,334.4z M490.3,368.1c-0.1,0-0.1,0-0.1-0.1
				C490.3,368,490.3,367.9,490.3,368.1z M490.4,339.9c-0.2,0-0.5-1-0.3-1C490.2,339,490.5,339.7,490.4,339.9z"/>
			<path class="st7" d="M354.7,122.2c-6.7,9-14.4,18.6-36.7,46.4c0,0,0,0,0,0l38.3-47.9C355.7,121.1,355.1,121.5,354.7,122.2z"/>
			<path class="st7" d="M450.7,167.7C450.7,167.7,450.7,167.8,450.7,167.7c0.3,0.1,0.7,0.1,1,0.1
				C451.4,167.6,451.1,167.6,450.7,167.7z"/>
			<path class="st7" d="M340.4,198.8C340.4,198.8,340.4,198.7,340.4,198.8C340.4,198.7,340.4,198.7,340.4,198.8z"/>
			<path class="st7" d="M510.4,140.2c-0.3-0.5-0.5-0.9-0.9-1.4c-1.2-2-2.4-3.6-3.3-4.9c0,0,0,0,0,0
				C507.8,136.1,509.2,138.2,510.4,140.2z"/>
			<path class="st7" d="M511.9,142.8c-0.5-0.8-1-1.7-1.5-2.6C510.9,141.2,511.4,142.1,511.9,142.8c-0.4-0.7-0.9-1.6-1.5-2.6
				c-1.2-2-2.6-4.1-4.2-6.4c-2.5-0.6-5.8-1.2-4.5,1c2.1,3.3-1.1,4.8,2.5,6.7c12.6,6.7,7.9,25.2,16.7,29.1c1.3,0.6-1.3,1.2,0,2.5
				c2.5,2.6-1-0.6-3.5-0.3c-5.6,0.7,1.3,3.4,1.3,3.4c0.2-0.2-5.3,4.4-4.8,7.8c3.7,25.7,43.9,8.4,61.1,11.2c-0.6-1.6-6.7-3.7-6.7-3.8
				c0-0.2,1.9-2.4,1.9-2.4c0,0,6.8,1.7,2.6-4.2c-3.9-5.5,6.7,5,4.4-1c-0.4-0.9-3.7-3.6-3.7-3.6c0.4-0.1,4.7-1,4.7-1
				c0-0.1,3.3-3.4,3.6-3.8c0.6-0.8-1.7-7.1-1.1-7.5c3.5-2.3,4,4.9,4.7,3.4c3.6-7.7-1.2-4.6-0.5-7.8c0.1-0.5-2.2-2.2-1.4-2.3
				c3.1-0.3,3.6-6.2,5.1-7.6c0.9-0.8,1.4-5,1.4-5c0,0,7.8,0.8,8.4-3.1c-5-4.4-18.8-1.7-18.8-1.7c0,0,8.2-6.9,4.2-6.6
				c-5.8,0.4-1.6-6.1-12.6-3.5c-0.9,0.2-4.5-0.3-2-0.6c1.9-0.3,4.2-0.8,6.3-1.4c-6.1-1.6-12.5-2.6-19.2-2.6
				C547.6,129.1,531.4,130.7,511.9,142.8z M517,180.9C517,180.8,517,180.8,517,180.9C517.1,180.9,517,180.9,517,180.9z M521.3,178.3
				c0.1-0.1,0.6-0.1,0.6,0.2C522.4,179.2,521.1,178.6,521.3,178.3z M543.2,194c-0.2-0.1-0.2-0.2,0-0.1
				C543.4,194,543.4,194,543.2,194z M587.9,150.5c0.1-0.1,0.4,0.1,0.4,0.2C588.6,151.1,587.6,150.7,587.9,150.5z M585.8,150.6
				c0.1-0.1,0.4-0.2,0.6,0C587,151.3,585.4,151.5,585.8,150.6z M566.9,185.6C566.9,185.7,567,185.9,566.9,185.6
				C566.7,185.5,566.8,185.5,566.9,185.6z M566,188.9c0-0.1,0-0.1-0.1-0.1C566.1,188.8,566,188.9,566,188.9z"/>
			<path class="st7" d="M517.1,180.8C517,180.8,517,180.8,517.1,180.8C517,180.9,517.1,180.9,517.1,180.8z"/>
			<path class="st7" d="M516.9,166.7C516.8,166.6,516.8,166.7,516.9,166.7C516.8,166.7,516.9,166.7,516.9,166.7z"/>
			<path class="st7" d="M581.2,169.6C581.2,169.6,581.2,169.7,581.2,169.6C581.3,169.7,581.2,169.6,581.2,169.6z"/>
			<path class="st7" d="M486.1,114.5C486.2,114.5,486.2,114.5,486.1,114.5C486.2,114.5,486.1,114.5,486.1,114.5z"/>
			<path class="st7" d="M488.5,110.2C488.5,110.2,488.5,110.2,488.5,110.2C488.5,110.2,488.5,110.2,488.5,110.2z"/>
			<path class="st7" d="M481.3,115.9c0.1,0.5,2,3.4,1.4,3.1c-0.4-0.2-3.2-2.9-3.4-2.5c-0.6,1.2-7.7-4.7,4.9,9.8c1.7,2,7.2,4,6.3,0.9
				c-0.6-2.1,2.5-3.8,5.4-4.9c-0.8-0.8-1.6-1.5-2.5-2.3c-0.9-0.8-2.5-2.1-4.8-3.8C486.3,116,481.2,115.3,481.3,115.9z M487.4,123.1
				c0.1,0,0.2-0.4,0.2-0.1C487.4,123.3,486.9,123.2,487.4,123.1z M484.8,117.5C484.8,117.4,484.9,117.5,484.8,117.5
				C484.7,117.5,484.7,117.5,484.8,117.5z M483.9,120.2c-0.1,0-0.1,0-0.1-0.1C483.5,119.9,483.8,120.1,483.9,120.2z"/>
			<path class="st7" d="M491.5,107.6C491.4,107.7,491.4,107.7,491.5,107.6C491.6,107.6,491.6,107.6,491.5,107.6z"/>
			<path class="st7" d="M491,165c-0.5,0-0.2,0.9-0.2,0.9C490.8,165.9,491.8,165.2,491,165z"/>
			<path class="st7" d="M490.6,170.1c2.6-1-3.9-13.9-5-14.7c-2.4-1.7,0-8.4-8-9.5c-2.8-0.4-0.3-3.1,0.3-5.2c0-0.1,0.1-0.3,0.1-0.4
				c0-0.3,0-0.5,0-0.8c-2.7-10.3-17.7,7-11.2-1.3c0.9-1.2,3.4-2.9,4.1-5c-12.9-3.5-17.4,13.9-5.7,20.6c12.5,11.9,13.3,4.6,11.1,9.5
				c-0.6,1.3,6.7,8.1,2.7,10.7c-8,5.2-5.3-0.1-13.5,3.2c-2.6,1.1,7.2,3.5,7.9,5.6c1.6,4.9,7.7,4.6,7.7,4.6c0.1-0.2,3.7,6.2,7.6,2.2
				c2.3-2.3-3.8-7.5-2.5-8.4c5.4-3.8,10.5,6.5,12.6,1.2C499.4,181,489.1,170.7,490.6,170.1z M478.1,140C478.1,140,478,140,478.1,140
				C478,140,478.1,139.9,478.1,140z M465.6,145.9c0.1,0.1,0.1,0.1,0.2,0.2C465.7,146,465.5,146.1,465.6,145.9z M473.3,159.6
				c0.2-0.1,0.3,0,0.4,0.1C473.9,160.4,472.9,159.8,473.3,159.6z M475.6,145.9C475.6,145.9,475.3,146,475.6,145.9
				C475.8,145.6,475.6,145.9,475.6,145.9z M477.6,182.6c-1.1-0.1,0.4-1.7,0.8-1.4C479.1,181.7,478.7,182.8,477.6,182.6z
				 M496.8,179.7c0.2,0.2,0.2,0.2,0,0.3C496.8,179.9,496.8,179.8,496.8,179.7z"/>
			<path class="st7" d="M415.1,103.6c-3.1-0.7-5.2-1.2-6.7-1.4c-1,0.1-2,0.1-2.9,0.2c0.9,0.9,4,2.7,0.8,3.4
				c-1.5,0.3,4.7,4.3,6.8,5.9c10,7.9-12.5-10-6.6,3.2c4.7,10.7,11.4,4.9,16.7,15c2,3.9,9.7,3.6,5.8,1c-0.7-0.5,1.8-0.4,2.1,0.1
				c2.8,3.5,4.5,2.3,5.6-0.6c-0.1-0.1-0.1-0.4,0.1-0.3c0,0,0,0,0,0c1.7-4.7,1.9-13.4,2.6-14.3c0.4-0.6-4.7-1-4.7-1
				c0,0-5.8,1.2-6.7,1.8c-1.5,1.1,1.6-4.5-0.8-5.8c-1.4-0.8-4.7-0.9-4.7-0.9c0-0.1-3.1-3-3.1-3c0,0,2.7-1.4-0.9-2.5
				C417.5,104.6,416.4,104.3,415.1,103.6z"/>
			<path class="st7" d="M476.1,113.9c3.4,1.2,6.4,0.8,8.5-0.2c-1.9-1.2-4-2.4-6.5-3.7c-0.1,0.4-0.2,0.7-0.2,0.7
				C478,110.7,473.1,112.2,476.1,113.9z"/>
			<path class="st7" d="M483.6,114.2C483.6,114.2,483.6,114.3,483.6,114.2C483.6,114.3,483.7,114.2,483.6,114.2z"/>
			<path class="st7" d="M398.1,100c1,2.5,4.1,2.6,7.4,2.3c-0.6-0.6-0.3-0.8,2.9-0.2c2.2-0.1,4.2-0.1,5.6,0.8
				c0.4,0.2,0.8,0.5,1.1,0.7c0.9,0.2,1.8,0.4,2.8,0.7c-0.1,0,0.1,0,0.1,0c0,0,0,0-0.1,0c0.2,0,0.3,0.1,0.5,0.1
				c0.5-0.2,1-0.6,1.3-1.3c-2.8-3.4-7.3-6.3-11.7-6.9c-1.4,0-2.9,0.1-4.3,0.2C401.6,96.8,399.7,97.9,398.1,100z"/>
			<path class="st7" d="M403.6,96.3c1.4-0.1,2.8-0.1,4.3-0.2C406.5,95.9,405,95.9,403.6,96.3z"/>
			<path class="st7" d="M417.9,104.2C418,104.2,418,104.2,417.9,104.2C418,104.2,417.9,104.2,417.9,104.2z"/>
			<path class="st7" d="M415.1,103.6c1.3,0.7,2.4,1.1,3.3,0.8c-0.1,0-0.3-0.1-0.5-0.1C416.9,104,416,103.8,415.1,103.6z"/>
			<path class="st7" d="M405.5,102.3c1-0.1,2-0.2,2.9-0.2C405.2,101.5,404.9,101.7,405.5,102.3z"/>
			<path class="st7" d="M626.4,181.1c0.1,0.1,0.1,0.1,0.2,0.2c0,0,0-0.1,0-0.1C626.6,181.1,626.5,181.1,626.4,181.1z"/>
			<path class="st7" d="M626.8,168.7c-1.8-1.2,0.5,4.7-1.8,1.3c-1-1.6-2.6-0.3-2.6-0.6c-0.2-1.2-8.1-3.2-3,2.1c5.1,11.6,8,6.5,8,6.5
				c0,0.2-0.5,2-0.8,3.2c0,0,0,0.1,0,0.1c0,0,0,0,0,0c-0.1,0.5-0.2,0.9-0.2,0.9c0,0,0.8,3.8,1.5,4.3c4.1,3.4,4.4-9.1,6.6-7.2
				c1.2,1.1,1.3,7.1,3.2,7.1C644.3,186.5,630.5,171.3,626.8,168.7z M625.9,173.4C625.8,173.3,625.8,173.2,625.9,173.4
				C626.2,173.6,625.9,173.4,625.9,173.4z"/>
			<path class="st7" d="M466.3,125.2c2.7,2.2,21,17.4,17.7,5.2c-3.4-5.5-14-10.3-13.9-10.4c0.8-1.2-16.9-12.3-3.6-2.6
				C470.1,120,461.1,121.1,466.3,125.2z"/>
			<path class="st7" d="M442.9,109.5c-1.8-1.6-2.7-3.8-5.5-1.9c-4.7-1.9-2.7-2.5-4.8-4.8c-1.3-1.4-6.6-1.3-6.6-1.3c0,0,4,3.6,4,3.6
				c0,0,6.7,4.3,11,6C443.9,112.3,444.8,111.2,442.9,109.5z"/>
			<path class="st7" d="M576.1,211.5c-1.1-0.3-5.2-6.4-6.6-3.7c-0.4,0.8,3.7,2.5,3.4,2.8c-1.7,1.5-1.2,3.7-1.3,4
				c-0.1,0.4,5.7,4.6,8.2,6C598.4,223.4,579.6,212.4,576.1,211.5z"/>
			<path class="st7" d="M444.3,122.8c-0.2,0.1-5.4-4.4-4.6-0.7c1.5,6.9,6.1,12.1,10.6,7.1c1.9-2.1-3-4.4,2.2-5.7
				C451.7,119.9,444.3,122.8,444.3,122.8z"/>
			<path class="st7" d="M490.5,224.6c0.4-0.6-1-0.6-1-0.6c0,0-7.6,3.2-8.1,5c-0.2,0.8,6.2-0.2,6.1,0.3c-0.5,1.4,2.2-0.6,2.2-0.6
				c0,0,3.3-0.2,2.6-0.7c-0.6-0.5,0.9-1.5,0.9-1.5c0-0.1-1.1-0.2,0.3-1.1C495.1,223.2,489.7,225.8,490.5,224.6z"/>
			<path class="st7" d="M426.5,99.4c12.7,3.5,7.6-0.1,1-2.9c-2.8-0.2-5.5-0.4-8.2-0.5C425.3,100.3,428.6,96.8,426.5,99.4z"/>
			<path class="st7" d="M636.9,169.8c-1.5-1.2-1.3,0.7-2.3,0.1c-0.8-0.4-3.5-3.1-3.7-2.3c-0.3,0.8-2.8-0.3-1.4,2.3
				c-0.1,2.5,4.5,2.8,4.3,2.9c-2,1,4.3,4.7,5.5,4.3C644.9,175.4,639.8,172,636.9,169.8z"/>
			<path class="st7" d="M457.5,117c0,0,0.6,0.2,1.2,0.4c0.8-1-3.8-3.4-3.8-3.4c-0.1,0-3-0.8-3.2-0.7c-0.4,0,0.6-2.2-2.1-2.8
				c-1.8,0.8,3.8,4.5,3.8,4.5c0,0-2.7,2.1,0.6,2.5c2.4,0.3,3.7,0.3,4.3,0.1C457.7,117.4,457.4,117.1,457.5,117z M457.5,117
				c0,0-0.1,0-0.1,0C457.4,117,457.5,117,457.5,117z"/>
			<path class="st7" d="M457.3,108.8c4.9,0.7,2.7,2.9,5.6,2.6c1.9-0.2,2.4-2.3,0.8-3.6c-0.8-0.6-7-1.8-4.5-0.1
				C461.2,109,453.6,107.1,457.3,108.8z"/>
			<path class="st7" d="M410.8,282.2c0.4,0.5,19.8,5.3,30.9,4C435.2,280.7,410.8,282.2,410.8,282.2z M415.6,282.8
				c-0.3-0.1-0.4-0.2-0.4-0.4C415.6,281.6,416.8,283,415.6,282.8z"/>
			<path class="st7" d="M446.7,289.1c0,0.4-7.2-0.2-3,1.4C472.2,294.8,446.4,283.4,446.7,289.1z"/>
			<path class="st7" d="M477.9,141c-1.1,4.4,4.2,6.6,5.6,6.5c1.7,0-4.4-11.1-5.5-7.3c0,0.1-0.1,0.3-0.1,0.4
				C478,140.7,477.9,140.8,477.9,141z"/>
			<path class="st7" d="M478,140C478,140,478.1,140,478,140C478.1,139.9,478,140,478,140z"/>
			<path class="st7" d="M468.3,109.7c-1.4,0.1-2,1.3-1.8,2.2C472,114.3,472.3,109.5,468.3,109.7z"/>
			<path class="st7" d="M457.9,118.8c-1.3,0.7,1.7,3,2.7,3.4C463.8,123.4,461.5,115.6,457.9,118.8z"/>
			<path class="st7" d="M459.7,117.8C459.7,117.8,459.8,117.8,459.7,117.8C459.9,117.8,459.7,117.8,459.7,117.8z"/>
			<path class="st7" d="M448.4,103.9c-0.9-0.4-6-2.7-5-1.2C447.3,106,452.1,105.5,448.4,103.9z"/>
			<path class="st7" d="M471.2,168.7c0,3.8,6.7,1,4.4-1.5C474.1,165.4,471.9,167.3,471.2,168.7z"/>
			<path class="st7" d="M332.6,184.1c-2.5,0.9,0.2,5.5,0.2,5.5C332.9,189.5,336,183.8,332.6,184.1z"/>
			<path class="st7" d="M470.4,114.6c3.8,0.3-3.8-2.6-4.1-1.7C466.1,113.4,469.1,114.3,470.4,114.6z"/>
			<path class="st7" d="M450.1,180.1c-1,1.5,3.6,2.1,4.4,1.2C454.6,179.6,450.6,179.4,450.1,180.1z"/>
			<path class="st7" d="M474.3,225.1c-1.8,0.9,2.7,2.3,3.6,1.9C479,226.4,475.8,225.2,474.3,225.1z"/>
			<path class="st7" d="M421.2,98.6c1.4,1,3.3,0.9,4.3,0.9C424.6,98.7,419.7,97.5,421.2,98.6z"/>
			<path class="st7" d="M432.9,289.2c-4.8,0.2,1.8,2.9,3.4,1.5C437.3,289.9,434.3,289.1,432.9,289.2z"/>
			<path class="st7" d="M460,292.8c-1.4,0.6,4.1,2.2,2,0.3C461.5,292.8,460.5,292.6,460,292.8z"/>
			<path class="st7" d="M451.6,109.9c1.5,0.5,1.6-1,0.9-1.2C451.7,108.6,450.3,109.3,451.6,109.9z"/>
			<path class="st7" d="M457.4,183.7c-1.1,0.2-1.8,2-0.9,2.5C457.4,186.6,459.7,183.9,457.4,183.7z"/>
			<path class="st7" d="M471.5,233C471.4,233,471.4,233,471.5,233C471.4,233,471.5,233,471.5,233z"/>
			<path class="st7" d="M471.4,231.7c-0.9-0.1,1.1,1.1,1.4,1.8c0.1,0,0.2,0,0.3,0C475.6,232.8,471.8,231.7,471.4,231.7z"/>
			<path class="st7" d="M473,233.5c-0.1,0-0.2,0-0.3,0c0,0,0,0.1,0,0.1C472.9,233.6,473,233.5,473,233.5z"/>
			<path class="st7" d="M472.8,233.6C472.8,233.6,472.8,233.6,472.8,233.6C472.7,233.6,472.8,233.6,472.8,233.6z"/>
			<path class="st7" d="M586.3,177.4c0.2-0.4-1-2.9-2-2C583.3,176.2,585.8,178.1,586.3,177.4z"/>
			<path class="st7" d="M475.4,116.6c-0.1-1.2-2.4-1.2-2.1-0.1C473.9,117.1,475.4,117,475.4,116.6z"/>
			<path class="st7" d="M457.4,110.2c0.3,0.3,0.8,0.5,1.5,0.6C461.5,111.1,457.1,109.2,457.4,110.2z"/>
			<path class="st7" d="M446.6,105.6c0.1-0.2-6.9-3.1-6.9-3.1c0-0.1-4.4-2.3-0.3,0C438.1,104.5,446.4,106,446.6,105.6z"/>
			<path class="st7" d="M446.8,203.2c0.8,0,2.1-0.2,1.9-0.9C448.3,200.7,444.5,202.4,446.8,203.2z"/>
			<path class="st7" d="M450.1,119.9c-2.3-0.3,0,1.3,1.3,1.4C453.8,121.6,451.5,120.1,450.1,119.9z"/>
			<path class="st7" d="M444.7,112.8c1.3,0.6,1.9-0.3,0.7-0.7C444.5,111.8,443.3,112.1,444.7,112.8z"/>
			<path class="st7" d="M620.6,176c0.2-0.1-1.2-2.7-1.9-3.6C617.9,172.9,620.5,176,620.6,176z"/>
			<path class="st7" d="M462.1,181.7c-0.6,0.1,0.3,1.9,1.1,1.7C464.3,183.1,463.1,181.5,462.1,181.7z"/>
			<path class="st7" d="M439.1,211.1c0.7-0.5-0.9-1.7-1.8-1.4C435.4,210.3,438.4,211.6,439.1,211.1z"/>
			<path class="st7" d="M468.5,309.7c-0.1-1-0.8-1-0.8-0.2c0.2,0.2,0.5,0.4,0.7,0.6C468.5,310,468.5,309.9,468.5,309.7z"/>
			<path class="st7" d="M468.4,310.1c-0.3-0.2-0.5-0.4-0.7-0.6c0,0.1,0,0.2,0,0.3C467.8,310.6,468.3,310.5,468.4,310.1z"/>
			<path class="st7" d="M472.1,160.8c-0.6,0.3-1.6,0.1-1.8,0.5C469.5,162.7,474.1,161.4,472.1,160.8z"/>
			<path class="st7" d="M476.7,169.3c-0.3,0.6,0.8,1.4,1.4,1.3C479.3,170.2,477.1,168.3,476.7,169.3z"/>
			<path class="st7" d="M492,399.6C492,399.6,492,399.7,492,399.6C492.1,399.7,492.1,399.7,492,399.6z"/>
			<path class="st7" d="M490.9,400.6c-1.4,2.6,2,1.6,1.2-0.7C491.9,399.3,491.2,400.4,490.9,400.6z"/>
			<path class="st7" d="M490.9,400.6C490.9,400.6,490.9,400.7,490.9,400.6C490.9,400.6,490.9,400.6,490.9,400.6z"/>
			<path class="st7" d="M602.1,247.1c0,0,0.1,0,0.1-0.1C602.1,247,602.1,247.1,602.1,247.1z"/>
			<path class="st7" d="M602.2,247c0.3,0.3,1.3-0.1,1.5-0.6C603.3,245,601.7,246.6,602.2,247z"/>
			<path class="st7" d="M431.5,137.3c0.3,0.1,2-0.4,1.1-1.2C431.8,135.7,430.5,136.9,431.5,137.3z"/>
			<path class="st7" d="M477.1,195.7c-0.5,0.2-0.9,0.8-0.2,0.8C477.5,196.6,478.2,195.5,477.1,195.7z"/>
			<path class="st7" d="M456.5,112.5c-0.4-0.3-2-0.4-1.8-0.2C455.1,112.7,456.3,112.7,456.5,112.5z"/>
			<path class="st7" d="M455.4,112.6C455.4,112.6,455.3,112.6,455.4,112.6C455.3,112.6,455.4,112.6,455.4,112.6z"/>
			<path class="st7" d="M455.8,168.9c-0.9,0.1,0.2,1.7,0.7,1.8C456.9,170.7,456.4,169.2,455.8,168.9z"/>
			<path class="st7" d="M484.9,194.4c0.5-0.1,0.6-0.8,0.3-1.1C484.2,193.2,484.1,194.5,484.9,194.4z"/>
			<path class="st7" d="M435.4,103c0-0.2-1.1-0.9-1.4-0.8C433.9,102.5,435.4,103.2,435.4,103z"/>
			<path class="st7" d="M459.1,117.8c0.8,0.1,0.2-0.2-0.4-0.4c-0.1,0.1-0.2,0.2-0.4,0.2C458.5,117.7,458.8,117.8,459.1,117.8z"/>
			<path class="st7" d="M458.2,117.6c0.2-0.1,0.3-0.1,0.4-0.2c-0.6-0.2-1.2-0.4-1.2-0.4C457.4,117.1,457.7,117.4,458.2,117.6z"/>
			<path class="st7" d="M457.4,117c0,0,0.1,0,0.1,0C457.5,117,457.4,117,457.4,117z"/>
			<path class="st7" d="M467.8,301c-0.3-0.4-0.2,0.7,0,0.8C467.9,301.9,468,301.3,467.8,301z"/>
			<path class="st7" d="M467.7,297.9c-0.1-0.5-0.4-0.2-0.5,0.2C467.2,298.8,467.7,298.4,467.7,297.9z"/>
			<path class="st7" d="M464.8,182c-0.6,0,0,1,0.3,1.1C466.2,183.4,465.7,181.9,464.8,182z"/>
			<path class="st7" d="M430.5,276c1.1,0.1,0.4-1.2-0.3-1.1C429.5,274.9,429.5,276,430.5,276z"/>
			<path class="st7" d="M433.1,272.2c0.7-0.2-0.4-1.6-0.9-1.3C432,271.1,432.3,272.3,433.1,272.2z"/>
			<path class="st7" d="M429.6,270.7c-0.5-0.1-1-0.1-1.4,0.2C427.6,271.9,430.8,271,429.6,270.7z"/>
			<path class="st7" d="M444.9,284.5c0.6-0.2-0.5-0.9-0.9-0.6C443.4,284.3,444.3,284.7,444.9,284.5z"/>
			<path class="st7" d="M475.3,162.3c-0.2-0.4-0.9-0.4-0.9,0C474.4,163.3,475.5,163.2,475.3,162.3z"/>
			<path class="st7" d="M589.5,139.6c-0.5-0.5-0.8,0.7-0.1,1C589.5,140.3,589.8,139.9,589.5,139.6z"/>
			<path class="st7" d="M588.2,156.3c-0.3,0-0.5,0.5-0.3,0.7C588.6,157.6,588.9,156.2,588.2,156.3z"/>
			<path class="st7" d="M467.8,303c0,0.4,0.1,0.3,0.2,0C467.9,302.8,467.8,302.8,467.8,303z"/>
			<path class="st7" d="M462.7,117.4c-0.4-0.2-0.8,0.3-0.3,0.5C462.8,118,463.3,117.6,462.7,117.4z"/>
			<path class="st7" d="M458.9,149.4c-0.3,0.5,1.5,0.7,1.4,0.5C460.2,149.6,459.1,149,458.9,149.4z"/>
			<path class="st7" d="M460.3,149.8C460.3,149.8,460.4,149.9,460.3,149.8C460.3,149.8,460.3,149.8,460.3,149.8z"/>
			<path class="st7" d="M501.6,131.4c-0.2-0.4-1-0.7-0.9-0.2C500.8,131.8,501.8,132,501.6,131.4z"/>
			<path class="st7" d="M333.6,182.2c-0.1-0.4-0.8,0.1-0.6,0.3C333.2,182.6,333.5,182.5,333.6,182.2z"/>
			<path class="st7" d="M487.3,130.4C487.3,130.4,487.3,130.4,487.3,130.4C487.3,130.5,487.3,130.4,487.3,130.4z"/>
			<path class="st7" d="M487.3,130.5c-0.1-0.3-1.1,0.2-0.6,0.6C487.2,131.3,487.3,130.6,487.3,130.5z"/>
			<path class="st7" d="M521.3,178.3c-0.2,0.4,1.1,0.9,0.6,0.2C521.8,178.2,521.3,178.1,521.3,178.3z"/>
			<path class="st7" d="M426.9,134.7c0.1,0.3,0.5,0.6,0.6,0.2C427.6,134.6,426.7,134.1,426.9,134.7z"/>
			<path class="st7" d="M438.6,276.9c-0.4-0.3-0.7-0.2-0.6,0.1C438,277.2,438.7,277.2,438.6,276.9z"/>
			<path class="st7" d="M431.8,277.6c0.6-0.3-0.4-0.9-0.6-0.4C431.1,277.4,431.5,277.7,431.8,277.6z"/>
			<path class="st7" d="M441.8,280.4c0,0,0,0.1,0.1,0.1C442,280.4,441.8,280.4,441.8,280.4z"/>
			<path class="st7" d="M442.7,281c0.5-0.3-0.7-0.6-0.7-0.5C441.9,280.5,442.3,281.2,442.7,281z"/>
			<path class="st7" d="M519,172.2c0-0.3-0.2-0.5-0.5-0.3C518.1,172,518.9,172.6,519,172.2z"/>
			<path class="st7" d="M415.2,282.4c-0.1,0.2,0.1,0.3,0.4,0.4C416.8,283,415.6,281.6,415.2,282.4z"/>
			<path class="st7" d="M469.1,304c0,0.3,0.2,0.4,0.2,0.1C469.3,303.8,469.1,303.8,469.1,304z"/>
			<path class="st7" d="M473.3,159.6c-0.4,0.2,0.6,0.8,0.4,0.1C473.6,159.6,473.4,159.5,473.3,159.6z"/>
			<path class="st7" d="M587.3,164.3c-0.1,0-0.4,0.1-0.2,0.3C587.2,164.5,587.4,164.3,587.3,164.3z"/>
			<path class="st7" d="M591.2,140c0,0.3,0.3,0.5,0.4,0.1C591.5,139.7,591.2,139.7,591.2,140z"/>
			<path class="st7" d="M450.9,126.1c0.3,0.4,0.7-0.2,0.2-0.6C450.7,125.5,450.6,125.8,450.9,126.1z"/>
			<path class="st7" d="M318.1,170.8c-0.4,0.1-0.1,0.5,0.2,0.5C318.8,171.2,318.4,170.8,318.1,170.8z"/>
			<path class="st7" d="M642.1,230.7c0.6,0.1,0.9-0.4,0-0.3C642,230.4,642,230.6,642.1,230.7z"/>
			<path class="st7" d="M642.8,230.5c0.1,0,0.2,0,0.2,0C643,230.4,642.9,230.5,642.8,230.5z"/>
			<path class="st7" d="M475.9,188.6c-0.4,0-0.4,0.3-0.1,0.5C476.2,189.4,476.6,188.5,475.9,188.6z"/>
			<path class="st7" d="M393.2,265.2C393.2,265.2,393.1,265.3,393.2,265.2C393.2,265.2,393.2,265.2,393.2,265.2z"/>
			<path class="st7" d="M393.2,265.3c-0.1,0.1,0.2,0.4,0.5,0.5C395,265.9,393.4,265.1,393.2,265.3z"/>
			<path class="st7" d="M457.9,121.3c0,0,0.1-0.1,0.1-0.1C457.9,121,457.6,121.2,457.9,121.3z"/>
			<path class="st7" d="M432.9,111.7c0,0,0.2,0.1,0.2,0.1C433.1,111.8,432.7,111.5,432.9,111.7z"/>
			<path class="st7" d="M361.6,119.5C361.6,119.5,361.6,119.5,361.6,119.5C361.6,119.5,361.5,119.5,361.6,119.5z"/>
			<path class="st7" d="M361.9,119c-0.6,0.7,0.1,0.2,0.5-0.3C362.6,118.4,362,118.9,361.9,119z"/>
			<path class="st7" d="M470,164.5c-0.1,0.1-0.1,0.1,0.1,0.2C470.1,164.7,470.1,164.6,470,164.5z"/>
			<path class="st7" d="M581.3,169.6c0.4-0.3,0.4-0.4,0-0.8C581.3,169,581.3,169.3,581.3,169.6z"/>
			<path class="st7" d="M458.9,109.2c-0.1,0-0.5,0-0.2,0.1C459,109.3,458.9,109.2,458.9,109.2z"/>
			<path class="st7" d="M589.8,141.2c0,0,0-0.2-0.1-0.2C589.2,140.3,589.4,141.5,589.8,141.2z"/>
			<path class="st7" d="M589.4,140.7c0-0.1,0-0.2-0.1-0.2C589.3,140.6,589.4,140.7,589.4,140.7z"/>
			<path class="st7" d="M436.7,130.5c0.1,0,0.1-0.3,0-0.3C436.7,130.2,436.7,130.3,436.7,130.5C436.7,130.4,436.7,130.5,436.7,130.5
				z"/>
			<path class="st7" d="M436.7,130.4c0-0.1,0.1-0.2,0.1-0.3c0,0,0,0,0,0C436.6,130,436.5,130.3,436.7,130.4z"/>
			<path class="st7" d="M471.8,112.4c0,0,0-0.1,0-0.1C471.3,112,471.5,112.6,471.8,112.4z"/>
			<path class="st7" d="M480.8,115.2c0.1-0.1-0.3-0.3-0.3-0.3C480.6,114.8,480.6,115.1,480.8,115.2z"/>
			<path class="st7" d="M633.2,166.5c-0.1-0.2-0.7-0.3-0.7-0.3C632.5,166.2,633.1,166.9,633.2,166.5z"/>
			<path class="st7" d="M632.5,166.2c0-0.1-0.2-0.2-0.2-0.2C632.3,165.9,632.4,166.2,632.5,166.2z"/>
			<path class="st7" d="M432.3,132.9c0,0,0,0.1,0,0.1C432.3,133.1,432.3,133,432.3,132.9z"/>
			<path class="st7" d="M432.1,133.7c0.1-0.1,0.2-0.6,0.1-0.6C432.2,133.1,431.6,133.5,432.1,133.7z"/>
			<path class="st7" d="M609.3,246.8c0,0.1,0.1,0.3,0.2,0.1C609.5,246.6,609.3,246.6,609.3,246.8z"/>
			<path class="st7" d="M467.6,300c0-0.1,0-0.3,0-0.3C467.5,299.7,467.5,300.1,467.6,300z"/>
			<path class="st7" d="M520.8,171.1C520.9,171.1,520.9,171.1,520.8,171.1C520.8,171.1,520.8,171.1,520.8,171.1z"/>
			<path class="st7" d="M520.8,171.1c0.1-0.1,0-0.5-0.4-0.5C519.6,170.5,520.7,171.2,520.8,171.1z"/>
			<path class="st7" d="M503.3,132.2c-0.2-0.1-0.5-0.4-0.5-0.3C502.8,132.2,503.2,132.4,503.3,132.2z"/>
			<path class="st7" d="M439.3,279.4c0.1,0,0.2-0.2,0-0.3C439.1,279.1,439.2,279.3,439.3,279.4z"/>
			<path class="st7" d="M643.7,181c0.1,0.2,0.2,0.6,0.4,0.4C644.2,181.1,643.9,180.7,643.7,181z"/>
			<path class="st7" d="M467.4,306.6c0.1,0.1,0.2,0,0.1-0.1C467.5,306.4,467.4,306.4,467.4,306.6z"/>
			<path class="st7" d="M332.5,178c0,0,0.1-0.1,0.1-0.1C332.7,177.6,332,178.3,332.5,178z"/>
			<path class="st7" d="M488.3,329.6C488.2,329.6,488.3,329.7,488.3,329.6C488.3,329.6,488.3,329.6,488.3,329.6z"/>
			<path class="st7" d="M488.3,329.7c0.2,0.5,0.5,0.5,0.8,0.5C488.9,329.8,488.6,329.7,488.3,329.7z"/>
			<path class="st7" d="M516.7,166.8c-0.1,0.1,0.1,0.3,0.1,0.3C516.8,167.1,516.9,166.6,516.7,166.8z"/>
			<path class="st7" d="M466.9,158.1c0-0.1,0-0.1,0-0.1C466.9,158,466.9,158,466.9,158.1C466.9,158,466.9,158,466.9,158.1
				C466.9,158.1,466.9,158.1,466.9,158.1z"/>
			<path class="st7" d="M441.7,280.3c0,0,0.1,0,0.1,0.1C441.8,280.3,441.7,280.2,441.7,280.3z"/>
			<path class="st7" d="M465.7,294.3c0.1,0,0.1,0,0-0.1C465.7,294.2,465.7,294.3,465.7,294.3z"/>
			<path class="st7" d="M517.9,120.2c0.1,0,0.1,0.1,0.2,0.1C518.1,120.4,518,120.3,517.9,120.2z"/>
			<path class="st7" d="M457.9,113.1c-0.1,0-0.1,0-0.2,0C457.7,113.1,457.8,113.1,457.9,113.1z"/>
			<path class="st7" d="M643.7,172.6C643.7,172.6,643.7,172.7,643.7,172.6C643.8,172.7,643.8,172.7,643.7,172.6z"/>
			<path class="st7" d="M643.6,172.8C643.6,172.9,643.6,172.8,643.6,172.8C643.6,172.7,643.5,172.8,643.6,172.8z"/>
			<path class="st7" d="M316.1,171.2c0.3,0.3-1.3,1-0.7,1.1C316.7,172.5,318.3,170.4,316.1,171.2z"/>
			<path class="st7" d="M338.5,190c0.1,0,0.2,0,0.3,0.1C338.8,189.9,338.9,189.7,338.5,190z"/>
			<path class="st7" d="M496.8,179.7c0,0.1,0,0.2,0,0.3C497,180,497,179.9,496.8,179.7z"/>
			<path class="st7" d="M487.5,130.2c-0.1,0-0.2,0.2-0.2,0.2C487.4,130.5,487.8,130.4,487.5,130.2z"/>
			<path class="st7" d="M453.9,119.4c0-0.1,0-0.1-0.1-0.2C453.7,119.4,453.7,119.4,453.9,119.4z"/>
		</g>
		<g class="st5">
			<path class="st6" d="M364.6,340.4c11.7-16.9,23.8-33.5,36.2-49.8c6.2-8.1,12.6-16.2,18.8-24.4c6.2-8.2,12.2-16.5,18.2-24.8
				c6-8.3,12-16.7,18.1-24.9c6.1-8.3,12.1-16.6,18.3-24.8c12.3-16.4,24.8-32.7,37.6-48.8l0.2,0.1c-11.8,16.8-23.8,33.5-36,50
				c-6.1,8.3-12.3,16.4-18.5,24.6c-6.2,8.2-12.4,16.3-18.7,24.5c-6.3,8.1-12.5,16.3-18.6,24.6c-6.1,8.3-12,16.7-18,25
				c-12.1,16.6-24.6,32.9-37.4,49L364.6,340.4z"/>
		</g>
		<g class="st5">
			<text transform="matrix(1 0 0 1 453.0111 57.2253)"><tspan x="0" y="0" class="st14 st15">41.4086874,</tspan><tspan x="0" y="12" class="st14 st15">-75.6621294</tspan></text>
		</g>
		<line class="st2" x1="448.4" y1="237.7" x2="448.4" y2="73.2"/>
		<circle class="st5" cx="448.4" cy="73.2" r="2.6"/>
	</g>
</g>
</svg>
