<?xml version="1.0" encoding="utf-8"?>
<!-- Generator: Adobe Illustrator 24.1.2, SVG Export Plug-In . SVG Version: 6.00 Build 0)  -->
<svg version="1.1" xmlns="http://www.w3.org/2000/svg" xmlns:xlink="http://www.w3.org/1999/xlink" x="0px" y="0px"
	 viewBox="0 0 800 360" style="enable-background:new 0 0 800 360;" xml:space="preserve">
<style type="text/css">
	.st0{display:none;}
	.st1{display:inline;}
	.st2{fill:#569B78;}
	.st3{fill:#3F7759;}
	.st4{fill:#0F724E;}
	.st5{fill:#175B3E;}
	.st6{fill:#12724B;}
	.st7{fill:#168E60;}
	.st8{fill:#89CEAB;}
	.st9{fill:#009966;}
	.st10{fill:#82CEA8;}
	.st11{fill:#1EAF7B;}
	.st12{fill:#6ABF96;}
	.st13{fill:#B6E0C8;}
	.st14{fill:#9FE2BD;}
	.st15{enable-background:new    ;}
	.st16{clip-path:url(#SVGID_2_);}
	.st17{display:inline;fill:#89CEAB;}
	.st18{display:inline;fill:#FFFFFF;}
	.st19{font-family:'Roboto-Regular';}
	.st20{font-size:10px;}
	.st21{clip-path:url(#SVGID_4_);fill:#E3F5ED;}
	.st22{clip-path:url(#SVGID_4_);}
	.st23{clip-path:url(#SVGID_4_);fill:#B8E8CB;}
	.st24{clip-path:url(#SVGID_4_);fill:#3F7759;}
	.st25{clip-path:url(#SVGID_4_);fill:none;stroke:#3F7759;stroke-linecap:round;stroke-linejoin:round;stroke-miterlimit:10;}
	.st26{fill:#62A881;}
	.st27{fill:#B8E8CB;}
	.st28{fill:#498261;}
	.st29{clip-path:url(#SVGID_4_);fill:none;}
	.st30{clip-path:url(#SVGID_4_);fill-rule:evenodd;clip-rule:evenodd;fill:#CCE2D7;}
	.st31{fill-rule:evenodd;clip-rule:evenodd;fill:#9BC9B1;}
</style>
<g id="Background">
</g>
<g id="Perspective_guide">
</g>
<g id="Desk_and_Poster">
</g>
<g id="Person">
</g>
<g id="Layer_6">
</g>
<g id="Layer_7">
	<g class="st0">
		<g class="st1">
			<g id="XMLID_9_">
				<g>
					<polygon class="st2" points="496.3,38.9 493.1,40.8 492.8,40.8 468.7,37 447.9,66.8 447.7,67.1 444.8,68.7 444.8,68.7 
						468.7,34.6 496.3,38.9 					"/>
					<polygon class="st3" points="496.3,38.9 496.3,38.9 468.7,34.6 424.5,9.1 452.1,13.4 					"/>
					<path class="st4" d="M455.9,119.1v0.9l10.6-6.1v0V97.1l-0.7,0.4l-9.9,5.7V119.1z M474.2,68.4v0.9l10.6-6.1v0V46.4l-0.7,0.4
						l-9.9,5.7V68.4z M474.2,108.5v0.9l10.6-6.1v0V86.6L484,87l-9.9,5.7V108.5z M447.9,119.7L447.9,119.7l0-22.7v-6.6l0-23.6l0,0
						L468.7,37l24,3.8v66.8l-44.8,25.9l0-12.9V119.7z M455.9,79v0.9l10.6-6.1v0V57l-0.7,0.4l-9.9,5.7V79z"/>
					<polygon class="st5" points="484.8,103.3 484.8,103.3 474.2,109.4 474.2,108.5 484,102.8 					"/>
					<polygon class="st6" points="484.8,86.6 484.8,103.3 484,102.8 484,87 					"/>
					<polygon class="st5" points="484.8,63.2 484.8,63.2 474.2,69.3 474.2,68.4 484,62.7 					"/>
					<polygon class="st6" points="484.8,46.4 484.8,63.2 484,62.7 484,46.9 					"/>
					<polygon class="st7" points="484,87 484,102.8 474.2,108.5 474.2,92.7 					"/>
					<polygon class="st7" points="484,46.9 484,62.7 474.2,68.4 474.2,52.6 					"/>
					<path class="st8" d="M418.8,53.8l-5.9-3.4l-0.7-0.4v0l-5.3-3.1l-6.3-3.7c20.8-29.6,24-34.2,24-34.2l44.2,25.5l-23.9,34.1l0,0
						l0,0l-2.1-1.2l-5.8-3.4l-0.8-0.4l-2.6-1.5l-1.5-0.8l-9.8-5.6v0l-0.7-0.4L418.8,53.8z M416.2,33.2l1.6,0.9l1.5-0.4l0,0.1V43
						l14.6,8.4v-8l0,0l1.5,0.9l0,0l0,0l1.4-0.8l-2.1-18.4l-17.2,7.3L416.2,33.2L416.2,33.2z"/>
					<polygon class="st5" points="466.5,113.8 466.5,113.9 455.9,120 455.9,119.1 465.7,113.4 					"/>
					<polygon class="st6" points="466.5,97.1 466.5,113.8 465.7,113.4 465.7,97.5 					"/>
					<polygon class="st5" points="466.5,73.7 466.5,73.8 455.9,79.9 455.9,79 465.7,73.3 					"/>
					<polygon class="st6" points="466.5,57 466.5,73.7 465.7,73.3 465.7,57.4 					"/>
					<polygon class="st7" points="465.7,97.5 465.7,113.4 455.9,119.1 455.9,103.2 					"/>
					<polygon class="st7" points="465.7,57.4 465.7,73.3 455.9,79 455.9,63.1 					"/>
					<polygon class="st9" points="412.2,63.6 412.2,63.6 418.8,67.5 418.8,66.5 418.8,53.8 421.4,55.3 421.4,68.9 421.4,69 
						433.4,75.9 433.4,75 433.4,62.2 436.1,63.7 436.1,77.4 436.1,77.4 442.6,81.3 442.6,80.3 442.6,67.6 442.7,67.6 444.7,68.7 
						444.7,68.7 444.8,68.7 444.8,68.7 447.7,67.1 447.9,66.8 447.9,66.8 447.9,90.4 447.9,90.4 406.9,66.7 406.9,66.7 406.9,46.9 
						412.2,50 412.2,50 					"/>
					<polygon class="st2" points="425.2,110.1 422.3,111.8 422,112 447.9,90.4 447.9,90.4 447.9,97 447.9,97 438.7,102.3 434,105.1 
						434,105.1 433.2,105.5 430,107.3 428.7,108.1 426.8,109.2 					"/>
					<polygon class="st9" points="447.9,97 447.9,119.7 446.3,118.7 444.7,119.6 444.7,105.8 438.7,102.3 447.9,97 					"/>
					<polygon class="st10" points="447.9,119.7 447.9,119.7 428.7,130.8 428.7,128.9 434.2,125.6 441.8,121.3 442.5,120.9 
						444.7,119.6 446.3,118.7 					"/>
					<polygon class="st2" points="436.8,127.1 436.8,127.1 435.2,128 433.6,128.9 432.5,129.5 430.9,130.4 429.5,131.3 428.7,131.8 
						428.7,130.8 447.9,119.7 447.9,120.6 447.9,120.6 445.2,122.2 443.7,123.1 442.1,124 441,124.6 439.4,125.6 437.8,126.5 					
						"/>
					<polygon class="st9" points="447.9,120.6 447.9,133.5 445.3,132 445.3,132 445.3,122.2 445.2,122.2 447.9,120.6 					"/>
					<polygon class="st8" points="421.5,111.7 407.4,103.5 407.4,103.5 405.8,102.6 404.2,101.7 403.2,101.1 403,101 402.1,100.5 
						400.4,99.5 389.1,92.9 387.4,92 385.8,91 381,88.2 406.9,66.7 406.9,66.7 447.9,90.4 422,112 					"/>
					<polygon class="st10" points="447.9,133.5 445.3,135 445.3,132 445.3,132 					"/>
					<polygon class="st2" points="445.3,132 445.3,135 443.7,135.9 443.7,123.1 443.7,123.1 445.2,122.2 445.3,122.2 					"/>
					<polygon class="st11" points="444.7,105.8 444.7,119.6 442.5,120.9 442.5,120.8 434,115.8 434,105.1 434,105.1 438.7,102.3 
											"/>
					<polygon class="st12" points="443.7,123.1 443.7,135.9 443.6,136 442.1,135.1 442.1,130.1 442.1,124 442.1,124 443.7,123.1 
											"/>
					<polygon class="st10" points="442.1,135.1 443.6,136 441,137.5 441,129.6 441.1,129.6 442.1,130.1 					"/>
					<polygon class="st11" points="436.8,64.2 442.7,67.6 442.6,67.6 442.6,80.3 442.6,80.3 436.8,77 					"/>
					<polygon class="st12" points="442.6,80.3 442.6,81.3 436.1,77.4 436.1,77.4 436.8,77 436.8,77 442.6,80.3 					"/>
					<polygon class="st2" points="442.5,120.8 442.5,120.9 441.8,121.3 433.2,116.3 433.2,116.3 434,115.8 					"/>
					<polygon class="st9" points="442.1,124 442.1,130.1 441.1,129.6 441,129.6 441,124.7 441,124.6 442.1,124 					"/>
					<polygon class="st9" points="441.8,121.3 434.2,125.6 434.2,125.6 430,123.2 430,122.3 430,107.3 433.2,105.5 433.2,116.3 
						433.2,116.3 					"/>
					<polygon class="st2" points="441,129.6 441,137.5 439.4,138.4 439.4,125.6 439.4,125.6 441,124.6 441,124.7 					"/>
					<polygon class="st12" points="439.4,125.6 439.4,138.4 439.4,138.4 437.8,137.5 437.8,127.7 437.8,126.5 437.8,126.5 
						439.4,125.6 					"/>
					<polygon class="st10" points="439.4,138.4 435.2,140.8 435.2,140.8 435.2,140.8 436.8,139.9 436.8,127.1 436.8,127.1 
						437.8,127.7 437.8,137.5 					"/>
					<polygon class="st9" points="437.8,126.5 437.8,127.7 436.8,127.1 437.8,126.5 					"/>
					<polygon class="st2" points="434.8,25.1 436.9,43.5 435.5,44.2 425.9,30.2 425.9,30.2 					"/>
					<polygon class="st7" points="436.8,64.2 436.8,77 436.8,77 436.1,77.4 436.1,63.7 					"/>
					<polygon class="st2" points="436.8,127.1 436.8,139.9 435.2,140.8 435.2,128 					"/>
					<polygon class="st8" points="435.5,44.2 435.5,44.3 435.5,44.3 					"/>
					<polygon class="st13" points="435.5,44.2 435.5,44.3 433.9,43.4 433.9,43.4 425.9,31.7 419.3,33.7 417.8,34.1 416.2,33.2 
						416.2,33.1 425.9,30.2 425.9,30.2 					"/>
					<polygon class="st10" points="435.2,140.8 432.5,142.4 432.5,129.5 432.5,129.5 433.6,128.9 433.6,139.9 435.2,140.8 
						435.2,140.8 					"/>
					<polygon class="st12" points="435.2,128 435.2,140.8 435.2,140.8 435.2,140.8 433.6,139.9 433.6,128.9 					"/>
					<polygon class="st14" points="434.8,25.1 425.9,30.2 425.9,30.2 425.9,30.2 416.2,33.1 417.6,32.3 					"/>
					<polygon class="st10" points="434.2,125.6 434.2,125.6 428.7,128.9 428.7,121.5 430,122.3 430,123.2 					"/>
					<polygon class="st7" points="434,105.1 434,115.8 433.2,116.3 433.2,116.3 433.2,116.3 433.2,105.5 					"/>
					<polygon class="st9" points="433.9,43.4 433.9,43.4 433.9,43.4 433.9,51.4 419.3,43 419.3,33.8 419.3,33.7 425.9,31.7 					"/>
					<polygon class="st12" points="433.4,75 433.4,75.9 421.4,69 421.4,68.9 422.2,68.5 433.4,75 					"/>
					<polygon class="st11" points="433.4,62.2 433.4,75 433.4,75 422.2,68.5 422.2,55.7 431.9,61.4 					"/>
					<polygon class="st2" points="432.5,129.5 432.5,142.4 430.9,143.3 430.9,130.4 432.5,129.5 					"/>
					<polygon class="st2" points="432.5,142.4 430.9,143.3 430.9,143.3 					"/>
					<polygon class="st12" points="430.9,130.4 430.9,143.3 430.9,143.3 430.9,143.3 429.5,142.5 429.5,131.3 429.5,131.3 					"/>
					<polygon class="st10" points="429.5,142.5 430.9,143.3 428.7,144.6 428.7,131.8 429.5,131.3 429.5,131.3 					"/>
					<polygon class="st11" points="430,107.3 430,122.3 428.7,121.5 428.7,108.1 					"/>
					<polygon class="st2" points="426.8,145.7 426.8,109.2 428.7,108.1 428.7,121.5 428.7,128.9 428.7,130.8 428.7,131.8 
						428.7,144.6 426.8,145.7 					"/>
					<polygon class="st12" points="426.8,109.2 426.8,145.7 425.2,144.8 425.2,131.9 425.2,130.8 425.2,128.9 425.2,119.5 
						425.2,110.1 					"/>
					<polygon class="st10" points="425.2,131.9 425.2,144.8 422.6,143.3 424.5,142.2 424.5,131.6 424.5,131.5 					"/>
					<polygon class="st12" points="425.2,130.8 425.2,131.9 424.5,131.5 422.6,130.4 421,129.5 420.3,129.1 418.4,128 416.8,127.1 
						416.1,126.7 414.2,125.5 412.6,124.6 401.8,118.4 400.2,117.5 398.5,116.5 397.6,116 395.9,115 394.3,114.1 393.3,113.5 
						391.6,112.5 390,111.6 389.1,111.1 387.4,110.1 387.4,109 					"/>
					<polygon class="st10" points="425.2,128.9 425.2,130.8 387.4,109 389.1,108 390,108.6 391.5,109.4 393.1,110.3 394.8,111.3 
						395.6,111.8 397.3,112.8 398.9,113.7 399.5,114.1 					"/>
					<polygon class="st10" points="425.2,119.5 425.2,128.9 399.5,114.1 400,113.8 400,113.8 401.6,114.8 403.2,113.9 403.2,112.1 
						403.2,112 403.2,112 404.2,111.4 405.8,112.3 407.4,111.4 407.4,110.1 421.5,118.3 422.3,117.9 					"/>
					<polygon class="st11" points="425.2,110.1 425.2,119.5 422.3,117.9 422.3,111.8 					"/>
					<polygon class="st2" points="424.5,131.5 424.5,131.6 424.5,142.2 422.6,143.3 422.6,143.3 422.6,130.4 422.6,130.4 					"/>
					<polygon class="st12" points="422.6,130.4 422.6,130.4 422.6,143.3 421,142.4 421,129.5 421,129.5 					"/>
					<polygon class="st7" points="422.3,111.8 422.3,117.9 421.5,118.3 421.5,111.7 422,112 					"/>
					<polygon class="st7" points="422.2,55.7 422.2,68.5 421.4,68.9 421.4,55.3 422.2,55.7 					"/>
					<polygon class="st9" points="421.5,111.7 421.5,118.3 407.4,110.1 407.4,103.5 					"/>
					<polygon class="st10" points="420.3,129.1 421,129.5 421,129.5 421,142.4 418.4,140.8 418.4,140.8 420.3,139.7 					"/>
					<polygon class="st2" points="420.3,129.1 420.3,139.7 418.4,140.8 418.4,128 					"/>
					<polygon class="st12" points="418.8,66.5 418.8,67.5 412.2,63.6 412.2,63.6 412.9,63.2 418.7,66.5 					"/>
					<polygon class="st11" points="418.8,53.8 418.8,66.5 418.7,66.5 412.9,63.2 412.9,50.4 					"/>
					<polygon class="st10" points="418.4,140.8 418.4,140.8 414.2,138.4 416.1,137.3 416.1,126.7 416.1,126.7 416.8,127.1 
						416.8,139.9 					"/>
					<polygon class="st12" points="418.4,128 418.4,140.8 416.8,139.9 416.8,127.1 					"/>
					<polygon class="st2" points="416.1,126.7 416.1,126.7 416.1,137.3 414.2,138.4 414.1,138.4 414.1,125.6 414.2,125.5 					"/>
					<polygon class="st12" points="414.2,125.5 414.1,125.6 414.1,138.4 412.5,137.5 412.5,124.7 412.6,124.6 					"/>
					<polygon class="st7" points="412.9,50.4 412.9,63.2 412.2,63.6 412.2,50 					"/>
					<polygon class="st10" points="412.6,124.6 412.5,124.7 412.5,137.5 400.2,130.3 401.8,129.4 401.8,118.4 401.8,118.4 					"/>
					<polygon class="st2" points="407.4,110.1 407.4,111.4 405.8,112.3 405.8,102.6 407.4,103.5 407.4,103.5 					"/>
					<polygon class="st12" points="405.8,102.6 405.8,112.3 404.2,111.4 404.2,101.7 					"/>
					<polygon class="st2" points="403.2,112.1 403.2,113.9 401.6,114.8 401.6,101.9 403,101 403,101 403.2,101.1 403.2,112 					"/>
					<polygon class="st2" points="403,101 403,101 401.6,101.9 400,102.8 398.9,103.4 397.3,104.3 395.6,105.3 395.6,105.3 
						394.8,105.8 393.1,106.8 391.5,107.7 391.5,107.7 390,108.5 390,108.6 389.1,108 402.1,100.5 					"/>
					<polygon class="st10" points="402.1,100.5 389.1,108 389.1,106 400.4,99.5 400.4,99.5 					"/>
					<polygon class="st2" points="401.8,118.4 401.8,129.4 400.2,130.3 400.2,117.5 400.2,117.5 401.8,118.4 					"/>
					<polygon class="st12" points="401.6,101.9 401.6,114.8 400,113.8 400,113.8 400,113.8 400,102.8 					"/>
					<polygon class="st12" points="400.2,117.5 400.2,117.5 400.2,130.3 398.5,129.4 398.5,116.5 398.5,116.5 					"/>
					<polygon class="st2" points="398.9,103.4 398.9,113.7 397.3,112.8 397.3,104.3 					"/>
					<polygon class="st10" points="398.5,116.5 398.5,129.4 395.9,127.9 397.6,126.9 397.6,117.1 					"/>
					<polygon class="st2" points="397.6,116 397.6,116 397.6,117.1 397.6,126.9 395.9,127.9 395.9,127.9 395.9,115.1 395.9,115 
											"/>
					<polygon class="st12" points="397.3,104.3 397.3,112.8 395.6,111.8 395.6,105.3 395.6,105.3 					"/>
					<polygon class="st12" points="394.3,114.1 395.9,115 395.9,115.1 395.9,127.9 394.2,126.9 394.2,119 394.2,114.1 					"/>
					<polygon class="st2" points="394.8,105.8 394.8,111.3 394.8,111.3 393.1,110.3 393.1,110.3 393.1,106.8 					"/>
					<polygon class="st10" points="394.2,119 394.2,126.9 391.6,125.4 393.3,124.4 393.3,119.6 394.2,119 					"/>
					<polygon class="st2" points="393.3,113.5 393.3,113.5 393.3,119.6 393.3,124.4 391.6,125.4 391.6,125.4 391.6,112.6 
						391.6,112.5 					"/>
					<polygon class="st12" points="393.1,106.8 393.1,110.3 393.1,110.3 391.5,109.4 391.5,109.3 391.5,107.7 391.5,107.7 					"/>
					<polygon class="st12" points="390,111.6 391.6,112.5 391.6,112.6 391.6,125.4 389.9,124.4 389.9,119.6 389.9,111.6 					"/>
					<polygon class="st10" points="389.9,119.6 389.9,124.4 387.4,123 389.1,122 389.1,120.1 					"/>
					<polygon class="st2" points="389.1,92.9 389.1,93 389.1,106 389.1,108 387.4,109 387.4,92 387.4,92 					"/>
					<polygon class="st2" points="389.1,120.1 389.1,122 387.4,123 387.4,110.1 389.1,111.1 389.1,111.1 					"/>
					<polygon class="st12" points="385.8,91 387.4,92 387.4,92 387.4,109 387.4,110.1 387.4,123 385.8,122 385.8,121.8 385.8,109.2 
						385.8,91.1 					"/>
				</g>
				<g>
				</g>
			</g>
			<g>
				<g>
					<g class="st15">
						<defs>
							<polygon id="SVGID_1_" class="st15" points="423.1,41.7 423.1,35.3 428.7,38.5 428.7,45 							"/>
						</defs>
						<clipPath id="SVGID_2_">
							<use xlink:href="#SVGID_1_"  style="overflow:visible;"/>
						</clipPath>
						<g class="st16">
							<g>
								<g>
									<g>
										<path class="st11" d="M425.9,36.9c-1.6-0.9-2.8-0.2-2.8,1.6c0,1.8,1.2,4,2.8,4.9c1.6,0.9,2.8,0.2,2.8-1.6
											C428.7,40,427.5,37.8,425.9,36.9"/>
									</g>
								</g>
							</g>
						</g>
					</g>
				</g>
			</g>
			<g id="XMLID_7_">
				<g>
					<polygon class="st4" points="492.7,107.6 492.7,110.1 447.9,136.2 447.9,136.1 447.9,133.5 					"/>
					<polygon class="st2" points="447.9,136.1 447.9,136.2 426.8,148.5 426.8,145.7 447.9,133.5 					"/>
					<polygon class="st12" points="426.8,145.7 426.8,148.5 385.8,124.9 385.8,124.9 385.8,122 					"/>
				</g>
				<g>
				</g>
			</g>
		</g>
		<g class="st1">
			<g id="XMLID_1_">
				<g>
					<polygon class="st2" points="507.3,64.4 528,97.8 526.5,98.6 488.1,120.8 486.6,118.5 467.4,87.5 					"/>
					<polygon class="st4" points="526.5,129.5 526.5,129.6 486.6,152.5 486.6,118.5 488.1,120.8 526.5,98.6 					"/>
					<polygon class="st9" points="486.6,118.5 486.6,152.5 483,150.4 483,149.4 483,122.1 457.7,107.5 456.6,106.9 456.6,135.5 
						453,133.4 453,99 467.4,87.5 					"/>
					<polygon class="st11" points="483,122.1 483,149.4 482.8,149.4 457.7,134.9 457.7,107.6 457.7,107.5 					"/>
					<polygon class="st7" points="456.6,106.9 457.7,107.5 457.7,107.6 457.7,134.9 456.6,135.5 					"/>
				</g>
				<g>
				</g>
			</g>
		</g>
		<polygon class="st17" points="467.4,87.5 453,99 453,100.7 467.4,89.3 486.8,120.1 488.1,120.8 		"/>
	</g>
	<g class="st0">
		<path class="st18" d="M607.3,148.6h-58.4c-2.6,0-4.8-2.1-4.8-4.8v-19.3c0-2.6,2.1-4.8,4.8-4.8h58.4c2.6,0,4.8,2.1,4.8,4.8v19.3
			C612.1,146.5,610,148.6,607.3,148.6z"/>
		<text transform="matrix(1 0 0 1 550.5526 131.1601)" class="st1"><tspan x="0" y="0" class="st19 st20">41.4086874,</tspan><tspan x="-0.4" y="12" class="st19 st20">-75.6621294</tspan></text>
	</g>
</g>
<g id="Layer_8">
</g>
<g id="Layer_9">
	<g>
		<defs>
			<rect id="SVGID_3_" x="-0.1" y="-0.5" width="800.2" height="360.9"/>
		</defs>
		<clipPath id="SVGID_4_">
			<use xlink:href="#SVGID_3_"  style="overflow:visible;"/>
		</clipPath>
		<rect x="-0.1" y="-0.5" class="st21" width="800.2" height="360.9"/>
		<g class="st22">
			<g>
				<g id="XMLID_2_">
					<g>
						<polygon class="st3" points="753.3,284 753.3,303.1 612.5,350.3 612.5,329.2 						"/>
						<polygon class="st8" points="753.3,284 612.5,329.2 46.7,233.6 205.2,204.2 						"/>
						<polygon class="st2" points="612.5,329.2 612.5,350.3 46.7,250.4 46.7,233.6 						"/>
					</g>
					<g>
					</g>
				</g>
			</g>
		</g>
		<g id="XMLID_3_" class="st22">
			<g>
				<polygon class="st3" points="78.2,256 78.2,448.2 65.7,448.2 65.7,253.8 				"/>
				<polygon class="st2" points="65.7,253.8 65.7,448.2 46.7,448.2 46.7,250.4 65.6,253.8 				"/>
			</g>
			<g>
			</g>
		</g>
		<g id="XMLID_4_" class="st22">
			<g>
				<polygon class="st3" points="753.3,303.1 753.3,448.2 746.9,447.6 746.9,305.3 				"/>
				<polygon class="st2" points="746.9,305.3 746.9,447.6 729,448.2 729,311.2 				"/>
				<polygon class="st3" points="627,345.5 627,448.2 612.5,448.2 612.5,350.3 				"/>
				<polygon class="st2" points="612.5,350.3 612.5,448.2 592.8,448.2 592.8,346.9 				"/>
			</g>
			<g>
			</g>
		</g>
		<path class="st23" d="M285.4,98.8c3.7,1.6,7.2,3,10,1.5c1.5-0.8,1-1.4,4.2-4.9c3.1-3.3,3.9-3.1,6.1-5.9c1.4-1.8,1.5-2.5,2.8-3.2
			c2.2-1.2,3.9,0,5.1-1.1c1.4-1.3-0.4-3.4,0.2-6.8c0.6-3.5,3.1-4.1,5.3-8.1c1.1-1.9,2.6-5.7,2.6-10.2L313,46.6l-15-2.3l-24.5,9
			l-4.6,19.3l5.3,18.8c2.2,2,4.3,3.5,6.2,4.7"/>
		
			<ellipse transform="matrix(0.7542 -0.6566 0.6566 0.7542 31.2625 223.1976)" class="st24" cx="313.8" cy="69.8" rx="2.2" ry="1.4"/>
		<path class="st25" d="M318.6,64.6c-0.4-0.3-1-0.8-1.9-1.1c-1.7-0.6-3.2-0.2-3.7,0"/>
		<g id="Hair" class="st22">
			<path class="st3" d="M301.3,52.6c4.3,0.1,7.2,1.1,9.2,2.1c2.7,1.3,3.7,2.7,6.8,4c2.9,1.3,5.6,1.7,7.5,1.8
				c0.6-2.9,1.3-7.3,0.7-12.7c-1.2-10.9-6.6-18-7.9-19.5c-5.1-6.4-11.1-9.5-14.4-10.9c-2-0.8-5.1-1.8-8.9-2.4
				c-12.7-1.9-22.6,3-26,4.8c-5.6,3-9,6.6-9.9,7.5c-3.2,3.4-4.9,6.4-7.9,12c-4.8,8.9-3.8,9.5-7.2,14.7c-3.8,6-8.1,9.7-10.6,12
				c-4.3,3.8-8.4,6.4-11.6,8.2c1.2,1.6,2.5,3.2,3.7,4.9l10,8.8l38.8,10.3c0-2.1,0.2-4.8,0.6-7.8c0.8-4.8,2-8.4,2.5-9.8
				c0.9-2.4,1.4-3.3,3.8-8.1c1.2-2.4,2.7-5.5,4.5-9.3c-1,3-2.3,7.3-3.2,12.7c-0.5,3.4-0.7,5.9-1.1,10.4c-0.3,3.6-0.5,8.5-0.6,14.4
				c1.7,0.3,3.4,0.6,5.1,0.8c0-1.4,0.1-3.4,0.4-5.7c0.6-4.7,1.6-7.9,3.6-14.2c2.9-9.1,4.4-13.7,4.7-14.4c0.6-1.5,2.8-6.8,6.6-13.4"
				/>
		</g>
		<g id="Legs" class="st22">
			<path class="st26" d="M255.3,377.6c4-17.4,7.8-36,11-55.6c3.3-20.1,5.8-39.3,7.7-57.5l-52.9-20.4l-33.3,0
				c-1.4,6.9-3.2,17.4-4.5,30.5c-0.7,7.5-0.6,9.3-1.8,32.3c-1.3,23.9-1.5,25.4-1.7,33.4c-0.2,12.7,0.3,23.5,0.8,31.7L255.3,377.6z"
				/>
			<path class="st3" d="M274.1,264.4l3.3,0.1c15.7,19.4,31.7,44.7,42.2,76.6c2.5,7.6,4.1,13.3,4.3,14.9c1.2,7.7,0.7,14.1,0.2,18.1
				l-68.7,3.4"/>
		</g>
		<g id="Body" class="st22">
			<g>
				<path class="st27" d="M371.3,260.1c0.3,1.2-3.2,3.2-5.7,4.1c-2.5,0.9-6,1-13,1c-0.2,0-6.4,0-6.8,0c0-0.5,0-1-0.3-1.4
					c-0.8-1.2-2.8-1-6.3-1.1c-1.9-0.1-4.6-0.3-7.9-0.8l14.5,3.4c-0.1,0.8-0.4,1.7-0.9,2.4c-2.3,3.2-8.4,2.5-16.3,1.4
					c-7.2-1-10.9-1.5-13.7-3.5c-3.5-2.4-5.1-6-8.2-13c-3.3-7.5-3.5-10.1-6.2-16.8c-1.5-3.7-3.9-8.9-7.8-15
					c1.2-13.8-0.1-14.4-0.1-25.2l0.5-12.1c0-0.1,0-0.3,0-0.4l0.8-9.9c0-0.4,0.1-0.7,0.1-1.1c0.3-2.9,0.6-5.7,0.8-8.8
					c0-0.1,0-0.1,0-0.2c7.8,13.1,11.8,24.5,13.9,32.5c4.8,17.7,5.8,28.3,5.8,28.3s1.2,12.6,6.9,26.7c0.5,1.2,1.4,3.4,3.6,5
					c3.6,2.5,7.2,0.9,13.8,0.7c7.3-0.2,6.5,1.6,18.1,2.6C366,259.5,371,258.7,371.3,260.1z"/>
				<path class="st27" d="M345.6,263.8c0.2,0.4,0.3,0.9,0.3,1.4l-14.5-3.4c3.3,0.6,6,0.8,7.9,0.8
					C342.8,262.8,344.9,262.6,345.6,263.8z"/>
				<path class="st2" d="M221.2,122.6c0,0-0.1-0.1-0.2-0.4c-0.1-0.1-0.2-0.3-0.3-0.5c-0.4-0.8-1.1-2.1-1.9-3.7c0,0,0-0.1-0.1-0.1
					c-1.9-3.6-4.7-8.9-7.7-14.1c-2.2-3.8-4-6.4-5.3-8.3c0-0.1-0.1-0.1-0.1-0.2c-2-2.9-2.8-4.1-2.2-5.8c1.2-3.8,6.5-2.5,17.5-7.5
					c9.6-4.4,11.3-7.9,18.2-8.6c4.1-0.4,7.7,0.3,10.5,1.3c1.3,0.4,2.4,1.1,3.4,2.1c3.2,3.1,7.4,7.3,12.2,12.4
					c5.2,5.6,10.4,11.1,16.4,18.9c6.5,8.6,9.8,12.8,11.9,18.6c2,5.5,2.4,10.3,2.1,22.1c-0.1,5.9-0.4,10.4-0.7,14.3
					c0,0.1,0,0.1,0,0.2L294,172c0,0.4-0.1,0.7-0.1,1.1c-0.3,3-0.6,6.1-0.8,9.9c0,0.1,0,0.3,0,0.4c0,0.7-0.1,1.5-0.1,2.3
					c-0.2,4.1-0.3,7.2-0.3,9.8l0,0.4l0.1,24.9c-0.9,10-2.4,18.3-0.2,30.1c1,5.3,2.3,9.6,3.3,12.4c-5.8,1-14.5,1.9-24.8,1
					c-11-1-12.8-3.1-28.8-6.9c-22.9-5.5-29.3-3.7-46.8-10.2c-6.6-2.4-11.9-5-15.3-6.8c0.8-4.1,1.9-9.7,3.3-16.2
					c1.8-8.3,2.9-13.4,4.8-20c2.6-9.4,3.6-11,6.2-20.5c1.7-6.2,2.9-11.4,3.6-14.8l0.2-0.2c6.9,5.6,15,12.5,24,20.8
					c-5.6,7.8-10.9,12.2-14.9,14.9c-2.2,1.4-5.6,3.4-6.7,7.2c-0.3,1.1-0.2,3.3,0,7.7c0.2,4.2,0.4,5,0.9,5.8c1.5,2.6,4.3,3.4,5.2,3.7
					c3.3,1,6.2,0,7.1-0.3c1.7-0.7,2.2-1.4,6.1-5.2c5.2-5.1,6.5-6.2,8.5-7c1.1-0.4,4.6-1.9,6.3-0.4c1,0.8,0.7,2,0.9,5.8
					c0.2,3.3,0.5,7.8,1.5,8c0.9,0.2,2.3-2.7,3.1-5.2c1.4-4.7,0.1-6.8,0.3-13.8c0.2-4.9,0.9-4.6,0.8-8.9c-0.1-5.8-1.4-10.1-1.7-10.9
					c-1.6-5.1-4.3-8.4-6.2-10.9c-2.7-3.6-10.9-14.4-16.3-24.8c-4.8-9.2-3.9-11.6-8.6-17.8c-0.4-0.6-0.9-1.1-1.3-1.6l0,0
					c0.5-1.6,0.9-3.3,1.4-5C212.8,128.1,217,125.4,221.2,122.6z"/>
				<path class="st2" d="M294,172l0.8-8.8C294.6,166.3,294.3,169.1,294,172z"/>
				<path class="st2" d="M292.6,195.5c-0.1,10.8,1.3,11.5,0.1,25.2l-0.1-24.9L292.6,195.5z"/>
				<path class="st27" d="M204.7,133.2c-2.7-2.7-5.4-4.7-7.5-6.1L204.7,133.2z M204.8,133.2c0.8,0.8,1.6,1.7,2.4,2.6
					c0.5,0.5,0.9,1.1,1.3,1.6c4.8,6.2,3.9,8.5,8.6,17.8c5.4,10.5,13.6,21.2,16.3,24.8c1.9,2.5,4.5,5.8,6.2,10.9
					c0.3,0.9,1.6,5.1,1.7,10.9c0,4.3-0.7,3.9-0.8,8.9c-0.2,7,1.1,9.1-0.3,13.8c-0.8,2.5-2.2,5.4-3.1,5.2c-1-0.2-1.3-4.7-1.5-8
					c-0.2-3.8,0-5-0.9-5.8c-1.7-1.5-5.2,0-6.3,0.4c-1.9,0.8-3.3,1.8-8.5,7c-3.9,3.9-4.5,4.6-6.1,5.2c-0.9,0.3-3.7,1.3-7.1,0.3
					c-0.9-0.3-3.7-1.1-5.2-3.7c-0.5-0.8-0.7-1.7-0.9-5.8c-0.2-4.4-0.3-6.6,0-7.7c1-3.8,4.5-5.8,6.7-7.2c4-2.6,9.3-7,14.9-14.9
					c-8.9-8.4-17-15.3-24-20.8c-4-3.2-7.6-6-10.7-8.3c-6.2-4.6-13.1-9.5-17.5-18.9c-1.7-3.6-5.9-12.6-2.4-20.8
					c1.8-4.1,4.7-6.2,18.3-14.2c7.2-4.2,13.9-8,19.8-11.3c0,0.1,0.1,0.1,0.1,0.2l5.3,8.3l7.7,14.1c0,0,0.1,0.1,0.1,0.1l1.9,3.7
					l0.3,0.5c0.1,0.3,0.2,0.4,0.2,0.4c-4.2,2.8-8.4,5.5-12.6,8.3C207.3,131.7,206.1,132.4,204.8,133.2L204.8,133.2z"/>
				<path class="st27" d="M204.7,133.2l-7.5-6.1C199.3,128.5,202,130.4,204.7,133.2z"/>
			</g>
			<g>
			</g>
		</g>
		<g id="XMLID_5_" class="st22">
			<g>
				<polygon class="st27" points="601.1,273.9 514.2,303.1 462.4,293.3 550.7,265.5 550.7,265.5 				"/>
				<polygon class="st26" points="537.5,239.6 550.7,265.5 462.4,293.3 450.6,270.1 448.1,265.2 485.6,254.5 				"/>
				<polygon class="st27" points="485.6,254.5 448.1,265.2 407.1,282.8 371.3,276 462.6,250.6 				"/>
				<polygon class="st28" points="448.1,265.2 450.6,270.1 407.1,282.8 				"/>
			</g>
			<g>
			</g>
		</g>
		<rect x="-0.1" y="-0.5" class="st29" width="800.2" height="360.9"/>
		<polygon class="st30" points="658.5,211 391.6,174.9 391.6,14.6 658.5,28.9 		"/>
		<g class="st22">
			<path class="st31" d="M577.6,124.7c2.4,2.7,1.8,14.5,6.6,14.1c-1.8-4-8.4-15.6,0.3-7c-0.2,2,1.1,0,1.8-0.3
				c5.8-2.1-3.6-7.1-0.9-9.9c2.5-1.9,0.9,2.4,5.1-1.1c4.7,0.7,6.3-7.3,5.1-9.1c-0.2-2.2-4.8-4.9-0.4-6.1c0-1.2-2.1-1.2-2.7-0.4
				c-0.4-0.2-2.7-2.2-1.1-2.1c1.3-1.7,2.8-4,2.2,0.2c1.7-0.1,3-2.7,3.3,1.4c1.7,0.1,1.6,1.7,1.7,3.2c0.3,1.8,4.2,0,1.5-3.1
				c-0.3-1-2.4-1.9-1.4-2.8c1.4-1,0.4-3.1,2-4c7,2.6,1-22.1,5.7-7.3c0.5,0.6,0.7,4.3,1.3,2.9c2.5-0.1-2.2-2.5-0.1-4.7
				c-1.4-2.1-5.2-11.8-3.6-4.3c-0.5-0.1-2.3-4.7-3.6-1.8c-2.5-2.6-3.2,0.4-1-5.9c0.5-6.1,2.7-2.5,5.2-5c3.5-1,0.4,2.3,4.1,0.2
				c1-0.7-1.4-1.1-0.4-2.3c0.5-1.1-0.5-2.9,1.2-3c2.6-0.6,1.2,4.3,3.4-0.8c-2.2-4.7,2.3,1,0.2,3c-2.5,4.2,2.3,22.3,4.5,13.3
				c-0.7-3.9,1.4-0.9-0.2-5.5c1.1-0.1,0.6-1.4-0.3-1.7c-0.1-0.6-0.4-2.7-1-1.5c-0.6-0.7-1.4-3.8-0.6-4.4c0.8,0.3,0.5-1.6,1.2-0.2
				c0.8-1.2,1.3-2.2,3.1-0.7c0.2-7.3,7.2-6.3-0.3-10.7c3.3-2.1-1.4-4.2,0-4.8c0.3,0.6,1.2,1.2,1.4,0.2c1.2-0.9,6,2.2,2.3-2.7
				c2.3-2.7-4.3-4.8-2.8-1.6c-2.2-1.2-16.9-6.4-12.5,0.9c-3.2-0.9-1.1-2.4-2.6-2.5c-0.7,0.7-0.1,1.9-1.6,1.6c-5.6,3-3.9-3.9-8.9-0.5
				c-0.8,0.7-1.1,0.5-1.7-0.2c-3.7-0.3-1.2-1.8-3.7-1.9c-3.5,1.2-7.4-1.1-4.3,3.6c-8.3,0.6-1.2,4.8-7.1,1.3c0.6-1.5-2.5-4.2-4.9-3.2
				c0.4,4.1-4-0.2-6.5,1.4c-0.4,0.9-0.8-0.2-1.2-0.3c-1-0.2-1.1,1.3-0.3,0.9c-3.8,5.2,2.2-6.4-1.9-6.2c-2.6-2.9-3.1,1.1-3.6,0.2
				c0.2-1.3-0.5-1.2-1.3-1.3c-4-4.1-0.6,3.3-2.3,2.8c-0.6,2.6-1.4,0-2.8,1.5c-1.2,3.1-4.5,2.5-1.2,5.6c-8.4,1,2.4,4.6-0.1,6.2
				c-0.6-0.5,0.3-1.5-0.4-1.7c-0.8,0.1-5.5-2.6-3.1-0.2c0.5,1.1-0.8-0.2-1,0.3c-0.5,1.1,2.6,1.6,1.1,1.4c-1.7,0.4-1.3-1.9-2.2-2.8
				c-0.2,1.8,0.5,7.6,3.1,6.5c0,0.4-1.3,0.7-0.8,1.5c1.3,1.3-0.8,4.9-1.7,2.8c3.7-0.3-1.9-7.9-1.9-10.6c-3.4-1.6-2.6,6.5,0.1,7.2
				c0.7,2-7.8-4.1-6.6-1.5c0.9,0.6,2.5,1.6,1.2,2.5c-0.7-2.2-3.1,1.9-3.4-0.5c-1.2,0.6-2.8,1.5-3.2,3c-0.7,0.7-2-0.9-0.8-1.2
				c0.4-0.9-1.7-1.7-1.8-1.1c2.7,4.5-2.2,2.1-1.2,5.7c-0.7,0.5-2.4-1.9-2.1,0c0.1,0.4,1.6,0.7,0.6,1.1c-2.1-0.6-1.5-3.3-3.4-4.4
				c7.2,4.2,5.6-3.7-0.4-3.8c0.3-1.5-3.7,0.3-1.2-1.4c-0.1-0.5-1.3-1.1-1.6-0.6c-0.4,0.2,0.1-0.7-0.4-0.7c-1.6,1.3-0.4-1.1-4,1.4
				c0,1.6-1.2-0.7-0.8,0.6c-0.7,0.3-1.4,0.3-0.9,1.4c-1.4,0.6-0.3-1.5-1.4,0c0,1.2,0.3,0.5,1.2,0.7c-0.9,0.6-1.4,2.2-2,3.4
				c-0.5,3.9-5.4,3.7-3.9,8.4c0.4,2.4,1.8,2,3.2,0.4c1.3,1.9,0.9,6.3,3.6,3.8c1-0.3-0.7-2.7,1-3.2c0.8-1.7-2.3-3.9,0.2-5.4
				c1.6-0.4,0.4-3.2,1.9-3.3c4.4,0.4-7.2,7.5,4.7,7.7c-0.8,1.4-3.7-0.5-4.3,2.3c0.8-0.5,1.5-0.2,1.3,1c-3.9-1.3,0.5,3.9-4.5,2.7
				c-1.4,1.4-6.7-0.7-3-0.4c1-1.4-1.1-1.8-0.4-0.3c-0.2,0.5-1.3-1.1-0.4-1.3c-0.6-3.5-2.3,0.2-1.2,2.3c-3.4,1.4-5.1,5.1-8.1,5.2
				c5.7,7.2-0.4,3.4-3,5c0.9,2.2-1.5,5.5,1.6,5.9c0.8,1.5,4.3,0.3,4.5-1.4c-0.8-1.7,1.8-1.6,1.8-2.9c-0.3-1.8,2.1-0.4,4-1.7
				c1.2,2.5,7.9,6.3,2.3,6.5c0.2,0.4,1.8,1.8,1.9,0.9c0.1-1.1,1.7-1.1,1-2.9c0.2-0.8,1.4,1.2,0.9-0.3c-1.3-0.4-6-6.1-3.4-4.8
				c4.5,2.1,4.6,8.6,6.9,8.7c1.4-2.1,0.2-1.1-0.4-3.4c5-1.5-0.7,5.7,9.5,4.4c1.1,10.7-9.9-0.8-11,3.9c-0.4,1.6-3-0.9-3.6-1.7
				c-1.1-0.5-2.2-0.5-3.1-1.4c2.3-6.2-8.1-1.4-10.9-2.7c-0.2,1.7-2.1,1.4-2.4,3c-0.1,3.6-5.8,4.6-4.9,8.7c0.1,6.4-1,5.6,3.3,11.5
				c3.6,5.1,9.3-0.7,12.6,3.8c4.5-0.7-0.1,4.8,2.7,6.6c2.2,29.4,9.9,37.8,21.7,8.9c-5.9-6.9,13-13.7,6.4-17.5
				c-6.6,1.5-9.4-10.2-11.8-15.4c2.8,0.9,5.2,8.3,6.8,11.2c0.7,6.1,8.4-0.4,11-1.5c3.2-4.8-0.8-2.7-1.4-6.5c-1,0.3-1.8,2.3-3.3,1.4
				c-0.6-3.4-0.7-0.2-1.3-2c-2.1-2.4-1.7-5.8,0.6-1.7c5.3,4.2,8.4,1.6,14.6,6.4c-2,0.3,1.4,3.2,1.8,1.1c0.6,2.3,2.7,12.1,5.1,12.3
				c2.1-1.4,1-4.3,1.8-6.2c3.7-2.9,7.1-8.5,10.3-1.2C575.5,124.8,575.9,126.1,577.6,124.7z M594.4,111.8c0.1,0.1,0,0.2,0.1,0.3
				C594.5,112.1,594.2,111.9,594.4,111.8z M592.7,109.5C592.9,109.5,592.7,109.6,592.7,109.5C592.6,109.5,592.7,109.4,592.7,109.5z
				 M591.8,114c0.1,0.1,0.1,0.3,0,0.3C591.8,114.1,591.6,114,591.8,114z M600.4,95c0.3,0.1,0.3,0.5,0.1,0.7
				C600.3,95.8,600,95,600.4,95z M618.3,57.1c0.1,0,0.3-0.1,0.5,0C618.9,57.5,618,57.5,618.3,57.1z M601.3,50c0.1,0.1,0.2,0,0.2,0.1
				C601.4,50.2,601.1,49.9,601.3,50z M592.3,82C592.6,81.9,592.5,82,592.3,82C592.3,82.1,592.3,82,592.3,82z M588.4,113.9
				c0.2,0.1,0.5-0.2,0.5,0C588.9,114.3,588.3,113.9,588.4,113.9z M588,47.5C588,47.4,588,47.4,588,47.5
				C588.6,48,587.7,48.5,588,47.5z M587.1,90.2c-0.1,0,0-0.1,0-0.2C587.2,90.1,587.2,90.2,587.1,90.2z M587.2,46.8
				c0.4,0-0.2,0.6-0.3,0.3C586.9,46.9,587,46.8,587.2,46.8z M584,50.3c0.1,0,0.3,0,0.4,0.2C584.3,50.9,583.6,50.5,584,50.3z
				 M583.7,128.8C583.7,128.8,583.7,128.9,583.7,128.8C583.7,128.9,583.6,128.8,583.7,128.8z M564,44.9C564.1,45,564,45,564,44.9
				C564,44.9,564,44.9,564,44.9z M511.6,71.3C511.6,71.2,511.6,71.2,511.6,71.3C511.6,71.3,511.6,71.3,511.6,71.3z M513.8,77.4
				c0,0.4-0.7,0.3-0.7,0.3C513.1,77.1,513.9,76.4,513.8,77.4z M514.4,77.9c-0.1,0.4,0-0.1,0.1-0.2C514.5,77.8,514.4,77.9,514.4,77.9
				z M515.8,76.6c0.1,0,0.3,0,0.2,0.1C515.9,76.7,515.7,76.7,515.8,76.6z M517.1,62.1c-0.1,0.1-0.3,0-0.3-0.1
				C516.9,61.9,517.2,62,517.1,62.1z M518,61.6c0,0-0.1,0.2-0.1,0.1C517.9,61.7,518,61.5,518,61.6z M519.2,61.2
				c-0.1,0.1,0,0.6-0.1,0.5C519,61.5,519.3,61.1,519.2,61.2z M520.7,74L520.7,74C520.7,74,520.7,74.1,520.7,74z M520.8,63.7
				c0-0.1,0.2-0.4,0.1-0.2C521.1,63.8,520.8,64.1,520.8,63.7z M521.1,72.7c-0.1-0.1-0.2,0-0.3-0.2C520.9,72.4,521.3,72.7,521.1,72.7
				z M521.6,70.6c-0.2,0.2-0.4-0.1-0.2-0.3C521.4,70.3,521.6,70.5,521.6,70.6z M522.4,73.4C522.4,73.5,522.4,73.5,522.4,73.4
				C522.3,73.4,522.4,73.4,522.4,73.4z M522.6,74.3c-0.2,0.2,0.1,0.7-0.3,0.4C521.9,74.4,522.9,73.7,522.6,74.3z M522.9,72
				c0-0.1,0.2,0,0.2,0.1C523.1,72.2,523,72,522.9,72z M523.1,73.3c0-0.1,0-0.1,0-0.1C523.2,73.2,523.2,73.2,523.1,73.3z M522.4,78.1
				c-0.2,0.2-0.3-0.2-0.2-0.3C522.4,77.7,522.5,78,522.4,78.1z M522.7,78.9L522.7,78.9C522.7,78.8,522.8,79,522.7,78.9z
				 M505.3,122.9L505.3,122.9C505.3,123,505.4,123,505.3,122.9z M505.5,123.1C505.3,123,505.5,123.1,505.5,123.1
				C505.5,123.2,505.5,123.1,505.5,123.1z M505.9,123.9c-0.1-0.1,0-0.2,0.1-0.1C506,123.8,506,124,505.9,123.9z M523.2,157.7
				C523.2,157.6,523.2,157.7,523.2,157.7C523.3,157.7,523.2,157.7,523.2,157.7z M525.6,146.1C525.6,146.1,525.7,146,525.6,146.1
				C525.7,146.1,525.6,146.2,525.6,146.1z M526.5,134.2L526.5,134.2C526.4,134.2,526.4,134.2,526.5,134.2z M526.1,140
				c-0.1,0-0.2,0.1-0.2,0C526,139.7,526.2,139.8,526.1,140z M526.7,141.7C526.7,141.9,526.6,141.7,526.7,141.7
				C526.7,141.6,526.7,141.7,526.7,141.7z M527.6,139.7c-0.4-1-1.5-2.5-1.1-3.7C526.8,137.1,527.3,138.6,527.6,139.7z M527.8,131.4
				C527.7,131.5,527.8,131.4,527.8,131.4C527.8,131.4,527.8,131.4,527.8,131.4z M532.4,123.4c0.1,0,0.2,0.2,0.1,0.2
				C532.4,123.6,532.3,123.4,532.4,123.4z M528.9,109.1c0.1,0,0.1,0.1,0,0.1C528.9,109.2,528.8,109.2,528.9,109.1z M528.5,108.6
				C528.5,108.6,528.5,108.6,528.5,108.6C528.6,108.7,528.4,108.6,528.5,108.6z M530.2,141.8c0.3,1,0,1.9,0.2,2.8
				C529.7,144.2,529.9,140.5,530.2,141.8z M529.4,131.9L529.4,131.9C529.4,131.9,529.3,132,529.4,131.9z M529.6,132.9
				c1.2,0.2-0.1,2.4-0.7,2C527.9,134.8,528.5,132.4,529.6,132.9z M529,78c0.4,0.1,0.8,1.2,0.1,0.7C529,78.4,529,77.8,529,78z
				 M528.4,76.2C528.5,76.2,528.5,76.2,528.4,76.2C528.7,76.3,528.3,76.3,528.4,76.2z M528.6,90.6C528.6,90.7,528.5,90.7,528.6,90.6
				C528.5,90.6,528.5,90.6,528.6,90.6z M526.4,73.6c0.6-0.8,1.4,1.8,0.6,1.4C527.1,74.5,525.8,74.1,526.4,73.6z M526.9,88.9
				c-0.1,0-0.1,0-0.1-0.1C526.9,88.8,526.9,88.8,526.9,88.9z M525.9,71.5c0.1,0,0.2,0.1,0.2,0.2C526,71.8,525.9,71.6,525.9,71.5z
				 M524.1,65.8C524.2,65.6,524.1,66,524.1,65.8C524,65.9,524.1,65.9,524.1,65.8z M523.9,68.6C523.9,68.6,524,68.6,523.9,68.6
				C524,68.7,523.8,68.5,523.9,68.6z M523.8,74.9c-0.1-1.8,2.5,0.8,1,1.2C524.3,76.3,524.1,75.3,523.8,74.9z M524.9,97.6
				c-0.2,0.3-0.6,0-0.8,0C523.4,97.2,525.4,96.9,524.9,97.6z M533.4,97.4c-1.4,0.8-3-0.4-4.5-1c-1.6-0.5-4.3,2-4.8-1.1
				c0.6-2.6,2.6-5.4,3.6-1.8c0.4,0.9,1.2-0.4,1.8-0.1c0.8-0.7-1-0.2-1.1-1.1c0.4-0.5,1.8-1,2.7-1C528,94.3,534.3,94.6,533.4,97.4z
				 M537,82.5L537,82.5C537.1,82.4,537,82.5,537,82.5z M543,102.7c-2.4,0.5-4.9-1.7-3.1-3.9c-7.5-6.3,4.7-9.3-0.2-4.2
				C540.6,96.7,542.9,99.7,543,102.7z M545,60.8L545,60.8C545,60.7,545,60.7,545,60.8z M546.6,94.9c-0.2,0.5-1.2,0.2-1.3-0.4
				C545.3,92.9,547.4,93.4,546.6,94.9z M550.4,63.7c-0.2-0.2-0.6-0.8-0.8-1.1C550.1,62.4,550.8,63.3,550.4,63.7z M550.7,64.5
				C550.6,64.5,550.6,64.5,550.7,64.5C550.6,64.4,550.7,64.5,550.7,64.5z M552,99C552,99,552,98.9,552,99C552.1,99,552,99,552,99z
				 M552.5,59.8c-0.3,0.3-0.2-0.3,0-0.2C552.5,59.6,552.5,59.7,552.5,59.8z M556.4,46.1c0.1,0.1,0.1,0.1,0.2,0.2
				C556.7,46.5,556.2,46,556.4,46.1z M556.3,83.1c0,0,0,0.1,0,0.1C556,83.2,556.1,83.1,556.3,83.1z M556.5,93.4
				c-0.3,0.1-0.4,1.3-0.7,0.6C555.5,93.2,557.2,92.3,556.5,93.4z M557.7,42.9C557.7,42.8,557.7,42.9,557.7,42.9
				C557.7,42.9,557.7,42.9,557.7,42.9z M559.7,48.8c0,0.6-0.5,0.7-0.6,1.1c0.9,1-0.9-0.6-0.8-1.3C558.8,49.2,559.5,48.8,559.7,48.8z
				 M560.8,48c-1.8,1.1,0.1-0.1-0.8-0.6C560.1,47.1,560.8,47.9,560.8,48z M562.2,48L562.2,48C562.1,48,562.2,47.9,562.2,48z
				 M563.5,91.8c-0.4,0.2-1.5-0.4-1.1-1C562.6,91.2,563.4,91.4,563.5,91.8z M563.5,52C563.5,52,563.4,51.9,563.5,52
				C563.5,52,563.5,52.1,563.5,52z M568.5,89.1c-0.2,0.2-0.4-0.4-0.2-0.5C568.6,88.5,568.7,88.9,568.5,89.1z M568.9,91.6
				c0,0.2-0.2,0.2-0.2,0C568.7,91.3,569,91.3,568.9,91.6z M569.3,90.3C569.3,90.3,569.3,90.3,569.3,90.3
				C569.4,90.4,569.3,90.3,569.3,90.3z M573.1,81.6c-0.2,0-0.5-0.4-0.5-0.7C572.7,80.7,573.1,81.5,573.1,81.6z M573.1,80.6
				C573,80.5,573.2,80.5,573.1,80.6C573.1,80.6,573.1,80.6,573.1,80.6z M573.8,87.9c0,0.3-0.2-0.2-0.1-0.3
				C573.9,87.5,573.8,87.8,573.8,87.9z M576.4,87c1.2-0.8,2.2-3.4,2-5.7C579.8,83.2,578.4,86.9,576.4,87z"/>
			<path class="st31" d="M580.4,131.7C580.4,131.7,580.4,131.7,580.4,131.7C580.4,131.7,580.4,131.7,580.4,131.7z"/>
			<path class="st31" d="M519.7,99.4C519.7,99.4,519.7,99.4,519.7,99.4C519.7,99.4,519.7,99.5,519.7,99.4z"/>
			<path class="st31" d="M472.5,125.6C472.5,125.5,472.5,125.5,472.5,125.6C472.5,125.6,472.5,125.6,472.5,125.6z"/>
			<path class="st31" d="M455.5,52.8C455.5,52.8,455.5,52.8,455.5,52.8C455.5,52.8,455.5,52.8,455.5,52.8z"/>
			<path class="st31" d="M458.1,60c0,0.9-1.1,2.1-1,2.9c1.4,2.4,0.3-1.3,3,0.8c0.8-0.8-1.2-2.6-1.4-3.4
				C459.5,59.8,458.4,59.7,458.1,60z"/>
			<path class="st31" d="M462.4,172.4C462.3,172.5,462.4,172.5,462.4,172.4C462.4,172.5,462.4,172.4,462.4,172.4z"/>
			<path class="st31" d="M461.6,54.1C461.6,54.2,461.6,54.1,461.6,54.1C461.6,54.1,461.6,54.1,461.6,54.1z"/>
			<path class="st31" d="M466.6,85.8C466.6,85.8,466.6,85.8,466.6,85.8C466.6,85.8,466.6,85.8,466.6,85.8z"/>
			<path class="st31" d="M463.6,173.8C463.6,173.8,463.6,173.8,463.6,173.8C463.6,173.8,463.6,173.8,463.6,173.8z"/>
			<path class="st31" d="M422.6,57.8C422.6,57.8,422.6,57.8,422.6,57.8C422.6,57.8,422.6,57.8,422.6,57.8z"/>
			<path class="st31" d="M482,131.2c-3.4-2.5-7.2-4.8-10.2-5.3c2-5-6.8-5.9-7.6-9.7c-1.9-0.2-3.4,0.4-4.9-1.7
				c-0.2,0.1-1.1,1.5-1.1,0.4c0.9-1.8-3.4,0.8-3.4,1.9c-2.7-2.8-4.8,1.9-3.9-5.8c-0.8-1-2.5-0.4-3.3-1c2.2-3.9,1-6.8-1.6-2.4
				c-11.2-1.3,4.1-17.7,6.7-4.5c2.2-0.2-1.3-5.7,1.4-6.2c4.7-2.2,1-5.7,7-7.6c-1.7-2,5.2-4.3,2.8-2.3c0,2,1.9-0.6,2.9-0.3
				c0.8-0.5,1.5-0.3,1.1-1.5c-0.4-0.7-0.7,0.9-1.1,0.8c-0.8,0-1.9-0.9-1.4-2c1.7-4.7-5.6,1.6-2.4-1.4c8.9-4,10.1,2.9,5.6-10.7
				c-0.6-3.8-0.6-1.4-2.2-0.2c-1.4,0.7-1.6-2.2-0.9-3.1c-7.4-9.2-2.8,4.7-7.6,6.5c0.3,5.7-2.7,2.9-1.4-1c-11.8-5.8-1.1-12.6,5-15.6
				c-0.4-3.2,1-0.6,0.8-3.1c-1.5-3-1.9,0.2-3.2,1.3c-0.3-0.9-0.4,0.4-0.4,0.7c-1.5,0.3,0.7-2.8-0.6-3c-0.7,1.4-1,0.9-0.4-0.2
				c-1.4-2.3,0.7-0.5-0.2-4.9c0.7-1.7,2.4-1,3.3-2.9c-1.6-3-3.4,0.3-3.8,2.5c-1.2,1-2.8,3-1,4.6c-0.3,0-0.9,0.8-0.3,0.9
				c0.1,1-1.8,0.7-1.6,2.1c-1-0.4,0.7-1.1-0.4-2.1c1.1,0.9,1.2-0.8,1.6-1.4c-1.8-0.9-0.5-1-2.3,0.2c-0.3,0.4,0.7,0.8,0.6,1.2
				c-3.9,3.2-3.2-3.7-5.7-1.7c-0.1,1,1.1-0.1,1.4,0.3c-1.9,0.3-1.8,2.5-2.1,1.9c0.7-2.5-4-1.1-2.7-2.8c2-0.5-1-1.8-1.5-2.6
				c-0.4-0.5-0.7-2-1.5-1.3c-0.9,0.9-0.2-0.5-0.3-1c-0.4-0.2-0.8,1.1-1.1,0.6c0.1-3.2,0.5-1.9-1.1-1.3c-0.2-0.1-0.6,0-0.1-0.1
				c0.1-1.4-2.1,0.3-2.7,0c0.5-0.6-0.6-0.3-1-0.2c-1,1.5-1.9-2.4-3.1-3.1c-1.4,0-1.9-2.2-3.2-2.1c-0.3-0.7,0.1-1.5-0.8-1.6
				c0-3.1-13,1.7-7.2,6.4c-3.4,1.1-0.6-1.9-3.8-0.8c-0.6,0.2-1.4,0.5-0.7,1.4c-2,3.2,3.2,1.3,2.1,2.4c-0.2,3-2.6,0.3-3.3,2.1
				c-1.6,0.4-2.4,6.1-0.4,4.3c0.1,0.5-1.1,3.3,0.2,2.2c0.8,1.5,2.2-0.1,1.1,1.5c-1.2,2.3-8.7,5.3-3.6,3.2c3.5,0.5,6-4.5,9-6.2
				c1,0.6-0.3,0.4-0.6,0.6c-2.1,3.1-0.8,2.4,1.4,1.3c1.2,0.1-0.9-1.5,1.1-0.8c1,1.9,3.5,4.2,4.4,5.3c0.5,1.4-0.8-0.9-0.4,3
				c1.2-0.5,1.2-3.2,1.4-0.2c-0.4-1.5-1.8,0.7-0.8,0.6c-0.1,0.5-0.2,1.7,0.2,2.1c0.8-1.9,0.3,0,0.9,0.4c-0.6,1.6-0.9,1.5,0.3,1.9
				c-1,0.7,0.4,1.2,0,2c-0.6,0.9,3.8,5.7,1,4.5c1.9-1.8-4.4-6.1-0.1-0.2c-6.3,11.2,9.1,35.5,2.4,19.7c0-3.5,1.2,1.6,1.9,2.5
				c6,15.4,9.3,8.2,17.2,18.2c1.6,1.7,1.8-3.9,2.8,3.5c-7,9,8.2,16.5,5.3,38.9c-0.1,5-1.3,7,0.5,9.7c-0.1-1.6,0.8,0.6,0.1,0.6
				c-0.5,0.2,0.9,1.3,1.3,2c-2.7-1.7,3.2,4.6,4.8,2c-1.4-0.2-2.8-4.5-3.3-1.9c-0.7-1.1,1.6-0.7,0.5-2c-0.7-1.7,1.3-2.6,1.2-4.1
				c-2.3-1.8-0.1-2.6,0.2-4.7c-0.4-0.2,0.9,0.6,0.4-0.7c-1.1,0.1-1.7-2,0.3-0.8c0.4-3.3,5.8-1.2,2.4-6c3.5,2.3,3.7-2.7,5.6-4.5
				c-0.2-4.1,2.5-3.7,4.9-4.7c1-2.1,1-4.8,1.4-7.1C481.1,135.3,483.3,133.7,482,131.2z M469.7,77.8c0.1,0.3-0.3,0.3-0.4,0.4
				C469.2,78,469.6,77.9,469.7,77.8z M466.4,78.8L466.4,78.8C466.4,78.7,466.4,78.8,466.4,78.8z M466.2,77c0.3,0.1,1.2-0.2,1.1,0.3
				C467,77.4,466.2,77.4,466.2,77z M466,78.5L466,78.5C466,78.5,465.9,78.6,466,78.5z M464.1,75.9C464.2,76,464.2,76.2,464.1,75.9
				C464,76,464,75.9,464.1,75.9z M463.6,76.2c0.2-0.5,0.3,0.3,0.1,0.4C463.5,76.5,463.5,76.3,463.6,76.2z M462.1,75.1
				C462.2,75.2,462.2,75.2,462.1,75.1C462.1,75.1,462.1,75.1,462.1,75.1z M460.9,79.4c0.2,0.1-0.2,0.2-0.3,0.3
				C460.5,79.5,460.8,79.4,460.9,79.4z M459.5,81.9C459.6,81.9,459.6,81.9,459.5,81.9C459.5,82,459.4,81.9,459.5,81.9z M456.4,59.5
				c0.2,0.1,0.4,0.6,0.5,0.9C456.6,60.5,456.2,59.7,456.4,59.5z M452.4,60.6c0.2,0,0.5,0.3,0.7,0.5
				C452.9,60.8,452.3,61.1,452.4,60.6z M450.9,59.9C450.9,59.9,450.9,59.9,450.9,59.9C450.9,60,450.8,59.9,450.9,59.9z M456.5,81.2
				c0,0,0.1,0,0.1,0C456.7,81.4,456.4,81.3,456.5,81.2z M456,86.5c0.4-0.1,2.2-0.7,1.8,0.2C457.5,87.2,455.9,87,456,86.5z
				 M455.8,87.4c-0.4,0.4-2.5,1.6-2.4,0.5C454.2,87.6,455.1,87.1,455.8,87.4z M453.6,83.4c1.2-0.3,3.1,2.8,1.3,1.4
				c-0.2,0.4-0.3,1.9-0.8,1.6c0-0.7-0.3-0.8-0.7-0.6c0.8-0.6-0.1-2.7-0.7-1.7c-1.4,0.4-0.6,2.6-1.6,3.3c-1-0.4,0.4-2.2,0.1-3
				C451.5,82.8,453,84.2,453.6,83.4z M453.5,75.4c0-0.1,0-0.5,0.1-0.2C453.6,75.3,453.4,75.5,453.5,75.4z M451.6,79
				c0.2-0.1,0.3,0.5,0.1,0.5C451.4,79.6,451.4,79.1,451.6,79z M450.9,77.6C450.9,77.7,450.8,77.7,450.9,77.6
				C450.8,77.7,450.9,77.6,450.9,77.6z M450.4,62.5c0.2-0.2,0.3,0.1,0.3,0.3C450.6,63.1,450.3,62.7,450.4,62.5z M449.9,61.9
				c0,0,0,0.1,0,0.1C449.8,62,449.8,62,449.9,61.9z M449.6,73.1C449.7,73.1,449.7,73.2,449.6,73.1C449.6,73.2,449.6,73.2,449.6,73.1
				z M449.3,78.1c0.1,0.2,0.6,0,0.5,0.3C449.7,78.5,449.3,78.2,449.3,78.1z M450,81.4c1.3-1.2,3.9-0.7,3.1,1.6
				c-0.8-0.3-1.8,0-1.7-1.1C450.5,82.5,448.2,82.2,450,81.4z M449.1,74.2c-0.1,0-0.1-0.1,0-0.1C449.1,74,449.2,74.3,449.1,74.2z
				 M448.8,61.2c0.6-0.3,0.2,0.3,0.2,0.7C448.7,62.4,448.2,61.3,448.8,61.2z M448.6,65.6c0.2-0.4-0.2,0.4-0.2,0.2
				C448.4,65.8,448.5,65.7,448.6,65.6z M448.4,62.6C448.4,62.7,448.4,62.7,448.4,62.6C448.3,62.6,448.4,62.6,448.4,62.6z M448,69.6
				C448,69.7,448.1,69.7,448,69.6C448,69.7,448,69.6,448,69.6z M447.8,79.3c0.1-0.1,0.1-0.3,0.2-0.3C448,78.8,448,79.9,447.8,79.3z
				 M447.6,72.8L447.6,72.8C447.7,72.8,447.6,72.9,447.6,72.8z M447.4,69.9c0.1,0,0.1,0,0.1,0.1C447.5,70.2,447.2,70,447.4,69.9z
				 M447.3,76.8c0.1,0.3-0.1,0.6-0.3,0.8C447.1,77.5,447.1,76.6,447.3,76.8z M447.2,73.1c0,0,0.1,0.1,0,0.1
				C447.2,73.3,447.1,73.1,447.2,73.1z M446.7,73.9c0.9,0,0.5,1.8,0.5,2.4C446.6,75.8,446.3,74.5,446.7,73.9z M445.9,75.1
				c-0.5,1,0.1-0.5-0.6-0.7c1.1,0.1-0.3-0.7,0.4-1.3C446.5,73.6,445.8,74.2,445.9,75.1z M446.2,77.5c-0.2,0.3-0.3-0.6-0.2-0.7
				C445.9,76.3,446.2,77.3,446.2,77.5z M446,59.2c0.1-0.1,0.2,0,0.1,0.1C446,59.4,445.9,59.3,446,59.2z M445.5,67.7
				c0-0.2,0.4-0.3,0.3-0.1C445.6,67.9,445.4,68.3,445.5,67.7z M445.4,58.9C445.6,58.9,445.5,59,445.4,58.9
				C445.4,59,445.4,58.9,445.4,58.9z M445.2,69.9c1,0-0.1-1.2,1-1.6C446.6,68.5,445.4,70.3,445.2,69.9z M445.1,56.1L445.1,56.1
				C445.1,56.1,445.1,56.1,445.1,56.1z M444.7,57.9c0.1,0,0.1,0.1,0.1,0.1C444.7,58.1,444.6,57.9,444.7,57.9z M428,64.1L428,64.1
				C428,64.1,428,64,428,64.1z M428.4,62.9c0-0.1-0.1-0.1-0.1-0.2C428.4,62.7,428.5,63,428.4,62.9z M428.5,61.7c-0.1,0,0-0.1,0-0.1
				C428.5,61.6,428.6,61.7,428.5,61.7z M428.6,66.5c-0.4-0.1-0.3-0.7-0.1-0.9C428.4,65.9,428.7,66.2,428.6,66.5z M428.8,65.9
				C428.8,65.9,428.8,65.8,428.8,65.9C428.8,65.5,429,65.9,428.8,65.9z M435.4,47.4c-0.1-0.2,0-0.5,0-0.6
				C435.5,46.9,435.6,47.4,435.4,47.4z M436.5,47.1C436.4,47.2,436.4,47,436.5,47.1C436.5,47,436.5,47.1,436.5,47.1z M436.8,62.1
				C436.7,62.1,436.8,62,436.8,62.1C436.8,62,436.8,62.1,436.8,62.1z M437.9,69.5C437.8,69.5,437.9,69.5,437.9,69.5
				C438,69.5,437.9,69.5,437.9,69.5z M438.1,46.6c-0.4,0-0.8-0.1-1.2,0.3C437.2,46.5,437.7,46.3,438.1,46.6z M443.5,71.4
				c-0.1-0.1,0.1-0.3,0.2-0.2C443.8,71.3,443.6,71.5,443.5,71.4z M443.5,68.5c-0.2-0.1,0.1-0.3,0.3-0.2
				C443.8,68.4,443.6,68.5,443.5,68.5z M443.7,62.2L443.7,62.2C443.8,62.2,443.8,62.3,443.7,62.2z M444.2,55.1c0.1,0,0.1,0,0.2,0.1
				C444.3,55.4,444,55.1,444.2,55.1z M438.4,51.3C438.5,51.3,438.5,51.3,438.4,51.3C438.4,51.4,438.4,51.4,438.4,51.3z M439,61.3
				C438.9,61.3,439,61.3,439,61.3C439,61.4,439,61.3,439,61.3z M439.1,55.2c-1.4,0.5,0.1-1.4,0.7-1.1c0.7-0.9-3.6-1.1-0.3-1.1
				c1,0,2.6-0.8,1.2,0.5c0.6,1.1,2-0.3,0.8,1.2c-1.8-0.1-0.4,0.1-2,0.9C440.5,55.3,439.9,54.2,439.1,55.2z M440.9,55.9
				c-0.1,0-0.2,0.3-0.1,0.1C440.8,56,440.9,55.7,440.9,55.9z M440.3,58.6c-0.2,0.2-0.4-0.2-0.4-0.4
				C440.1,57.9,440.2,58.4,440.3,58.6z M439.8,63.3C439.8,63.2,439.8,63.3,439.8,63.3C439.8,63.3,439.8,63.3,439.8,63.3z
				 M440.9,66.1c-0.1,0.1-0.1-0.2,0-0.1C440.9,66,440.9,66.1,440.9,66.1z M441.2,62.1c-0.4,0.5-1.8,0.4-1.7-0.4
				c0.6,0.5,0.7-0.7,1.3-0.5c0.5-0.1-0.2-1.2,0.2-1.1c0.8,2,1.8,0.4,2.9,0.5C443.5,61.3,442.1,61.8,441.2,62.1z M441.7,69.9
				C441.7,69.8,441.6,69.7,441.7,69.9C441.8,69.9,441.8,69.9,441.7,69.9z M441.9,66.2c-0.3-0.5,1.3-1.2,1.5-0.4
				C442.9,65.9,442.3,65.5,441.9,66.2z M449.7,113.9c-0.1,0.2-0.4-0.1-0.3-0.3C449.5,113.4,449.8,113.7,449.7,113.9z M458.4,116.4
				c-0.3,0.5-0.5-0.6,0-0.6C458.4,116,458.4,116.2,458.4,116.4z M459.9,165.9c0,0,0-0.1,0-0.1C460,165.7,460,165.9,459.9,165.9z
				 M460.1,136.7c-0.2-0.1-0.6-0.3-0.5-0.6C459.8,136,460.2,136.7,460.1,136.7z M461.6,169.7C461.6,169.7,461.6,169.8,461.6,169.7
				C461.6,169.7,461.7,169.7,461.6,169.7z M462,170.7c-0.1,0.1-0.3-0.1-0.1-0.1C461.9,170.6,462,170.6,462,170.7z M462.1,171.8
				C462.1,171.8,462.1,171.8,462.1,171.8C462.2,171.8,462.2,171.8,462.1,171.8z M462.5,171.2c-0.1,0.1-0.1,0.1-0.2,0.2
				C462.3,171.3,462.6,171.1,462.5,171.2z M463.7,171.8c0.2,0,0.1,0.2,0,0.2C463.5,172,463.5,171.9,463.7,171.8z M463.2,172.4
				c0.2,0.5,0.3,0,0.5,0.1C463.6,173.2,462.8,172.1,463.2,172.4z M463.8,118.9L463.8,118.9C463.9,118.9,463.9,118.9,463.8,118.9z
				 M465,149.4c-0.1,0-0.2-0.1-0.1-0.1C465,149.2,465.1,149.3,465,149.4z M468.6,121.3c-0.1-0.1,0-0.1,0.1-0.1
				C468.8,121.2,468.7,121.3,468.6,121.3z M471.7,126c-0.3,0.2-0.4-0.2-0.2-0.4C471.5,126,472,125.8,471.7,126z M472.5,127.2
				c0-0.1,0.2-0.1,0.2,0C472.7,127.2,472.6,127.2,472.5,127.2z M472.7,129.3c-0.1,0-0.3-0.4-0.1-0.4
				C472.7,129,472.8,129.2,472.7,129.3z M473.3,140.1L473.3,140.1C473.3,140.1,473.3,140.1,473.3,140.1z"/>
			<path class="st31" d="M430.8,75.4C430.8,75.4,430.8,75.4,430.8,75.4C430.8,75.5,430.8,75.4,430.8,75.4z"/>
			<path class="st31" d="M477,59.9C477,59.9,477,59.9,477,59.9C477,59.8,477,59.9,477,59.9z"/>
			<path class="st31" d="M493.5,60.4c-0.2-0.6-1.5-0.5-1.9-0.8c0.2-0.4,0.9-0.4,0.6-1.3c2,3.2,2.9-0.2,0.8-2.1
				c-0.9-3.1,1.4,3,1.3-0.8c-0.3-0.4-1.1-0.8-1.1-1.1c0.7,1.3,3.2,0.1,1.3-0.8c1.9-0.1,1.4-0.1,1-1.8c1.4-0.4-0.6-2.6-0.3-2.8
				c1.1-1.8,1.1,1.6,1.4,0.9c0.9-3.6-0.8-1.2-0.1-3c0-0.3-0.7-0.6-0.4-0.8c1.1-0.2,0.4-2.7,1.5-3.4c0.2-0.9,2-1.8,0.4-2.1
				c5.5-1.7,0.9-4.9-3-1c0.4-0.7,3.1-2.6,1.2-3c-2.5,2.7,0.3-1.8-3.6-0.3c-0.3,0.3-1.3,0.4-0.6-0.1c1.5-0.7,9-0.1,3.5-2.3
				c1.5-1.6-3.4-0.9-4.2-0.9c11.3-1.1-7.7-4.2-4,2.7c-0.9,0.8-0.8-3.1-2-2.5c-0.4,0.5,0.3,2.1-0.7,1.8c-0.5,0.6,0-3-0.6-1.2
				c0.2,0.7-0.5,0.9-0.7,1.4c2.2-3.7-3.4-2.2-3.6-0.1c-5.9,0.6,0.9,4.4-6.5,4.5c-1.6,0.5,0.1,3.3,1.3,2.8c0.8,0.8-2.7-0.5-2,1.1
				c1,0.9-0.5,1.1,0.8,2.1c7.5-1.4,1.8,11.2,4.9,9.4c0.4,0.2-0.8,0.7,0,1c0.6,1.8,0.1,0.3-1,0.2c-2.2,2.3,1.7,3.9,0.3,1.3
				c3,1.7-1.6,2.4-1.4,4.4C477.1,82,483.4,62.2,493.5,60.4z M497.3,41.4c0,0,0.1,0,0.1,0C497.5,41.6,497.2,41.6,497.3,41.4z
				 M496.7,41.7c0-0.1,0.1-0.1,0.2,0C497,41.8,496.5,42,496.7,41.7z M484.3,65C484.3,65,484.3,64.9,484.3,65
				C484.4,65,484.4,65,484.3,65z M488.5,33C488.5,33,488.5,32.9,488.5,33C488.6,33.1,488.6,33.1,488.5,33z M488.8,33.4
				c-0.1-0.1,0-0.2-0.1-0.3C488.7,33.2,488.8,33.3,488.8,33.4z M490.9,58.8L490.9,58.8C491,58.7,491,58.7,490.9,58.8z M491.2,57.2
				C491.2,57.2,491.2,57.2,491.2,57.2C491.2,57.2,491.2,57.3,491.2,57.2z"/>
			<path class="st31" d="M477,53.8C477,53.8,477,53.8,477,53.8C477,53.9,477,53.9,477,53.8z"/>
			<path class="st31" d="M495.4,49.5C495.4,49.5,495.4,49.5,495.4,49.5C495.3,49.5,495.4,49.5,495.4,49.5z"/>
			<path class="st31" d="M590.2,165.3C590.2,165.3,590.2,165.3,590.2,165.3C590.2,165.3,590.2,165.4,590.2,165.3z"/>
			<path class="st31" d="M623,169.8c-6-4.5-6.2-23.2-9.8-9.2c-6.6-3.1,0.1-5.4-6.6-7.1c0.7,1.6-2,0-2.7,3.1c-3-2.3-3.7-0.3-4.9,1.4
				c-1.3-1.9-1.2,2.6-2.9,2.1c-5.9,0.2-6.6,2.1-5.8,8c-0.5,9,0.4,7.2,7.8,5.7c9.6-2.7,6.8,6.1,9.2,3.3c1.9-1.6,0.7,0.5-0.1,1.3
				c0.5,1,1.8-1.4,1.1,0.7C612.6,192.3,623.7,178.3,623,169.8z"/>
			<path class="st31" d="M467.6,37.1C467.6,37.1,467.6,37.1,467.6,37.1C467.6,37.1,467.5,37.1,467.6,37.1z"/>
			<path class="st31" d="M468.4,34.3C468.4,34.3,468.3,34.3,468.4,34.3C468.3,34.4,468.3,34.3,468.4,34.3z"/>
			<path class="st31" d="M468.4,34.7c0.2,1.5-0.8,2.3,0.3,3c-0.7-1.1-2.3-0.5-2.6,0.8c0.3,0.4,1.1,0.9,0.4,1.5
				c-0.1-0.5-0.4-1.5-1-0.8c0.4,2.3-5.8,1.8,1.5,3.8c0.5,1.1,2.8,0.5,2-0.6c0.1-2.2,3.9-1.4,3.1-4c1.8,0.6-1-1.3,1.2-0.8
				c3.4-1.1,4.9-3.5,7.8-4.6c1.6-3.2-6.4-6.1-6.7-4.2c-1.1-2-1,2.3-2.4-0.3c-1.6,1.2,0.8,2-1.7,0.7c-0.4,0.5-1-0.1-1.5,0.4
				c-0.5,0.3-0.1,1,0.2,0.5c-0.1,0.2-0.6,1.5-0.1,1.6c-1.3,0.4,1.1,2.6,1.8,1.8c0.6,1.6,2-0.5,2.7,0.7c-0.9,0.2-3.2-0.5-3.1,1
				C470,34.5,468.6,32.7,468.4,34.7z M466.7,40.4C466.7,40.3,466.8,40.3,466.7,40.4C466.8,40.4,466.7,40.4,466.7,40.4z M467.1,38.9
				C467.1,38.9,467.1,38.9,467.1,38.9C467.1,38.9,467.1,38.9,467.1,38.9z M467.9,41.1C467.9,41.2,467.7,41.3,467.9,41.1
				C467.9,41.1,468,41,467.9,41.1z M477.8,34.1C477.8,34.1,477.9,34.1,477.8,34.1C477.8,34.2,477.8,34.1,477.8,34.1z M469.3,32.7
				C469.3,32.7,469.3,32.7,469.3,32.7C469.3,32.7,469.3,32.7,469.3,32.7z M471.7,37.3C471.7,37.4,471.7,37.4,471.7,37.3
				C471.7,37.4,471.7,37.3,471.7,37.3z"/>
			<path class="st31" d="M461.8,54.1c3.8,2.6,1.6-3.2,3.4,2.1c-1.1,0.9,2.1,1.4,0.9,3.6c-3.4,2.5,1.2,1.7-3.8,2.3
				c-0.9,1.9,1.8,0.7,2.4,1.5c0.3,2.7,4.9,5.9,2.3,1.5c2,1.1,1.2,2.9,2.2,0.8c0.6-1.2-1.3-3.1-0.9-3.8c2-1.9-0.1,4.5,3.6-0.2
				c-0.3-1.5-3.1-2.8-2.4-4.5c2,0.1-0.8-4.9-1.6-4.7c-0.8-1.4-0.1-2.7-2.6-2.3c-1,0.2,0-1.1,0-2.1c-2.4-3.2-4.3,6.5-3.3,0.8
				C466.6,42.7,454.2,51.6,461.8,54.1z M465.8,63.3c-0.3,0,0-0.7,0.2-0.6C466.2,62.9,466.1,63.3,465.8,63.3z M469.5,55.5
				c0.2,0,0,0.3,0,0.3C469.5,55.7,469.3,55.5,469.5,55.5z M464.6,50.6C464.6,50.5,464.6,50.5,464.6,50.6
				C464.6,50.6,464.5,50.7,464.6,50.6z M461.7,51.6L461.7,51.6C461.7,51.7,461.7,51.7,461.7,51.6z"/>
			<path class="st31" d="M448.4,43.1C448.4,43.1,448.4,43.1,448.4,43.1C448.4,43,448.4,43.1,448.4,43.1z"/>
			<path class="st31" d="M448.4,43.1c-6.5,2.6,0.1,2.9-3.2,3.3c-0.6,1.3,1.1,1.3,1.8,1.5c2.7,2.5-4.5-1.7-1.7,2.2
				c1.3,4.3,3.1-0.1,4.8,2.4c0.7,0.9,2.7,0,1.5-0.6c-0.3,0,0.4-0.4,0.5-0.3c2.5,1.5-2.2-3.4,2-7c-0.3-1.4-1.8-0.7-1.3,0.5
				c-1-2-1.5,1.2-1.8,2.1c-0.9,0.8,0.5-2-0.2-2.5c-0.5,0.1-0.3,1.2-1.3,0.6c1.1-0.5-0.2-1.8-0.8-0.9
				C448.9,43.7,449.6,42.6,448.4,43.1z"/>
			<path class="st31" d="M621.4,153.7c-2.2-3.9-7.3-10.2-11.5-7.1c-1.5,0.1-0.6-2.2-1.7-2.5c-1-0.7-3.3,0-1.5,0.9
				c0.6,0.9,2.4,0.5,0.3,0.9c-0.1,0.2,0.6,1.9,1,1c7.4,2.6,1.7,4.8,4.6,4.6c4.7,2.9,2,0.6,4.9,0.2
				C618.6,153.1,624.5,157.2,621.4,153.7z"/>
			<path class="st31" d="M588,140.6c0.5,1.8,1,3.3,2.7,3.8c5.3,2.1,1.9-1.7,5.1-3.2c0.2-0.6-0.8-1-0.6-1.7c-1.2-1.5,2.1-2,0.3-2.8
				c-1.5-2.6-4.2,1.9-5.7,2.9C588.9,139.7,587.7,139,588,140.6z"/>
			<path class="st31" d="M541.2,144.7c-1.9,3.9-4.6,1-4.2,6.1C534.2,161.8,544.3,149.8,541.2,144.7z"/>
			<path class="st31" d="M533.9,55.8c-0.3,0.5-0.6,1.1-0.1,1.7c0.3,0.7-0.8,0.7-0.4,1.5c6.5,5.8-1.3-4.8,6.5-10.5
				C538.4,45.4,532.5,53,533.9,55.8z"/>
			<path class="st31" d="M603.3,112.6c1.1-0.9-0.1-2.8,0-3.3c0.6-0.4,2.6-0.5,1,0c-0.7,0.1,0,1.7,0.4,1.1c0.1-0.5,0.4-0.5,0.8-0.4
				c0.9-0.3-0.7-1.5,0.4-1.5c0.1,2.8,1.5,0,2.8,0c0.6,0.6,0.6-1.4,0.9-0.3c2,0.3-0.7-11.9-1.5-6.7
				C610.1,108.8,598.3,106.5,603.3,112.6z M608.5,100.5C608.5,100.5,608.5,100.5,608.5,100.5C608.5,100.6,608.5,100.6,608.5,100.5z"
				/>
			<path class="st31" d="M464.5,37.9c2.4,1,5.2-3.4,3.2-5.3c-0.2-0.7,0.3-3.4-1-2.3c1.1,1-1.1,0.2-0.6,1.6c-0.9-0.2-1.2,0.3-0.7,1.2
				c-0.8-0.7-1.7,1.9-0.3,2.3C464.1,35.4,463.6,37,464.5,37.9z"/>
			<path class="st31" d="M466.8,37.2C466.8,37.2,466.7,37.2,466.8,37.2C466.8,37.2,466.8,37.2,466.8,37.2z"/>
			<path class="st31" d="M585.7,143.3c0.3-0.3-5-7.6-8.7-8.7C578.1,136.2,585.6,151.1,585.7,143.3z"/>
			<path class="st31" d="M585.5,145.7C585.5,145.7,585.5,145.7,585.5,145.7C585.5,145.7,585.5,145.7,585.5,145.7z"/>
			<path class="st31" d="M443.1,44.3c0.5,2.7,2.9-1.3,4.3-1.1C451.9,43.2,445.4,35,443.1,44.3z"/>
			<path class="st31" d="M501.7,78.2c0.4,0.6,0.1,1.3,0.4,1.9c0.2,0.4,0.6-0.3,0.4,0.6c2.8,2.1-0.1,1.3,0.5,2.7
				c-0.4,1.1-0.8,0.8,0.5,1.5c-4.6,2.7,6.9,0.2,2.3-1.7C504.2,80.8,503.6,74.1,501.7,78.2z"/>
			<path class="st31" d="M510.5,45c1.5,3.8,1.1,0.7,2.4,1.3c-0.8,0.8-1.8,1.2-0.3,1.8c-1.4-0.5,0,1.6,0.4,1.5
				c1.1,2.9,0.8-3.9,1.9-3.7c0.3,0.7,0.1,3.1,1,2.5c2.8,0.5-2-4.5-3.2-5.7c-0.8,0,0.1,2.2-0.5,0.8c-0.4-0.4-0.5,0.3-0.8,0.2
				C511.9,42.3,509,43.8,510.5,45z M512.6,47.8L512.6,47.8C512.6,47.7,512.7,47.7,512.6,47.8z M512.4,44.7
				C512.5,44.8,512.5,44.8,512.4,44.7C512.4,44.7,512.4,44.7,512.4,44.7z"/>
			<path class="st31" d="M466.9,44.4c-1.1-1.5-3.6,0-4.2-2.2c2.9-0.8-4.7-5.3-1-1c1,1-1.6,2.5-0.1,3.5
				C462.3,45.3,468,48.3,466.9,44.4z"/>
			<path class="st31" d="M453.7,39.7c-1.3,0-0.3-1.8-1.2-2.4c-0.3-1.4-2.7,0.8-1.8,1.4c-2.1-0.2-0.1,1.7,1,1.5
				c-3.2,1.4,1.7,1,2.9,1.2c0.8-0.1,2.1-2.6,0.6-1.8C454.9,36.1,454.5,37.2,453.7,39.7z"/>
			<path class="st31" d="M635.9,193.8c-0.7,0.3-0.7-1.4-1.4-0.6C621.6,201.5,632.2,203.1,635.9,193.8z"/>
			<path class="st31" d="M494.9,69.8c5.4-1.5,1.5-5.7-1.1-3c-0.5-0.5-0.7-2.4-1.9-0.3c0,0.6,1-0.1,1,0.5c-2.2,1.1,1,0.4-0.4,1.8
				C493,69.3,494.2,69.7,494.9,69.8z"/>
			<path class="st31" d="M546.6,36.8c0,0.4,1.3,0.4,1,0.6c-1.9,0.1,1.3,2.3,0.6,0c0.7-0.2,0,1.4,0.6,1.3c0.8,0.5,3.5,2,3.7,0.3
				c-1.1-1.9-1.8-3.7-3.8-2.1C550.4,35.4,545.4,31.5,546.6,36.8z"/>
			<path class="st31" d="M641.1,190.1c-1.6,0.6-1.4-0.8-2-1.9c-0.7,1-0.4-0.9-0.3-1.3c-2.7-6.3,0.9,4.4-2.1,4.2
				c-0.4,1.2,1.3,2-0.2,3.3C637,196.2,641.9,190.6,641.1,190.1z"/>
			<path class="st31" d="M576.9,40.8c1.4,4.7,8.2-2.1,3-2c0.6,3.1,0.1-0.3-1.2-0.3c-0.5,0-0.2,1.4-0.3,1
				C577.1,38.3,575.9,39,576.9,40.8z M580.4,40.5C580.5,40.5,580.4,40.5,580.4,40.5C580.4,40.4,580.4,40.4,580.4,40.5z M578.7,39.7
				L578.7,39.7C578.6,39.7,578.5,39.7,578.7,39.7z"/>
			<path class="st31" d="M457.7,45.6c-0.2-1.2-2.5-1.7-2.2,1c-0.7-0.6-1.2-1.4-1.2,0.5c1.1,2.4,0.8,3.7,2.9,0.9
				C457.5,46.4,456.2,46.7,457.7,45.6z"/>
			<path class="st31" d="M597.5,141.9c9,1.4-3.9-4.4-1.2,4.7c1.2,1.7,0.7-1.5,1.2-1.8c0.3,1,1,2.7,1.9,2.3c0.5-1.1-2-2.8-0.5-3.3
				c0.5,0,1,0.2,0.9-0.6C599.2,142.6,595.7,143.9,597.5,141.9z M598.9,146.5c0.1,0,0.3-0.2,0.3,0.1
				C599.1,146.6,598.8,146.5,598.9,146.5z"/>
			<path class="st31" d="M472.6,84.7C472.7,84.7,472.7,84.7,472.6,84.7C472.7,84.7,472.7,84.7,472.6,84.7z"/>
			<path class="st31" d="M472.4,83.3c0-1.1-1.2,0.2-1.3-0.7c0.1-0.3-0.2-0.6-0.4-0.4c2-3.7-1.7,0.8-2,2c0.3,0.8,1.9,0.1,2.3,0.8
				c-0.7,0.9,0.5,0.2,0.7-0.1c-0.2,1.7,1.5,0.7,0.9-0.1c-0.6-0.3-0.3-0.4-0.1-0.8C472.2,83.7,472.1,83.7,472.4,83.3z"/>
			<path class="st31" d="M448.4,36.4c1.9,2.1,3.2-2.7,2.4,0.4C456.7,33.5,448.8,33.7,448.4,36.4z"/>
			<path class="st31" d="M513.5,42.9c0,1,1.3,0.4,1.3,0.6c-1.5,0.3,1.2,1.5,1.6,1.1c2-1.1,1.2-2.8-0.7-2.7c-0.4-1.1-0.3,0.8-0.7,0.3
				c-0.5,0.1-0.8-0.9-1.1-0.4C513.9,42.3,513.1,42,513.5,42.9z"/>
			<path class="st31" d="M457,38.5c-0.5,1.2-0.5,2.8,0.9,2.8c-0.7,0.4-0.9,1.3,0.1,1.4c3.5-2.2,0.4-5.4,0.3-2.3
				c-0.4-1.2-0.7-0.7-0.9,0C457.3,40,457.8,38.4,457,38.5z"/>
			<path class="st31" d="M500.4,80.6c-0.1,0.9-1.2,0.1-1,1.2c0.6,1-1.2,2.5,0.7,2.4C502.3,84.5,502.9,79,500.4,80.6z"/>
			<path class="st31" d="M607.1,98.6c0.2,0.9,1.2,2,1.4,0.7c-1.8-1.4,1.1-0.3,1.6-0.2c0.4-1.5,2.8-2.2-0.3-2.8
				C605.6,92.5,609.1,96.5,607.1,98.6z"/>
			<path class="st31" d="M459.3,35.2c1.3-0.1,0.5,2.2,1.5,2c0.6-0.7,1.6-3.3,0.4-3.5c-0.2-1.8-1.9-1-1.2,0.2
				C460.3,35.1,458.3,34.1,459.3,35.2z"/>
			<path class="st31" d="M590.6,148.7c0.8,0.1,1.9,0.9,2.5,0.3c-0.1-0.5-2.8-1-1.6-1.2c0.5-0.2-2.2-1.3-2.4-0.9
				C581.8,144.5,586.5,148.1,590.6,148.7z"/>
			<path class="st31" d="M597.8,125.3c-2.6-0.8-1.9,4.8,0.4,4.7c1.7,0,0.6,1.6,1.7,1.7c0.4-2-1.7-2.1-2.3-3.3
				C598.1,127.4,598.6,126.2,597.8,125.3z"/>
			<path class="st31" d="M614.4,187.7c-2.4,0.3-2.7-2.4-2.9,1.5C611.4,193.1,615.7,189.4,614.4,187.7z"/>
			<path class="st31" d="M456.7,107.9c-0.4-1.6-6.7-4.8-6.1-2.2C453.2,104,454.3,108.7,456.7,107.9z"/>
			<path class="st31" d="M553.3,39.3c-0.4,4.2,3.2,1.1,2.4-0.2C554.9,38.1,551.9,36.7,553.3,39.3z"/>
			<path class="st31" d="M601.3,133.6c-0.1,2.1-3,0.3-2.8,2.4c1.7-1.7,2.6,4.2,3.2,0.5C603.1,137.3,601.9,134,601.3,133.6z"/>
			<path class="st31" d="M457,109.5c6.6,1.7,0.3-3.5,0.8-0.6C457.8,109.1,456.1,108.8,457,109.5z"/>
			<path class="st31" d="M465.2,48.8c-0.2,1.6,0.9,1.2,1.8,1.5C467.9,49.2,465.2,46.8,465.2,48.8z"/>
			<path class="st31" d="M465.2,48.4C465.2,48.4,465.2,48.5,465.2,48.4C465.2,48.5,465.2,48.4,465.2,48.4z"/>
			<path class="st31" d="M565.2,129.5c-0.6-0.5-0.4,1-0.6,1.3C564.8,135,567.7,131.5,565.2,129.5z"/>
			<path class="st31" d="M461.7,37.3c1.5,1.6,2-1.8,0.6-2.1C461.8,35.7,461.7,36.6,461.7,37.3z"/>
			<path class="st31" d="M526.4,40.4c-1.1,3.2,2.9,0.1,1-1.1C526.8,39.4,527.1,40.5,526.4,40.4z"/>
			<path class="st31" d="M596.7,118.3c-1.2,0.2-1.4,3.1-0.2,3.3C596.7,120.7,597.5,119.1,596.7,118.3z"/>
			<path class="st31" d="M529.4,39.1c0.2,0.3-1.1,0.2,0.6,0.8c0.7-0.2,1.5-1.2,0.3-1.4C530.1,35,528.9,38.7,529.4,39.1z M530.1,38.8
				C530.2,38.9,530.1,38.8,530.1,38.8C530,38.8,530,38.8,530.1,38.8z"/>
			<path class="st31" d="M459.2,42.9c-0.4,0.5,0.4,1,0.7,1.3C461.2,43.9,460.2,40.9,459.2,42.9z"/>
			<path class="st31" d="M459.7,42.2C459.7,42.2,459.7,42.2,459.7,42.2C459.7,42.2,459.7,42.2,459.7,42.2z"/>
			<path class="st31" d="M583.3,39.8c0.7,0.4,2.5,0.9,2.4-0.4C585.3,38.6,581.7,38.8,583.3,39.8z"/>
			<path class="st31" d="M624,149.4c-0.7-0.2-0.9,1.6-1.8,0.7C617.6,150.3,625.6,152.4,624,149.4z"/>
			<path class="st31" d="M455.5,33.5c1,1.2,2.5,0.8,1.4-0.5C456.5,33.1,455.3,32.7,455.5,33.5z"/>
			<path class="st31" d="M582.2,45.4c0.5-0.4,2.2,0.2,2.2-0.6C583.5,43.4,581.9,43.6,582.2,45.4z"/>
			<path class="st31" d="M588.7,123.1c-0.3-0.8-1.6-0.5-1.9,0.2C586.8,124.9,588.8,124.4,588.7,123.1z"/>
			<path class="st31" d="M510.9,96.2c0.3,0.6-0.2,2.2,0.8,1.6C512.4,97.1,511.7,94.7,510.9,96.2z"/>
			<path class="st31" d="M463.8,58.5c0.1,1.3,1.9-0.1,1.2-0.9C464.5,57.1,463.9,57.9,463.8,58.5z"/>
			<path class="st31" d="M427.7,68.5c-0.7,0.1-0.4,2.3,0.1,2.6C427.5,70.3,428.6,69,427.7,68.5z"/>
			<path class="st31" d="M599.8,151.8c0.9-0.4,1.9-0.7,2.7-1.2C601.8,149.8,598.7,150.9,599.8,151.8z"/>
			<path class="st31" d="M412.6,48.2c0.6,0,0.5,0.8,0.8,1C414.8,49.1,412.4,46.4,412.6,48.2z"/>
			<path class="st31" d="M462.8,39.1c1.1-0.3-0.9-1.8-1.1-0.8C461.6,38.8,462.4,38.9,462.8,39.1z"/>
			<path class="st31" d="M600.4,131.1c-0.5,0.3,0.4,1.3,0,0.9C600.1,135.2,602.6,131.3,600.4,131.1z"/>
			<path class="st31" d="M531.7,38.9c-0.7,0.8,0.8,2,1,0.8C532.4,38.9,533,38.2,531.7,38.9z"/>
			<path class="st31" d="M525.1,40.8c1.5,0.7,0.1-1.1,1.6-0.6C526.5,39,524.4,40,525.1,40.8z"/>
			<path class="st31" d="M526,40.8C526,40.8,526,40.8,526,40.8C526,40.8,526,40.8,526,40.8z"/>
			<path class="st31" d="M530.3,40.5c-0.5,1.4,1.8,0.7,1.2-0.2C531,39.8,530.7,40.4,530.3,40.5z"/>
			<path class="st31" d="M533,38.6c0.6-0.3,0.6-1.1,0.1-1.6C532.4,36.9,532.3,38.4,533,38.6z"/>
			<path class="st31" d="M603.7,146.2c0.7-0.4,1.7,0.7,2.2,0.3C605.8,145.4,602.7,145.2,603.7,146.2z"/>
			<path class="st31" d="M634.9,169c0.9,0-1.1-2-1.5-2.4C632.6,167,634.4,168.7,634.9,169z"/>
			<path class="st31" d="M593.5,149.5c1.4,1.3,3.7-0.6,1.3-0.1C594.5,149.2,593.2,148.8,593.5,149.5z"/>
			<path class="st31" d="M598.8,150.2c1.2-0.6-1.1-0.3-1.6-0.7C595.4,149.7,598.1,150.4,598.8,150.2z"/>
			<path class="st31" d="M532.6,63c-0.3,1.1,0.9,1.4,1.1,0.3C533.6,62.8,532.7,62.5,532.6,63z"/>
			<path class="st31" d="M459.3,64.6c0-0.7-1-0.3-1.2,0.1C457.9,65.6,459.1,65.1,459.3,64.6z"/>
			<path class="st31" d="M565.1,48c0,0.4,0.4,0.5,0.7,0.5C567,48.1,565,46.5,565.1,48z"/>
			<path class="st31" d="M466.2,81.6c-0.5,0.3,0.8,1.2,1.2,1.2C467.6,82.2,466.6,81.7,466.2,81.6z"/>
			<path class="st31" d="M528.3,103.6c0.4-0.1,0.8-0.3,0.9-0.8C528.7,102.5,527,103.4,528.3,103.6z"/>
			<path class="st31" d="M450.6,37.3c-0.2-0.3-1.6,0.3-1.2,0.8C449.8,38.3,450.3,37.6,450.6,37.3z"/>
			<path class="st31" d="M511.6,95.4c0.2-0.3,0.4-1.3-0.1-1.3C510.8,94.1,511,95.6,511.6,95.4z"/>
			<path class="st31" d="M594.6,133.9c0.6,0.5,1.1-1.1,1.8-1.3C596.2,131.3,595.1,133.6,594.6,133.9z"/>
			<path class="st31" d="M599.7,132.8c-0.4-1.3-1.5,1-0.4,1.3C600,134,599.3,133.2,599.7,132.8z"/>
			<path class="st31" d="M454.7,108.8c-1,0,0.2,1.1,0.7,0.6C455.6,109.1,455,108.8,454.7,108.8z"/>
			<path class="st31" d="M599.3,132.4c0.1-0.5-0.6-0.7-0.9-0.9C598,132.3,598.7,133.3,599.3,132.4z"/>
			<path class="st31" d="M413.1,54.7c0.9-0.7-1.1-1.1-0.5-0.2C412.7,54.7,412.9,54.8,413.1,54.7z"/>
			<path class="st31" d="M542.9,55.3c0.6,0.4,1.1-0.5,0.4-0.9C542.8,54.2,542.5,55,542.9,55.3z"/>
			<path class="st31" d="M521.9,102.1c-0.8,0.4,1.2,0.9,1.5,0.6C523.2,102,522.4,102.3,521.9,102.1z"/>
			<path class="st31" d="M462.2,109.8c-0.2-0.1-0.5-0.1-0.8-0.1C460.7,110.4,462.9,110.4,462.2,109.8z"/>
			<path class="st31" d="M597,129.8c-0.2,0.3,0.3,1.6,0.7,1.1C598.1,130.6,597.5,129.6,597,129.8z"/>
			<path class="st31" d="M595.9,150.6c0.4,0.1,1.3,1.1,1.3,0.3C597.1,150.5,595.7,149.8,595.9,150.6z"/>
			<path class="st31" d="M457.6,37.5c0.4,0.1,0.5-1.1,0.3-1.4C457.6,36.4,457.3,37.2,457.6,37.5z"/>
			<path class="st31" d="M626.3,150.9c-0.5,0.1,0.2,1.5,0.7,1.2C627.5,151.7,626.6,151.2,626.3,150.9z"/>
			<path class="st31" d="M460.1,65.3c-0.3,0.2-0.5,0.7-0.1,1C460.4,66.2,460.8,65.1,460.1,65.3z"/>
			<path class="st31" d="M616.3,70.6c-0.6,0.2-0.3,1-0.1,1.4C616.4,71.6,617.2,70.6,616.3,70.6z"/>
			<path class="st31" d="M465.8,85.4C465.8,85.4,465.8,85.4,465.8,85.4C465.8,85.4,465.8,85.4,465.8,85.4z"/>
			<path class="st31" d="M466.3,85.8c1-0.1-0.3-0.7-0.6-1.1C465.2,85,466.2,85.5,466.3,85.8z"/>
			<path class="st31" d="M466.3,85.8C466.3,85.8,466.3,85.8,466.3,85.8C466.3,85.8,466.3,85.8,466.3,85.8z"/>
			<path class="st31" d="M612.2,95.7c0.2-0.5,1.1-0.9,0.9-1.3C612.6,94.3,611.6,95.4,612.2,95.7z"/>
			<path class="st31" d="M602.8,146.2c0.3-0.5-0.7-0.9-0.9-0.5C601.6,146.2,602.5,146.5,602.8,146.2z"/>
			<path class="st31" d="M496.2,51.5c-0.3,0.4,0.3,1,0.6,0.6C496.9,51.8,496.5,51.1,496.2,51.5z"/>
			<path class="st31" d="M409.1,63.2c-0.2,0-0.7,0.6-0.6,0.8C408.9,64,409.6,63.6,409.1,63.2z"/>
			<path class="st31" d="M463.4,32.9c0.2,0.2,0.6-0.4,0.5-0.7C463.4,31.8,463,32.4,463.4,32.9z"/>
			<path class="st31" d="M463.6,39.9c0.2,0.3,0.6,0.1,0.6-0.2C464.2,38.9,463.5,39.3,463.6,39.9z"/>
			<path class="st31" d="M408.1,63.6c-0.3,0-0.8,0.4-0.7,0.7C407.6,64.4,408.3,64,408.1,63.6z"/>
			<path class="st31" d="M581.5,43.2c-0.7-0.2-0.1,1.3,0.3,0.8C582,43.7,581.8,43.3,581.5,43.2z"/>
			<path class="st31" d="M459.2,36.7c0.1,0.2,0.2,0.4,0.4,0.4C460.4,36.9,459.2,35.7,459.2,36.7z"/>
			<path class="st31" d="M454.4,34.6c-0.4,2,1.3,1.3,1.9,0.2C456.3,34.1,454.8,34.1,454.4,34.6C454.9,33.1,453.3,34.2,454.4,34.6z"
				/>
			<path class="st31" d="M616.1,87.2c0.2-0.2,0.6-1.2,0.1-1.1C616,86.3,615.5,87.5,616.1,87.2z"/>
			<path class="st31" d="M458.4,73.5c0.2,0,0.5-0.2,0.4-0.5C458.6,72.4,457.8,73.3,458.4,73.5z"/>
			<path class="st31" d="M576.4,41.6c0.5-0.1-0.1-1-0.5-1.1C575.4,40.4,576.3,41.3,576.4,41.6z"/>
			<path class="st31" d="M457.4,44.9c0.7-0.2,0-0.5-0.4-0.4C456.4,44.7,457,45,457.4,44.9z"/>
			<path class="st31" d="M455.6,41.6c0.3,0.1,0.5-0.6,0.2-0.6C455.5,41,455.3,41.4,455.6,41.6z"/>
			<path class="st31" d="M510.3,45.5c-0.2,0.3,0.2,1.2,0.6,1.1C510.9,46.2,510.5,45.7,510.3,45.5z"/>
			<path class="st31" d="M461.4,64.1c-0.2,0.1,0.1,0.7,0.4,0.6C462.1,64.4,461.6,63.9,461.4,64.1z"/>
			<path class="st31" d="M456.4,76.4c-0.4,0.3,0.3,0.6,0.5,0.4C457,76.5,456.6,76.2,456.4,76.4z"/>
			<path class="st31" d="M599.6,80.5c-0.2-0.1-0.4,0-0.5,0.2C599,81.4,600.3,81,599.6,80.5z"/>
			<path class="st31" d="M607,179.1c-0.2,0.3,0.5,0.4,0.6,0.4C608.3,179.5,607.3,178.7,607,179.1z"/>
			<path class="st31" d="M548.2,54.5c-0.3-0.2-0.4,0.4-0.3,0.6C548.4,55.6,548.6,54.9,548.2,54.5z"/>
			<path class="st31" d="M608.9,148.7c-0.3,0.1-0.5,0.6-0.2,0.9C609,149.7,609.3,148.9,608.9,148.7z"/>
			<path class="st31" d="M605.7,154c0.2,0.1,0.6-0.3,0.3-0.5C605.3,153.2,604.8,153.7,605.7,154z"/>
			<path class="st31" d="M418.8,59.4c-0.5,0.3-0.1,0.7,0.3,0.4C419.2,59.6,419,59.2,418.8,59.4z"/>
			<path class="st31" d="M418.5,59.8c-0.6,0.3-1.9,0.4-1.2,1.6C417.8,61.2,419.4,60.5,418.5,59.8z"/>
			<path class="st31" d="M627.9,200.4c-0.2,0.2-0.3,0.3-0.3,0.6C628.1,201.4,628.6,200.4,627.9,200.4z"/>
			<path class="st31" d="M464.7,116.6c0,0.4,0.4,0.3,0.5,0C465.2,116.1,464.6,116.1,464.7,116.6z"/>
			<path class="st31" d="M532,38.7c0.4-0.3,0-0.8-0.4-0.6C531.4,38.4,531.8,38.8,532,38.7z"/>
			<path class="st31" d="M544.7,124.5c-0.2,0-0.2,0-0.4,0.1C544.4,125.2,545.6,124.7,544.7,124.5z"/>
			<path class="st31" d="M463.9,55.7c-0.2,0.2-0.4,0.1-0.5,0.3C463.3,56.8,464.5,55.7,463.9,55.7z"/>
			<path class="st31" d="M636.3,161.7c-0.2-0.7-0.7-0.5-0.5,0.1C635.9,162.2,636.4,162,636.3,161.7z"/>
			<path class="st31" d="M465.8,58.6c0.3-0.2-0.3-0.7-0.4-0.4C465.3,58.5,465.6,58.6,465.8,58.6z"/>
			<path class="st31" d="M631.8,155.4c0.3-0.1-0.3-0.9-0.6-1C631,154.7,631.5,155.2,631.8,155.4z"/>
			<path class="st31" d="M529.5,40.3c-0.2-0.2-0.7,0-0.4,0.3C529.5,40.7,530.1,40.7,529.5,40.3z"/>
			<path class="st31" d="M529.7,40.7C529.7,40.8,529.7,40.8,529.7,40.7C529.8,40.8,529.7,40.7,529.7,40.7z"/>
			<path class="st31" d="M552.9,44.5c0.3,0.1,0.6-0.3,0.4-0.6C553.2,43.9,552.6,44.3,552.9,44.5z"/>
			<path class="st31" d="M557.6,40.1c0.2-0.5-0.5-0.1-0.7-0.3C556.6,40.1,557.4,40.4,557.6,40.1z"/>
			<path class="st31" d="M472.7,150.6C472.7,150.6,472.7,150.6,472.7,150.6C472.6,150.6,472.6,150.6,472.7,150.6z"/>
			<path class="st31" d="M472.2,150.9c-0.7,0.8,0.4,0.5,0.5-0.2C472.6,150.5,472.3,150.8,472.2,150.9z"/>
			<path class="st31" d="M472.2,150.9C472.2,150.9,472.2,150.9,472.2,150.9C472.2,150.9,472.2,150.9,472.2,150.9z"/>
			<path class="st31" d="M487.6,32.5c0.3,0.2,0.5-0.3,0.2-0.5C487.6,32,487.4,32.4,487.6,32.5z"/>
			<path class="st31" d="M601.2,144.5c1,0.1,0-0.3-0.4-0.3C600.3,144.4,601,144.5,601.2,144.5z"/>
			<path class="st31" d="M631,155.6c0.6-0.3-1-1-0.6-0.3C630.6,155.5,630.8,155.6,631,155.6z"/>
			<path class="st31" d="M611.2,96.8C611.1,96.8,611.1,96.8,611.2,96.8C611.2,96.8,611.2,96.8,611.2,96.8z"/>
			<path class="st31" d="M611.6,96c-0.4-0.2-0.5,0.5-0.4,0.8C611.4,96.5,611.8,96.2,611.6,96z"/>
			<path class="st31" d="M527.9,41.9c0,0.3,0.4,0.3,0.5,0.1C528.5,41.6,527.9,41.4,527.9,41.9z"/>
			<path class="st31" d="M531.9,41.4c0,0.3,0.5,0.3,0.5-0.1C532.3,41,531.8,41,531.9,41.4z"/>
			<path class="st31" d="M578.8,138.5c-0.4-0.1-0.1,0.6,0.2,0.6C579.2,139,579,138.7,578.8,138.5z"/>
			<path class="st31" d="M529.2,41.4c0.5-0.3,0.6-0.5-0.1-0.5C528.9,40.9,528.9,41.5,529.2,41.4z"/>
			<path class="st31" d="M422.7,57.8C422.7,57.8,422.8,57.8,422.7,57.8C422.7,57.8,422.7,57.8,422.7,57.8z"/>
			<path class="st31" d="M613.8,94c0.2-0.1,0.5-0.4,0.3-0.7C613.9,93.3,613.5,93.9,613.8,94z"/>
			<path class="st31" d="M501.4,77.6C501.4,77.6,501.4,77.6,501.4,77.6C501.4,77.6,501.4,77.6,501.4,77.6z"/>
			<path class="st31" d="M501.8,77.1c-0.1-0.5-0.6,0.1-0.4,0.5C501.6,77.6,501.8,77.4,501.8,77.1z"/>
			<path class="st31" d="M587,143.1c-0.4,0.3,0.2,0.7,0.4,0.5C587.5,143.3,587.1,143.1,587,143.1z"/>
			<path class="st31" d="M630.1,154c0.5,0.1-0.3-0.9-0.5-0.6C629.6,153.6,629.9,153.9,630.1,154z"/>
			<path class="st31" d="M452.7,52.8c-0.2,0-0.5,0.5-0.2,0.5C452.6,53.2,453,52.9,452.7,52.8z"/>
			<path class="st31" d="M579.9,140.9c-0.6-0.2,0.1,0.9,0.3,0.4C580.2,141.1,580.1,141,579.9,140.9z"/>
			<path class="st31" d="M466.2,69c-0.1,0.1-0.3,0.3,0,0.4C466.4,69.4,466.5,68.9,466.2,69z"/>
			<path class="st31" d="M631.7,156.3c0,0.3,0.4,0.6,0.6,0.4C632.4,156.4,631.9,156.1,631.7,156.3z"/>
			<path class="st31" d="M458.9,38.9c-0.1-0.2-0.6-0.1-0.5,0.2C458.5,39.3,458.8,39.1,458.9,38.9z"/>
			<path class="st31" d="M458.6,39.2C458.6,39.2,458.6,39.2,458.6,39.2C458.6,39.2,458.6,39.2,458.6,39.2z"/>
			<path class="st31" d="M459.5,59.8c-0.2,0.1,0,0.5,0.2,0.6C459.8,60.3,459.6,59.9,459.5,59.8z"/>
			<path class="st31" d="M468.3,67.8c-0.3,0-0.3,0.5,0,0.5C468.4,68.3,468.4,68,468.3,67.8z"/>
			<path class="st31" d="M624.3,148.8c0,0.3,0,0.9,0.3,1C625,149.7,624.6,149.1,624.3,148.8z"/>
			<path class="st31" d="M529.9,36.5c0.2,0,0.3-0.1,0.3-0.3C530,35.9,529.6,36.2,529.9,36.5z"/>
			<path class="st31" d="M532.1,36.5c0.3,0,0.2-0.3,0-0.3C531.9,36.2,532,36.5,532.1,36.5z"/>
			<path class="st31" d="M452.9,36.3c0,0.2,0.3,0.4,0.4,0.1C453.3,36.2,453,36.1,452.9,36.3z"/>
			<path class="st31" d="M584.6,139.7c0.1-0.3-0.4-0.3-0.6-0.3C584.1,139.5,584.3,139.8,584.6,139.7z"/>
			<path class="st31" d="M605.8,143.4c-0.1,0.3,0.4,0.3,0.5,0.2C606.3,143.3,606,143.2,605.8,143.4z"/>
			<path class="st31" d="M547.5,49.7c0.2,0.1,0.2-0.3,0.1-0.4C547.4,49.2,547.3,49.7,547.5,49.7z"/>
			<path class="st31" d="M459.5,42.2c0.4-0.1-0.3-0.3-0.4-0.2C459.2,42.4,459.2,42.4,459.5,42.2z"/>
			<path class="st31" d="M459.1,42C459.1,42,459.1,42,459.1,42C459.1,42,459.1,42,459.1,42z"/>
			<path class="st31" d="M600.2,133.4c-0.5,0-0.2,0.6,0.1,0.4C600.6,133.7,600.5,133.3,600.2,133.4z"/>
			<path class="st31" d="M600,132.8c-0.3-0.5-0.6,0.8-0.2,0.7C599.9,133.2,600,133,600,132.8z"/>
			<path class="st31" d="M599.7,132.8C599.7,132.8,599.7,132.8,599.7,132.8C599.7,132.8,599.7,132.8,599.7,132.8z"/>
			<path class="st31" d="M599.9,133.5C599.8,133.5,599.9,133.5,599.9,133.5C599.9,133.5,599.9,133.5,599.9,133.5z"/>
			<path class="st31" d="M465.2,113.1c-0.2-0.2-0.2,0.2,0,0.3C465.3,113.4,465.3,113.2,465.2,113.1z"/>
			<path class="st31" d="M465.1,111.8c-0.1-0.2-0.3-0.1-0.3,0C464.7,112.1,465.1,112,465.1,111.8z"/>
			<path class="st31" d="M462.2,63.9c-0.2,0.1,0,0.4,0.1,0.4C462.6,64.4,462.4,63.9,462.2,63.9z"/>
			<path class="st31" d="M454.8,103.5c-0.2,0-0.2,0.4,0,0.4C455,104,454.9,103.5,454.8,103.5z"/>
			<path class="st31" d="M455.5,102.6c0.2-0.1,0.1-0.6-0.1-0.5C455.3,102.2,455.3,102.6,455.5,102.6z"/>
			<path class="st31" d="M454.5,102c-0.2,0.4,0.5,0.2,0.3,0C454.7,101.9,454.6,101.9,454.5,102z"/>
			<path class="st31" d="M457.6,107.2c0.2-0.1-0.1-0.4-0.2-0.2C457.2,107.1,457.4,107.3,457.6,107.2z"/>
			<path class="st31" d="M623.8,148.5C623.8,148.6,623.9,148.6,623.8,148.5C623.9,148.6,623.9,148.5,623.8,148.5z"/>
			<path class="st31" d="M623.1,148.1c0.2,0.3,0.4,0.5,0.8,0.5C623.7,148.2,623.4,148.1,623.1,148.1z"/>
			<path class="st31" d="M603,143.6c0.2,0.7,1.8-2.1,0.9-1.9c-0.4-0.1-0.2-0.4,0.1-0.5c-0.9-0.9-1.1,1.7-0.6,2.2
				C603.3,143.2,602.9,143.4,603,143.6z"/>
			<path class="st31" d="M574.8,127.5c-0.2,0-0.2,0.5,0,0.6C574.9,128,574.9,127.7,574.8,127.5z"/>
			<path class="st31" d="M606.1,150.2c0.1,0.4,0.6-0.1,0.3-0.3C606.2,149.8,606.1,150.1,606.1,150.2z"/>
			<path class="st31" d="M545.6,55.4c0.1-0.1,0-0.4-0.1-0.4C545.2,55,545.3,55.5,545.6,55.4z"/>
			<path class="st31" d="M464.9,56c-0.1-0.1-0.3-0.1-0.3,0.1C464.6,56.4,464.9,56.2,464.9,56z"/>
			<path class="st31" d="M599.4,109.7c0-0.3-0.6-0.2-0.4,0.1C599.1,109.9,599.4,109.9,599.4,109.7z"/>
			<path class="st31" d="M590.1,164.9c-0.4-0.3-0.2,0.5,0.1,0.5C590.2,165.2,590.2,165,590.1,164.9z"/>
			<path class="st31" d="M590,165.3C590,165.3,590,165.3,590,165.3C590,165.3,590,165.3,590,165.3z"/>
			<path class="st31" d="M527.9,41.7C528,41.7,528,41.7,527.9,41.7C528,41.7,528,41.7,527.9,41.7z"/>
			<path class="st31" d="M527.7,41.3c-0.3,0.1,0,0.4,0.3,0.4C527.9,41.5,527.9,41.3,527.7,41.3z"/>
			<path class="st31" d="M596.7,131.1c-0.2-0.3-0.5-0.2-0.3,0.2C596.5,131.3,596.7,131.2,596.7,131.1z"/>
			<path class="st31" d="M601.9,149.8c0.2,0.1,0.4-0.1,0.2-0.2C601.9,149.4,601.4,149.7,601.9,149.8z"/>
			<path class="st31" d="M497.7,37.4c0-0.1,0.1-0.3,0-0.4C497.5,36.9,497.5,37.4,497.7,37.4z"/>
			<path class="st31" d="M536.8,143.7c0.1-0.2-0.2-0.4-0.2-0.1C536.6,143.7,536.7,143.8,536.8,143.7z"/>
			<path class="st31" d="M497.4,43.7c-0.1,0-0.2,0.2-0.1,0.3C497.5,44.1,497.6,43.6,497.4,43.7z"/>
			<path class="st31" d="M519.6,99.4c-0.1-0.1-0.1-0.2-0.2-0.1C519.1,99.7,520.1,99.7,519.6,99.4z"/>
			<path class="st31" d="M519.7,99.6C519.7,99.7,519.7,99.6,519.7,99.6C519.7,99.6,519.7,99.6,519.7,99.6z"/>
			<path class="st31" d="M611.7,185.8c0.1-0.1,0.1-0.3,0-0.4C611.3,185.3,611.4,186,611.7,185.8z"/>
			<path class="st31" d="M603.4,144.6c0.3,0,0.1-0.4-0.1-0.3C603,144.3,603.2,144.6,603.4,144.6z"/>
			<path class="st31" d="M459.4,161.9c0.1-0.1,0-0.3-0.1-0.4C459.1,161.5,459.2,161.9,459.4,161.9z"/>
			<path class="st31" d="M610.1,156.6c0.1,0.3,0.5,0.2,0.3-0.1C610.3,156.4,610,156.4,610.1,156.6z"/>
			<path class="st31" d="M486.3,33.7c0.2-0.1,0-0.4-0.1-0.3C486.1,33.5,486.2,33.7,486.3,33.7z"/>
			<path class="st31" d="M636.6,162.9c-0.1-0.1-0.2-0.4-0.3-0.3C636.2,163,636.6,163.3,636.6,162.9z"/>
			<path class="st31" d="M534.4,59.5c-0.5,0.1,0.5,0.8,0.3,0.2C534.6,59.6,534.5,59.5,534.4,59.5z"/>
			<path class="st31" d="M587.5,137.2c-0.1-0.2-0.4-0.2-0.3,0C587.3,137.4,587.5,137.4,587.5,137.2z"/>
			<path class="st31" d="M600,129.9c-0.1,0.2,0.1,0.3,0.2,0.1C600.2,129.9,600.1,129.8,600,129.9z"/>
			<path class="st31" d="M465.2,113.9c0-0.1-0.1-0.1-0.1,0C465.1,114,465.2,114,465.2,113.9z"/>
			<path class="st31" d="M627.8,152.3C627.8,152.3,627.8,152.3,627.8,152.3C627.8,152.3,627.8,152.3,627.8,152.3z"/>
			<path class="st31" d="M628.2,152.8c0.4-0.1-0.1-0.6-0.4-0.5C627.9,152.5,628,152.7,628.2,152.8z"/>
			<path class="st31" d="M460.5,41.7c-0.1-0.1-0.2,0.2-0.1,0.3C460.5,42,460.7,41.8,460.5,41.7z"/>
			<path class="st31" d="M602.7,115.6c0-0.3-0.5,0.1-0.2,0.1C602.6,115.8,602.7,115.7,602.7,115.6z"/>
			<path class="st31" d="M459.9,53.3c0,0.3,0.4,0.3,0.4,0C460.2,53.3,460,53.2,459.9,53.3z"/>
			<path class="st31" d="M460.3,53.3C460.3,53.3,460.3,53.3,460.3,53.3C460.3,53.3,460.3,53.3,460.3,53.3z"/>
			<path class="st31" d="M472.3,42.2c-0.1-0.1-0.3-0.1-0.3,0C472.1,42.5,472.4,42.4,472.3,42.2z"/>
			<path class="st31" d="M610.2,145.5c0.1,0.1,0.3,0.1,0.4,0C610.4,145.3,610,145.2,610.2,145.5z"/>
			<path class="st31" d="M522.6,98c0.1-0.1,0-0.2-0.1-0.1C522.3,98,522.5,98.2,522.6,98z"/>
			<path class="st31" d="M549.6,44.6c0.1-0.1,0-0.2-0.1-0.2C549.3,44.3,549.4,44.9,549.6,44.6z"/>
			<path class="st31" d="M628.5,153.8c0.4,0.1,0-0.5-0.2-0.4C628.3,153.6,628.4,153.7,628.5,153.8z"/>
			<path class="st31" d="M427.9,67.6c0-0.3-0.2-0.2-0.2,0C427.8,67.8,427.9,67.7,427.9,67.6z"/>
			<path class="st31" d="M578.7,44.7c0,0.2,0.4,0.4,0.4,0.2C579.1,44.7,578.9,44.6,578.7,44.7z"/>
			<path class="st31" d="M610.3,144.8c0.2-0.1-0.2-0.4-0.3-0.3C610.1,144.7,610.1,144.9,610.3,144.8z"/>
			<path class="st31" d="M467.9,44C467.9,44,467.9,44,467.9,44C467.9,44,467.9,44,467.9,44z"/>
			<path class="st31" d="M467.7,44.3c0.2,0,0.2-0.1,0.2-0.3C467.7,43.9,467.5,44.2,467.7,44.3z"/>
			<path class="st31" d="M619.8,146.9c0-0.2-0.3-0.2-0.3-0.2C619.4,147,619.7,147.1,619.8,146.9z"/>
			<path class="st31" d="M635.9,167.8c0-0.1,0-0.1,0-0.2C635.5,167.2,635.6,168.1,635.9,167.8z"/>
			<path class="st31" d="M478.4,58.2c0-0.1-0.1-0.1-0.2,0C478.2,58.4,478.5,58.5,478.4,58.2z"/>
			<path class="st31" d="M459.7,162.4c-0.3-0.4-0.2,0.7,0,0.2C459.7,162.5,459.7,162.5,459.7,162.4z"/>
			<path class="st31" d="M459.6,162.7C459.6,162.8,459.6,162.8,459.6,162.7C459.5,162.7,459.5,162.8,459.6,162.7z"/>
			<path class="st31" d="M558.8,42c0.1-0.1,0-0.2-0.1-0.2C558.5,41.7,558.6,42.3,558.8,42z"/>
			<path class="st31" d="M486.9,32.5c0.2,0,0-0.3-0.1-0.2C486.6,32.3,486.8,32.5,486.9,32.5z"/>
			<path class="st31" d="M527.3,38.8c0.1,0,0.1-0.2,0-0.2C527.1,38.6,527.2,38.8,527.3,38.8z"/>
			<path class="st31" d="M614.8,186.5c-0.2,0.1,0.1,0.5,0.2,0.3C615,186.6,614.9,186.4,614.8,186.5z"/>
			<path class="st31" d="M459.8,167.7c-0.1,0-0.1,0.2,0,0.2C460.1,168.2,460.1,167.5,459.8,167.7z"/>
			<path class="st31" d="M622.6,154.3c-0.1-0.4-0.3-0.4-0.6-0.3C622.2,154,622.5,154.3,622.6,154.3z"/>
			<path class="st31" d="M622,154C622,154,622,154,622,154C622,154,622,154,622,154z"/>
			<path class="st31" d="M451.3,53.3c0,0.1,0.2,0.1,0.2,0C451.5,53.1,451.2,53.1,451.3,53.3z"/>
			<path class="st31" d="M496.2,105.9c0.1,0.1,0.2-0.1,0.1-0.2C496.2,105.7,496,105.8,496.2,105.9z"/>
			<path class="st31" d="M601.7,117.4c-0.1-0.1-0.2-0.1-0.2,0.1C601.6,117.7,601.7,117.5,601.7,117.4z"/>
			<path class="st31" d="M456.4,104.4c-0.1-0.1-0.1-0.1-0.1,0C456.3,104.5,456.5,104.5,456.4,104.4z"/>
			<path class="st31" d="M455,104.6c0.1-0.1,0-0.4-0.1-0.2C454.8,104.5,454.9,104.6,455,104.6z"/>
			<path class="st31" d="M457.1,105.7C457.1,105.7,457,105.7,457.1,105.7C457,105.7,457,105.7,457.1,105.7z"/>
			<path class="st31" d="M457.2,105.9c0.1-0.1,0-0.2-0.1-0.2C457.1,105.8,457.1,106,457.2,105.9z"/>
			<path class="st31" d="M477.6,55.8c0-0.1-0.1-0.2-0.2-0.1C477.4,55.8,477.6,56,477.6,55.8z"/>
			<path class="st31" d="M451.4,105.8c0,0.1,0,0.1,0.1,0.2C451.7,106.1,451.6,105.5,451.4,105.8z"/>
			<path class="st31" d="M466.1,114.4c0,0.1,0.1,0.2,0.1,0.1C466.3,114.4,466.1,114.4,466.1,114.4z"/>
			<path class="st31" d="M464.3,55.3c0-0.1-0.1-0.1-0.1,0C464.1,55.4,464.4,55.4,464.3,55.3z"/>
			<path class="st31" d="M598.4,131.1C598.4,130.8,598.1,131.1,598.4,131.1C598.4,131.2,598.4,131.1,598.4,131.1z"/>
			<path class="st31" d="M574.5,128.7c-0.1,0.1,0,0.3,0.1,0.2C574.6,128.8,574.6,128.7,574.5,128.7z"/>
			<path class="st31" d="M598.6,136.4c0-0.2-0.3-0.1-0.2,0.1C598.5,136.6,598.6,136.5,598.6,136.4z"/>
			<path class="st31" d="M605.3,144.8c-0.1,0-0.2,0.1-0.1,0.2C605.5,145.1,605.5,144.9,605.3,144.8z"/>
			<path class="st31" d="M497,47c0-0.1,0.1-0.1,0.1-0.2C497,46.9,497,47,497,47z"/>
			<path class="st31" d="M600.8,150c-0.1-0.1-0.3-0.1-0.3,0C600.5,150.2,600.8,150.1,600.8,150z"/>
			<path class="st31" d="M622.9,154.6c0-0.1-0.2-0.1-0.3-0.2C622.7,154.5,622.9,154.8,622.9,154.6z"/>
			<path class="st31" d="M622.7,154.4C622.6,154.4,622.6,154.3,622.7,154.4C622.6,154.4,622.6,154.4,622.7,154.4z"/>
			<path class="st31" d="M612.2,159.6C612.2,159.6,612.1,159.6,612.2,159.6C612.2,159.6,612.2,159.6,612.2,159.6z"/>
			<path class="st31" d="M612.4,159.4c-0.1,0-0.2,0.1-0.2,0.2C612.3,159.6,612.6,159.6,612.4,159.4z"/>
			<path class="st31" d="M589.9,165.3c-0.3,0-0.2,0.3,0.1,0.4C589.9,165.6,590,165.3,589.9,165.3z"/>
			<path class="st31" d="M498.3,37c0-0.1-0.1-0.1-0.1,0C498.2,37.2,498.3,37.2,498.3,37z"/>
			<path class="st31" d="M530.7,38.3c-0.4-0.2-0.2,0.4,0.1,0.3C530.8,38.5,530.8,38.4,530.7,38.3z"/>
			<path class="st31" d="M457.3,46.5c-0.1,0-0.1,0.1-0.1,0.2C457.4,46.8,457.4,46.6,457.3,46.5z"/>
			<path class="st31" d="M545.7,54.1c0.1-0.2-0.1-0.2-0.2-0.1C545.4,54.2,545.6,54.2,545.7,54.1z"/>
			<path class="st31" d="M423.2,57.7c-0.1,0.1,0,0.3,0.1,0.2C423.4,57.9,423.3,57.7,423.2,57.7z"/>
			<path class="st31" d="M513.1,64.7c0.2-0.1,0.3-0.3,0-0.1C513,64.6,513,64.7,513.1,64.7z"/>
			<path class="st31" d="M513.3,64.5C513.3,64.5,513.3,64.5,513.3,64.5C513.3,64.5,513.3,64.5,513.3,64.5z"/>
			<path class="st31" d="M526.1,69.5c0.1,0.1,0.1,0.2,0.2,0.1C526.3,69.5,526.2,69.4,526.1,69.5z"/>
			<path class="st31" d="M465.5,65.9c-0.1,0-0.1,0.2,0,0.2C465.7,66.2,465.7,65.8,465.5,65.9z"/>
			<path class="st31" d="M553.8,45.2c-0.1,0-0.1,0.2,0,0.2C554,45.4,553.9,45.1,553.8,45.2z"/>
			<path class="st31" d="M615.7,86.1c0-0.1-0.1-0.1-0.1-0.1C615.5,86.1,615.7,86.2,615.7,86.1z"/>
			<path class="st31" d="M607.6,104.7c0.1-0.1,0.1-0.2,0-0.3C607.5,104.5,607.5,104.6,607.6,104.7z"/>
			<path class="st31" d="M507.6,96.9c0-0.2-0.3-0.1-0.2,0.1C507.5,97,507.6,97,507.6,96.9z"/>
			<path class="st31" d="M524.6,102c0.1,0,0.2-0.2,0.1-0.3C524.5,101.7,524.5,101.9,524.6,102z"/>
			<path class="st31" d="M447.8,99C447.8,99,447.8,99,447.8,99C447.8,99,447.8,99,447.8,99z"/>
			<path class="st31" d="M447.9,99.2c0.2,0.1,0-0.2-0.1-0.2C447.8,99.1,447.8,99.2,447.9,99.2z"/>
			<path class="st31" d="M459.2,44.1C459.2,44.1,459.2,44,459.2,44.1C459.1,43.9,459.1,44.1,459.2,44.1z"/>
			<path class="st31" d="M452.4,43.8C452.4,43.8,452.4,43.8,452.4,43.8C452.4,43.7,452.3,43.7,452.4,43.8z"/>
			<path class="st31" d="M598.7,80.7c0,0.1,0.2,0,0.1-0.1C598.8,80.5,598.7,80.7,598.7,80.7z"/>
			<path class="st31" d="M550,50.6C550.1,50.6,550.1,50.5,550,50.6C550,50.6,550,50.6,550,50.6z"/>
			<path class="st31" d="M550,51.3C549.9,51.3,549.9,51.2,550,51.3C549.9,51.3,550,51.3,550,51.3z"/>
			<path class="st31" d="M433.9,44.7C433.9,44.7,433.9,44.7,433.9,44.7C433.9,44.8,433.9,44.8,433.9,44.7z"/>
			<path class="st31" d="M434.1,44.7c0-0.1-0.1-0.1-0.1-0.1C433.9,44.7,434,44.8,434.1,44.7z"/>
			<path class="st31" d="M546.8,51.4c0,0.1,0,0.1,0.1,0.2C547,51.5,546.9,51.2,546.8,51.4z"/>
			<path class="st31" d="M508.2,96.6C508.2,96.6,508.2,96.5,508.2,96.6C508,96.6,508.2,96.7,508.2,96.6z"/>
			<path class="st31" d="M463.4,57.2L463.4,57.2C463.4,57.2,463.3,57.2,463.4,57.2z"/>
			<path class="st31" d="M530.6,37.3c0-0.1,0-0.1-0.1-0.2C530.4,37.2,530.5,37.5,530.6,37.3z"/>
			<path class="st31" d="M601.2,110.7C601.2,110.6,601.2,110.6,601.2,110.7C601.1,110.7,601.1,110.7,601.2,110.7z"/>
			<path class="st31" d="M549.4,52.3C549.4,52.3,549.4,52.3,549.4,52.3C549.5,52.2,549.3,52.1,549.4,52.3z"/>
			<path class="st31" d="M495.4,49.2c0,0.1,0,0.2,0,0.3C495.5,49.3,495.5,49.3,495.4,49.2z"/>
			<path class="st31" d="M459.6,35.6c0.1,0,0.1-0.1,0.1-0.2C459.6,35.5,459.6,35.5,459.6,35.6z"/>
			<path class="st31" d="M546.4,54.6c0,0-0.1,0-0.1,0C546.2,54.7,546.4,54.7,546.4,54.6z"/>
			<path class="st31" d="M497.8,37.6C497.8,37.6,497.8,37.6,497.8,37.6C497.7,37.3,497.7,37.8,497.8,37.6z"/>
			<path class="st31" d="M497.7,37.5C497.7,37.4,497.7,37.4,497.7,37.5C497.7,37.4,497.7,37.4,497.7,37.5z"/>
			<path class="st31" d="M538.8,62.7L538.8,62.7C538.9,62.7,538.8,62.7,538.8,62.7z"/>
			<path class="st31" d="M453.6,50.4c0,0,0-0.1,0-0.1C453.5,50.2,453.5,50.4,453.6,50.4z"/>
			<path class="st31" d="M463.2,37.2C463.3,37.2,463.3,37.2,463.2,37.2C463.1,36.9,463.1,37.4,463.2,37.2z"/>
			<path class="st31" d="M530,40.9c-0.1-0.1-0.3-0.2-0.3,0.1C529.9,41,529.9,40.9,530,40.9z"/>
			<path class="st31" d="M529.7,41C529.7,41,529.7,41,529.7,41C529.7,41,529.8,41,529.7,41z"/>
			<path class="st31" d="M602.1,110.8c0,0.1,0.1,0.3,0.2,0.4C602.2,111.1,602.2,110.9,602.1,110.8z"/>
			<path class="st31" d="M465.9,38.1c0-0.1,0-0.1-0.1-0.2C465.8,38,465.8,38.1,465.9,38.1z"/>
			<path class="st31" d="M624.3,148.8c-0.1-0.1-0.2-0.2-0.4-0.2C624,148.7,624.1,148.8,624.3,148.8z"/>
			<path class="st31" d="M624.3,148.8C624.3,148.8,624.3,148.8,624.3,148.8C624.4,148.8,624.3,148.8,624.3,148.8z"/>
			<path class="st31" d="M514.6,41c0-0.1-0.1-0.1-0.2-0.1C514.4,41.1,514.5,41.2,514.6,41z"/>
			<path class="st31" d="M514.4,41C514.4,41,514.3,40.9,514.4,41C514.3,40.9,514.3,41,514.4,41z"/>
			<path class="st31" d="M578.6,44.5c-0.1,0-0.1,0-0.1,0.1C578.5,44.8,578.8,44.7,578.6,44.5z"/>
			<path class="st31" d="M578.7,44.7C578.7,44.7,578.7,44.7,578.7,44.7C578.7,44.7,578.7,44.7,578.7,44.7z"/>
			<path class="st31" d="M452.5,51.9C452.5,51.9,452.6,51.9,452.5,51.9C452.5,51.9,452.5,51.9,452.5,51.9z"/>
			<path class="st31" d="M452.5,52.1c0,0,0-0.1,0-0.2C452.5,52,452.4,52.1,452.5,52.1z"/>
			<path class="st31" d="M503.5,76.5C503.5,76.4,503.5,76.4,503.5,76.5C503.5,76.5,503.5,76.5,503.5,76.5z"/>
			<path class="st31" d="M465,112.6c0,0,0-0.1,0-0.1C464.9,112.5,464.9,112.6,465,112.6z"/>
			<path class="st31" d="M519.7,99.8C519.7,99.8,519.7,99.8,519.7,99.8C519.7,99.8,519.7,99.8,519.7,99.8z"/>
			<path class="st31" d="M519.6,99.9c0.1,0.1,0.1,0,0.1-0.1C519.6,99.8,519.6,99.8,519.6,99.9z"/>
			<path class="st31" d="M603.1,113.4C603.1,113.5,603.2,113.5,603.1,113.4C603.3,113.5,603.2,113.3,603.1,113.4z"/>
			<path class="st31" d="M478.1,55.2C478.1,55.2,478.1,55.3,478.1,55.2C478.1,55.2,478.1,55.2,478.1,55.2z"/>
			<path class="st31" d="M478,55c-0.2,0.1,0,0.2,0.1,0.2C478.1,55.1,478.1,55,478,55z"/>
			<path class="st31" d="M472.9,42.3c-0.1,0-0.1-0.1-0.2,0C472.7,42.4,472.8,42.4,472.9,42.3z"/>
			<path class="st31" d="M522.9,100.9C522.9,100.8,522.9,100.8,522.9,100.9C522.8,100.8,522.9,100.9,522.9,100.9z"/>
			<path class="st31" d="M456.5,105.2c0,0,0,0.1,0,0.1C456.5,105.3,456.5,105.2,456.5,105.2z"/>
			<path class="st31" d="M512.4,94.1C512.4,94.1,512.5,94.1,512.4,94.1C512.5,94,512.4,94.1,512.4,94.1z"/>
			<path class="st31" d="M512.3,94.1C512.4,94.1,512.4,94.1,512.3,94.1C512.4,94,512.2,94.1,512.3,94.1z"/>
			<path class="st31" d="M517.7,45.7c0,0.1,0,0.2,0.1,0.1C517.8,45.8,517.7,45.6,517.7,45.7z"/>
			<path class="st31" d="M547.6,48.4c0-0.1-0.1-0.1-0.1-0.1C547.4,48.3,547.5,48.4,547.6,48.4z"/>
			<path class="st31" d="M547,48.5C547,48.5,547,48.6,547,48.5C547.1,48.5,547,48.4,547,48.5z"/>
			<path class="st31" d="M617.1,132.3C617,132.3,617,132.3,617.1,132.3C617.1,132.4,617.2,132.3,617.1,132.3z"/>
			<path class="st31" d="M501.9,79.8C501.9,79.8,501.9,79.8,501.9,79.8C501.9,79.8,501.9,79.8,501.9,79.8z"/>
			<path class="st31" d="M501.7,79.9c0,0.2,0.2,0.1,0.2,0C501.8,79.8,501.7,79.8,501.7,79.9z"/>
			<path class="st31" d="M464.7,115.2C464.8,115.2,464.8,115.2,464.7,115.2C464.8,115.1,464.7,115.1,464.7,115.2z"/>
			<path class="st31" d="M409.5,63.1C409.6,63.2,409.6,63.2,409.5,63.1C409.6,63.1,409.6,63.1,409.5,63.1z"/>
			<path class="st31" d="M574.5,129.8c0,0,0.1,0.1,0.1,0C574.6,129.7,574.5,129.7,574.5,129.8z"/>
			<path class="st31" d="M427.4,64.2C427.4,64.2,427.4,64.2,427.4,64.2C427.4,63.9,427.2,64.3,427.4,64.2z"/>
			<path class="st31" d="M594.3,134.6C594.3,134.6,594.3,134.6,594.3,134.6C594.3,134.5,594.3,134.6,594.3,134.6z"/>
			<path class="st31" d="M575.7,133c-0.1,0-0.1,0.1,0,0.2C575.7,133.2,575.8,133.1,575.7,133z"/>
			<path class="st31" d="M597.7,136.8C597.6,136.8,597.6,136.9,597.7,136.8C597.8,136.9,597.8,136.8,597.7,136.8z"/>
			<path class="st31" d="M596.8,137.4C596.8,137.4,596.9,137.4,596.8,137.4C597,137.4,596.8,137.3,596.8,137.4z"/>
			<path class="st31" d="M602.5,139C602.5,139,602.5,139.1,602.5,139C602.6,139,602.6,138.8,602.5,139z"/>
			<path class="st31" d="M472.2,125.3C472.2,125.3,472.2,125.3,472.2,125.3C472.2,125.3,472.2,125.3,472.2,125.3z"/>
			<path class="st31" d="M472.5,125.5c-0.1-0.1-0.2-0.2-0.3-0.2C472.2,125.5,472.4,125.5,472.5,125.5z"/>
			<path class="st31" d="M584.6,140.7c-0.2,0.1,0.1,0.3,0.1,0.1C584.7,140.7,584.6,140.7,584.6,140.7z"/>
			<path class="st31" d="M584.5,140.9C584.5,140.9,584.5,140.8,584.5,140.9C584.5,140.8,584.5,140.9,584.5,140.9z"/>
			<path class="st31" d="M584.4,141C584.4,140.9,584.5,140.8,584.4,141C584.4,141,584.4,141,584.4,141z"/>
			<path class="st31" d="M622.3,147.7c0,0.1,0.1,0.1,0.1,0C622.4,147.7,622.3,147.7,622.3,147.7z"/>
			<path class="st31" d="M581.1,142.7C581,142.7,581,142.8,581.1,142.7C581.1,142.8,581.1,142.7,581.1,142.7z"/>
			<path class="st31" d="M598.3,147c0,0.1,0.1,0.1,0.1,0C598.4,146.9,598.4,146.9,598.3,147z"/>
			<path class="st31" d="M620.2,150.1c0,0.1,0,0.1,0,0.1C620.3,150.2,620.3,150.2,620.2,150.1z"/>
			<path class="st31" d="M597.2,147.6c0.1,0,0.1,0,0-0.1C597.1,147.5,597.1,147.5,597.2,147.6z"/>
			<path class="st31" d="M599.7,150C599.5,150,599.8,150.1,599.7,150C599.7,150,599.7,150,599.7,150z"/>
			<path class="st31" d="M599.2,152.1c0.2-0.1-0.1-0.2-0.1-0.1C599.1,152.1,599.1,152.1,599.2,152.1z"/>
			<path class="st31" d="M538.1,144.7C538,144.7,538,144.8,538.1,144.7C538.1,144.8,538.1,144.8,538.1,144.7z"/>
			<path class="st31" d="M637,163.1c0,0,0-0.1,0-0.1C636.9,162.9,636.9,163.1,637,163.1z"/>
			<path class="st31" d="M637.1,164.4c0.1,0,0.2,0,0.1-0.1C637.1,164.3,637,164.4,637.1,164.4z"/>
			<path class="st31" d="M637.6,165.6C637.6,165.6,637.6,165.6,637.6,165.6C637.6,165.7,637.6,165.6,637.6,165.6z"/>
			<path class="st31" d="M636.3,168.3c-0.1,0-0.1,0.2,0,0.2C636.5,168.6,636.4,168.4,636.3,168.3z"/>
			<path class="st31" d="M614.8,187c-0.2,0.1,0.1,0.2,0.2,0.1C614.9,187.1,614.9,187,614.8,187z"/>
			<path class="st31" d="M502.8,81.6C502.8,81.6,502.7,81.6,502.8,81.6C502.6,81.8,502.9,81.8,502.8,81.6z"/>
			<path class="st31" d="M536.1,63.5C536.1,63.5,536.1,63.5,536.1,63.5C535.8,63.6,536.3,63.6,536.1,63.5z"/>
			<path class="st31" d="M536,63.6C536,63.6,535.9,63.6,536,63.6C536,63.6,536,63.6,536,63.6z"/>
			<path class="st31" d="M516.1,61.8C516.1,61.9,516.1,61.9,516.1,61.8C516.2,61.9,516.2,61.7,516.1,61.8z"/>
			<path class="st31" d="M467.2,173.6C467.3,173.6,467.3,173.6,467.2,173.6C467.3,173.5,467.1,173.6,467.2,173.6z"/>
			<path class="st31" d="M476.9,53.9c0,0,0,0.1,0,0.1C477,54,477,53.8,476.9,53.9z"/>
			<path class="st31" d="M462.4,55.3C462.4,55.3,462.3,55.3,462.4,55.3C462.4,55.3,462.4,55.3,462.4,55.3z"/>
			<path class="st31" d="M612.8,65.7C612.8,65.8,612.8,65.8,612.8,65.7C612.8,65.8,612.8,65.8,612.8,65.7z"/>
			<path class="st31" d="M612.8,65.8C612.8,65.8,612.8,65.8,612.8,65.8C612.8,65.8,612.8,65.8,612.8,65.8z"/>
			<path class="st31" d="M517.8,60.9C517.8,61,517.8,61,517.8,60.9C517.8,61,517.8,61,517.8,60.9z"/>
			<path class="st31" d="M517.8,60.9C517.8,60.9,517.8,60.9,517.8,60.9C517.9,60.9,517.9,60.9,517.8,60.9z"/>
			<path class="st31" d="M522.9,97.6L522.9,97.6C522.9,97.6,522.9,97.7,522.9,97.6z"/>
			<path class="st31" d="M515.3,101.2C515.3,101.2,515.3,101.2,515.3,101.2C515.3,101.2,515.3,101.2,515.3,101.2z"/>
			<path class="st31" d="M457,105.7C457,105.7,457,105.7,457,105.7C457,105.6,457,105.6,457,105.7z"/>
			<path class="st31" d="M463.8,110.3C463.9,110.3,463.9,110.3,463.8,110.3C463.9,110.2,463.8,110.3,463.8,110.3z"/>
			<path class="st31" d="M506.7,97.5L506.7,97.5C506.7,97.4,506.7,97.4,506.7,97.5z"/>
			<path class="st31" d="M490.5,31.5C490.5,31.5,490.5,31.6,490.5,31.5C490.5,31.5,490.5,31.5,490.5,31.5z"/>
			<path class="st31" d="M607.7,89.2C607.7,89.2,607.7,89.1,607.7,89.2C607.7,89.2,607.7,89.2,607.7,89.2z"/>
			<path class="st31" d="M607.9,89.4c0-0.1-0.1-0.2-0.2-0.2C607.7,89.3,607.8,89.3,607.9,89.4z"/>
			<path class="st31" d="M413.2,62.8C413.2,62.8,413.2,62.8,413.2,62.8C413.2,62.7,413.2,62.8,413.2,62.8z"/>
			<path class="st31" d="M413.2,62.8C413.2,62.8,413.2,62.8,413.2,62.8C413.1,62.8,413.1,62.8,413.2,62.8z"/>
			<path class="st31" d="M607.9,89.4C607.9,89.4,607.9,89.4,607.9,89.4C607.9,89.4,607.9,89.4,607.9,89.4z"/>
			<path class="st31" d="M608.1,89.6c0-0.1-0.1-0.1-0.1-0.2C607.9,89.5,608,89.6,608.1,89.6z"/>
			<path class="st31" d="M601.5,139.6C601.6,139.7,601.6,139.6,601.5,139.6C601.6,139.6,601.5,139.6,601.5,139.6z"/>
			<path class="st31" d="M577.4,137.2C577.5,137.2,577.5,137.2,577.4,137.2C577.4,137.1,577.4,137.2,577.4,137.2z"/>
			<path class="st31" d="M603.7,143.6C603.7,143.6,603.7,143.6,603.7,143.6C603.6,143.5,603.7,143.6,603.7,143.6z"/>
			<path class="st31" d="M603.7,143.6C603.7,143.6,603.7,143.6,603.7,143.6C603.7,143.6,603.7,143.7,603.7,143.6z"/>
			<path class="st31" d="M415.5,61.2C415.5,61.2,415.5,61.1,415.5,61.2C415.5,61.2,415.5,61.2,415.5,61.2z"/>
			<path class="st31" d="M477.3,35.9C477.3,35.9,477.3,35.9,477.3,35.9C477.4,35.8,477.3,35.9,477.3,35.9z"/>
			<path class="st31" d="M623,148C623,148,623,148.1,623,148C623.1,148,623,148,623,148z"/>
			<path class="st31" d="M598.3,130C598.3,130,598.3,130,598.3,130C598.3,130,598.3,130,598.3,130z"/>
			<path class="st31" d="M598.2,130.1c0,0,0-0.1,0-0.1C598.1,130,598.1,130,598.2,130.1z"/>
			<path class="st31" d="M608.1,89.6C608.1,89.6,608.1,89.6,608.1,89.6C608.1,89.6,608.1,89.6,608.1,89.6z"/>
			<path class="st31" d="M627.8,152.3C627.8,152.2,627.8,152.2,627.8,152.3C627.7,152.2,627.8,152.3,627.8,152.3z"/>
			<path class="st31" d="M530.9,39.7L530.9,39.7C530.9,39.7,530.9,39.7,530.9,39.7z"/>
			<path class="st31" d="M628.2,153.4C628.2,153.4,628.3,153.5,628.2,153.4C628.3,153.4,628.2,153.4,628.2,153.4z"/>
			<path class="st31" d="M599.5,151.8c-0.1-0.1-0.2,0.1-0.2,0.2C599.3,152,599.4,151.8,599.5,151.8z"/>
			<path class="st31" d="M540.4,145.5C540.5,145.5,540.5,145.6,540.4,145.5C540.5,145.5,540.4,145.5,540.4,145.5z"/>
			<path class="st31" d="M459.3,39.2L459.3,39.2C459.2,39.3,459.2,39.2,459.3,39.2z"/>
			<path class="st31" d="M517.7,42.4C517.7,42.4,517.7,42.5,517.7,42.4C517.7,42.5,517.7,42.4,517.7,42.4z"/>
			<path class="st31" d="M517.7,42.5C517.6,42.5,517.6,42.5,517.7,42.5C517.7,42.5,517.6,42.5,517.7,42.5z"/>
			<path class="st31" d="M554.3,44.8L554.3,44.8C554.4,44.8,554.3,44.7,554.3,44.8z"/>
			<path class="st31" d="M422.6,57.8C422.6,57.9,422.6,57.9,422.6,57.8C422.6,57.9,422.6,57.8,422.6,57.8z"/>
			<path class="st31" d="M422.6,57.9c0.1,0.1-0.4,0.4-0.2,0.5C422.9,58.5,423.2,57.6,422.6,57.9z"/>
			<path class="st31" d="M573,47.4c0.1,0,0.1-0.1,0-0.1C573,47.3,573,47.4,573,47.4z"/>
			<path class="st31" d="M429.4,72C429.4,72,429.4,72,429.4,72C429.5,72,429.5,71.9,429.4,72z"/>
			<path class="st31" d="M471.2,60.8c0,0,0,0.1,0,0.1C471.3,60.8,471.3,60.8,471.2,60.8z"/>
			<path class="st31" d="M566.5,49.1C566.5,49.1,566.5,49.1,566.5,49.1C566.5,49.1,566.5,49.1,566.5,49.1z"/>
			<path class="st31" d="M566.4,49.1C566.4,49.1,566.4,49.1,566.4,49.1C566.5,49,566.4,49,566.4,49.1z"/>
			<path class="st31" d="M467.9,43.9C467.9,43.9,467.9,43.9,467.9,43.9C467.9,43.9,468,43.9,467.9,43.9z"/>
			<path class="st31" d="M458.1,43.7L458.1,43.7C458,43.7,458,43.7,458.1,43.7z"/>
			<path class="st31" d="M548.9,52.2L548.9,52.2C548.9,52.3,548.9,52.3,548.9,52.2z"/>
			<path class="st31" d="M462.5,172.5C462.5,172.5,462.5,172.5,462.5,172.5C462.5,172.5,462.5,172.5,462.5,172.5z"/>
			<path class="st31" d="M462.5,172.5c0,0-0.1,0-0.1,0C462.4,172.6,462.4,172.6,462.5,172.5z"/>
			<path class="st31" d="M516.6,79.6c0.3,0.5,0.6-0.5,0.5-0.8C516.7,78.7,516.5,79.2,516.6,79.6z"/>
			<path class="st31" d="M517.5,75.9c0.2,0,0.1-0.4,0-0.5C517.2,75.5,517.2,75.9,517.5,75.9z"/>
			<path class="st31" d="M514.7,81.8c0.1,0,0-0.2,0-0.2C514.5,81.4,514.5,81.8,514.7,81.8z"/>
			<path class="st31" d="M519.2,77.7c0.1,0.1,0.2-0.1,0.2-0.2C519.4,77.3,519,77.5,519.2,77.7z"/>
			<path class="st31" d="M517.1,78.8C517.1,78.8,517.1,78.8,517.1,78.8C517.1,78.8,517.1,78.8,517.1,78.8z"/>
			<path class="st31" d="M519,78.6C519,78.6,519.1,78.6,519,78.6C519,78.5,519,78.6,519,78.6z"/>
		</g>
	</g>
</g>
</svg>
