<svg id="Layer_1" data-name="Layer 1" xmlns="http://www.w3.org/2000/svg" viewBox="0 0 800 360"><defs><style>.cls-1{fill:#e3f5ed;}.cls-10,.cls-11,.cls-12,.cls-2{fill:none;}.cls-2{stroke:#000;stroke-width:0.5px;}.cls-11,.cls-12,.cls-2{stroke-linecap:round;stroke-linejoin:round;}.cls-3{fill:#096;}.cls-4{fill:#6abf96;}.cls-5{fill:#89ceab;}.cls-6{fill:#005635;}.cls-7{fill:#007048;}.cls-8{fill:#019966;}.cls-9{fill:#1eaf7b;}.cls-10,.cls-11{stroke:#6abf96;}.cls-10{stroke-miterlimit:10;}.cls-12{stroke:#1e1b1c;}.cls-13,.cls-14,.cls-15,.cls-16{fill:#fff;}.cls-13{opacity:0.6;}.cls-13,.cls-14,.cls-15,.cls-16,.cls-17,.cls-18{isolation:isolate;}.cls-14{opacity:0.4;}.cls-15{opacity:0.7;}.cls-16{opacity:0.8;}.cls-18{font-size:10px;font-family:Roboto-Regular, Roboto;}</style></defs><g id="Houses_2" data-name="Houses 2"><rect class="cls-1" y="-2" width="800" height="364"/><line class="cls-2" x1="252.5" y1="205.4" x2="252.5" y2="70.1"/><path class="cls-3" d="M252.5,340.7h37.2V255.1a3.37,3.37,0,0,0-.5-1.7l-26.4-32.6V203.2a.94.94,0,0,0-1-1H243.4a1,1,0,0,0-1,1v17.6l-26.5,32.6a2.62,2.62,0,0,0-.5,1.7v85.6Z"/><rect class="cls-4" x="215.4" y="310.9" width="74.3" height="29.5"/><rect class="cls-5" x="215.4" y="309.5" width="74.3" height="2.2"/><rect class="cls-4" x="215.4" y="279.3" width="74.3" height="2.2"/><path class="cls-4" d="M288.9,253.1H216.1l-.2.3a2.62,2.62,0,0,0-.5,1.7v.2h74.3v-.2a3.37,3.37,0,0,0-.5-1.7Z"/><path class="cls-6" d="M512.4,340.4h72.3V251.9a1.32,1.32,0,0,0-1.3-1.3H572"/><rect class="cls-7" x="512.4" y="322.5" width="58.7" height="17.9"/><rect class="cls-3" x="523.3" y="322.5" width="37.8" height="17.9"/><path class="cls-7" d="M561.1,238.6h9.6a1.32,1.32,0,0,1,1.3,1.3v71.6H512.4V239.9a1.32,1.32,0,0,1,1.3-1.3h9.6"/><polyline class="cls-8" points="421.9 340.4 421.9 314.2 433.9 302.2 449.4 317.8 449.5 340.6 418.1 340.6"/><rect class="cls-8" x="351.6" y="315.5" width="67.7" height="25.2"/><polyline class="cls-8" points="398.7 274.2 420 274.2 420 300.4 350.8 300.4 350.8 274.2 372 274.2"/><path class="cls-3" d="M561.1,302.1H523.3V229.3a1.32,1.32,0,0,1,1.3-1.3h35.3a1.32,1.32,0,0,1,1.3,1.3v72.8Z"/><path class="cls-9" d="M550.7,292H533.8a1,1,0,0,1-1-1V244.4a1,1,0,0,1,1-1h16.9a1,1,0,0,1,1,1V291A1,1,0,0,1,550.7,292Z"/><path class="cls-7" d="M547,340.4h-9.5V326.5a.9.9,0,0,1,.9-.9h7.8a.9.9,0,0,1,.9.9v13.9Z"/><path class="cls-4" d="M576.4,322.5H508.1v-9.7a1.32,1.32,0,0,1,1.3-1.3h65.8a1.32,1.32,0,0,1,1.3,1.3v9.7Z"/><line class="cls-10" x1="532.8" y1="275.8" x2="551.7" y2="275.8"/><path class="cls-4" d="M392.9,255.7h25.9a1.28,1.28,0,0,1,1.2,1.1l1.9,17.5H398.7"/><path class="cls-4" d="M372,274.2H348.9l1.9-17.5a1.28,1.28,0,0,1,1.2-1.1h25.9"/><polygon class="cls-5" points="400.7 268.2 385.4 251 370.1 268.2 370.1 264.5 377.9 255.7 385.4 247.2 392.9 255.7 400.7 264.5 400.7 268.2"/><polygon class="cls-3" points="398.7 266.3 398.7 300.4 372.1 300.4 372.1 266.3 385.4 251 398.7 266.3"/><path class="cls-9" d="M365.1,293.4h-7.3a.94.94,0,0,1-1-1V282.2a.94.94,0,0,1,1-1h7.3a.94.94,0,0,1,1,1v10.2A.94.94,0,0,1,365.1,293.4Z"/><path class="cls-9" d="M369,335H354.6V321.5a.94.94,0,0,1,1-1H368a.94.94,0,0,1,1,1Z"/><path class="cls-9" d="M416.2,335H401.7V321.5a.94.94,0,0,1,1-1h12.5a.94.94,0,0,1,1,1Z"/><path class="cls-9" d="M413,293.4h-7.3a.94.94,0,0,1-1-1V282.2a.94.94,0,0,1,1-1H413a.94.94,0,0,1,1,1v10.2A1,1,0,0,1,413,293.4Z"/><path class="cls-7" d="M389.4,337h-7.9V321.2a.86.86,0,0,1,.8-.8h6.4a.86.86,0,0,1,.8.8V337Z"/><rect class="cls-4" x="379.9" y="337" width="11.1" height="1.8"/><rect class="cls-5" x="350.2" y="338.8" width="68.7" height="1.9"/><path class="cls-9" d="M385.4,294.6h-6.9a.94.94,0,0,1-1-1V279.5a.94.94,0,0,1,1-1h6.9Z"/><path class="cls-9" d="M392.3,294.6h-6.9V278.5h6.9a.94.94,0,0,1,1,1v14.1A.94.94,0,0,1,392.3,294.6Z"/><rect class="cls-4" x="348.9" y="315.5" width="2.6" height="25.1"/><rect class="cls-4" x="419.2" y="315.5" width="2.6" height="24.9"/><rect class="cls-11" x="351.6" y="329.6" width="2.9" height="11"/><rect class="cls-11" x="354.5" y="329.6" width="2.9" height="11"/><rect class="cls-11" x="357.4" y="329.6" width="2.9" height="11"/><rect class="cls-11" x="360.3" y="329.6" width="2.9" height="11"/><rect class="cls-11" x="363.3" y="329.6" width="2.9" height="11"/><rect class="cls-11" x="366.2" y="329.6" width="2.9" height="11"/><rect class="cls-11" x="369.1" y="329.6" width="2.9" height="11"/><rect class="cls-11" x="372" y="329.6" width="2.9" height="11"/><rect class="cls-11" x="398.8" y="329.6" width="2.9" height="11"/><rect class="cls-11" x="395.8" y="329.6" width="2.9" height="11"/><rect class="cls-11" x="401.7" y="329.6" width="2.9" height="11"/><rect class="cls-11" x="404.6" y="329.6" width="2.9" height="11"/><rect class="cls-11" x="407.5" y="329.6" width="2.9" height="11"/><rect class="cls-11" x="410.5" y="329.6" width="2.9" height="11"/><rect class="cls-11" x="413.4" y="329.6" width="2.9" height="11"/><rect class="cls-11" x="416.3" y="329.6" width="2.9" height="11"/><path class="cls-7" d="M423.8,340h20.7V322a.86.86,0,0,0-.8-.8H424.6a.86.86,0,0,0-.8.8v18Z"/><circle class="cls-9" cx="385.3" cy="266.9" r="4"/><path class="cls-9" d="M276.4,286.9H228.5a1.11,1.11,0,0,0-1.1,1.1v15a1.11,1.11,0,0,0,1.1,1.1h47.9a1.11,1.11,0,0,0,1.1-1.1V288A1.11,1.11,0,0,0,276.4,286.9Z"/><path class="cls-9" d="M256.8,242.9h-8.5a1.11,1.11,0,0,1-1.1-1.1v-8.9a1.11,1.11,0,0,1,1.1-1.1h8.5a1.11,1.11,0,0,1,1.1,1.1v8.9A1.11,1.11,0,0,1,256.8,242.9Z"/><path class="cls-9" d="M241.2,273.9H230.6a1.11,1.11,0,0,1-1.1-1.1v-11a1.11,1.11,0,0,1,1.1-1.1h10.6a1.11,1.11,0,0,1,1.1,1.1v11A1.11,1.11,0,0,1,241.2,273.9Z"/><path class="cls-9" d="M274.5,273.9H263.9a1.11,1.11,0,0,1-1.1-1.1v-11a1.11,1.11,0,0,1,1.1-1.1h10.6a1.11,1.11,0,0,1,1.1,1.1v11A1.11,1.11,0,0,1,274.5,273.9Z"/><path class="cls-7" d="M238.6,340.5V323a9.41,9.41,0,0,0-18.8,0v17.5Z"/><path class="cls-7" d="M285.3,340.5V323a9.41,9.41,0,0,0-18.8,0v17.5Z"/><path class="cls-7" d="M261.9,340.5V323a9.41,9.41,0,0,0-18.8,0v17.5Z"/><line class="cls-2" x1="385.4" y1="247.2" x2="385.4" y2="70.1"/><polygon class="cls-4" points="423.9 315.5 346.9 315.5 350.9 300.4 419.9 300.4 423.9 315.5"/><line class="cls-12" x1="99.7" y1="340.7" x2="700.3" y2="340.7"/><polyline class="cls-5" points="422.4 309.9 433.8 298.4 451.1 315.7 451.1 319.5 433.8 302.2 423.2 312.8"/><path class="cls-13" d="M543.7,128.8h-12a4.81,4.81,0,0,0,.7-2.4h0a4.91,4.91,0,0,0-4.9-4.9h-9.9a4.91,4.91,0,0,0-4.9,4.9h0a4.81,4.81,0,0,0,.7,2.4H492.2a4.9,4.9,0,1,0,0,9.8h11.3a4.81,4.81,0,0,0-.7,2.4,4.91,4.91,0,0,0,4.9,4.9h25.9a4.91,4.91,0,0,0,4.9-4.9,4.81,4.81,0,0,0-.7-2.4h5.9a4.9,4.9,0,0,0,0-9.8Z"/><path class="cls-14" d="M170.1,156.4H159.4a4.72,4.72,0,0,0-4.1-7.2H104.6a4.8,4.8,0,1,0,0,9.6h10.7a4.72,4.72,0,0,0,4.1,7.2h50.7a4.8,4.8,0,0,0,4.8-4.8A4.87,4.87,0,0,0,170.1,156.4Z"/><path class="cls-15" d="M359.4,188.4H317.9a3.9,3.9,0,0,0-3.9,3.9,3.83,3.83,0,0,0,.5,1.9H310a3.9,3.9,0,1,0,0,7.8h24.7a3.9,3.9,0,0,0,3.9-3.9,3.83,3.83,0,0,0-.5-1.9h21.3a3.9,3.9,0,0,0,3.9-3.9A3.84,3.84,0,0,0,359.4,188.4Z"/><path class="cls-16" d="M267.9,104.3H258a4,4,0,0,0,.3-1.5,3.9,3.9,0,0,0-3.9-3.9h-9.8a4.14,4.14,0,0,0,.5-1.9,3.9,3.9,0,0,0-3.9-3.9h-2.4a3.9,3.9,0,0,0-3.9,3.9,3.83,3.83,0,0,0,.5,1.9h-2.6a3.9,3.9,0,0,0-3.9,3.9,4,4,0,0,0,.3,1.5h-2.8a3.9,3.9,0,0,0,0,7.8h41.5a3.9,3.9,0,0,0,3.9-3.9A3.84,3.84,0,0,0,267.9,104.3Z"/><path class="cls-16" d="M696.4,104.6h-2.1a4.14,4.14,0,0,0,.5-1.9h0a3.9,3.9,0,0,0-3.9-3.9h-3.5a4.14,4.14,0,0,0,.5-1.9A3.9,3.9,0,0,0,684,93H668.8a3.9,3.9,0,0,0-3.9,3.9,3.83,3.83,0,0,0,.5,1.9H649.3a3.9,3.9,0,0,0-3.9,3.9h0a3.83,3.83,0,0,0,.5,1.9H630.4a3.9,3.9,0,1,0,0,7.8h66a3.9,3.9,0,0,0,3.9-3.9A3.84,3.84,0,0,0,696.4,104.6Z"/><line class="cls-2" x1="542.2" y1="228" x2="542.2" y2="70.1"/><line class="cls-10" x1="244.1" y1="286.9" x2="244.1" y2="304.1"/><line class="cls-10" x1="261.4" y1="286.9" x2="261.4" y2="304.1"/><g class="cls-17"><text class="cls-18" transform="translate(257.52 55.64)">51.9625101,</text><text class="cls-18" transform="translate(257.52 67.64)">7.6251879</text></g><g class="cls-17"><text class="cls-18" transform="translate(390.4 55.64)">41.4086874,</text><text class="cls-18" transform="translate(390.4 67.64)">-75.6621294</text></g><g class="cls-17"><text class="cls-18" transform="translate(547.22 55.64)">35.6828387</text><text class="cls-18" transform="translate(547.22 67.64)">139.7594549</text></g><circle cx="252.5" cy="69.4" r="1.7"/><circle cx="542.2" cy="69.4" r="1.7"/><circle cx="385.4" cy="69.4" r="1.7"/></g></svg>